<?xml version="1.0" encoding="UTF-8" standalone="no"?>
<!DOCTYPE svg PUBLIC "-//W3C//DTD SVG 1.1//EN" "http://www.w3.org/Graphics/SVG/1.1/DTD/svg11.dtd">
<svg width="100%" height="100%" viewBox="0 0 1374 554" version="1.1" xmlns="http://www.w3.org/2000/svg" xmlns:xlink="http://www.w3.org/1999/xlink" xml:space="preserve" xmlns:serif="http://www.serif.com/" style="fill-rule:evenodd;clip-rule:evenodd;stroke-linejoin:round;stroke-miterlimit:2;">
    <g transform="matrix(1,0,0,1,-273,-135)">
        <g>
            <g transform="matrix(1,0,0,1,540.092,388.26)">
                <g transform="matrix(143.793,0,0,143.793,0,0)">
                    <path d="M0.388,-0.604C0.397,-0.613 0.403,-0.622 0.406,-0.632C0.408,-0.64 0.412,-0.644 0.417,-0.644C0.42,-0.644 0.423,-0.642 0.426,-0.639C0.428,-0.627 0.431,-0.603 0.436,-0.568L0.447,-0.476C0.447,-0.47 0.444,-0.467 0.437,-0.467C0.433,-0.467 0.429,-0.471 0.426,-0.477C0.409,-0.52 0.383,-0.555 0.35,-0.583C0.316,-0.611 0.279,-0.625 0.239,-0.625C0.199,-0.625 0.17,-0.614 0.15,-0.59C0.13,-0.566 0.12,-0.541 0.12,-0.514C0.12,-0.482 0.131,-0.457 0.152,-0.439C0.174,-0.422 0.219,-0.403 0.287,-0.381C0.337,-0.365 0.375,-0.35 0.4,-0.335C0.425,-0.321 0.445,-0.3 0.462,-0.274C0.479,-0.248 0.488,-0.219 0.488,-0.189C0.488,-0.138 0.466,-0.091 0.424,-0.051C0.381,-0.01 0.329,0.01 0.267,0.01C0.211,0.01 0.155,-0.007 0.099,-0.042C0.088,-0.033 0.081,-0.022 0.078,-0.01C0.075,0.001 0.071,0.006 0.065,0.006C0.06,0.006 0.056,-0.001 0.054,-0.014C0.051,-0.028 0.047,-0.091 0.04,-0.204C0.041,-0.208 0.044,-0.209 0.05,-0.209C0.055,-0.209 0.059,-0.206 0.062,-0.199C0.112,-0.073 0.182,-0.01 0.271,-0.01C0.316,-0.01 0.351,-0.023 0.376,-0.05C0.401,-0.077 0.414,-0.108 0.414,-0.143C0.414,-0.167 0.407,-0.189 0.394,-0.209C0.38,-0.229 0.362,-0.245 0.34,-0.258C0.318,-0.27 0.283,-0.284 0.234,-0.299C0.173,-0.319 0.13,-0.338 0.108,-0.356C0.086,-0.373 0.069,-0.393 0.059,-0.416C0.049,-0.438 0.043,-0.46 0.043,-0.48C0.043,-0.524 0.063,-0.562 0.102,-0.596C0.142,-0.629 0.19,-0.646 0.247,-0.646C0.268,-0.646 0.291,-0.643 0.314,-0.636C0.338,-0.629 0.362,-0.618 0.388,-0.604Z" style="fill-rule:nonzero;"/>
                </g>
                <g transform="matrix(143.793,0,0,143.793,74.9156,0)">
                    <path d="M0.117,-0.658C0.129,-0.658 0.14,-0.654 0.15,-0.645C0.16,-0.635 0.165,-0.625 0.165,-0.615C0.165,-0.602 0.161,-0.591 0.153,-0.582C0.145,-0.573 0.134,-0.568 0.12,-0.568C0.107,-0.568 0.096,-0.572 0.086,-0.58C0.077,-0.588 0.072,-0.599 0.072,-0.613C0.072,-0.626 0.076,-0.637 0.084,-0.646C0.093,-0.654 0.103,-0.658 0.117,-0.658ZM0.171,-0.419L0.17,-0.31L0.171,-0.207L0.171,-0.13L0.171,-0.071C0.171,-0.048 0.175,-0.033 0.182,-0.027C0.19,-0.02 0.201,-0.017 0.217,-0.016C0.235,-0.015 0.244,-0.011 0.244,-0.005C0.244,0 0.24,0.003 0.233,0.003C0.231,0.003 0.228,0.003 0.225,0.002C0.194,-0.001 0.166,-0.003 0.14,-0.003C0.098,-0.003 0.07,-0.002 0.054,0C0.05,0.001 0.047,0.001 0.044,0.001C0.036,0.001 0.032,-0.001 0.032,-0.007C0.032,-0.013 0.041,-0.017 0.059,-0.02C0.077,-0.022 0.089,-0.026 0.094,-0.031C0.099,-0.037 0.102,-0.053 0.102,-0.08L0.105,-0.282C0.105,-0.336 0.101,-0.368 0.093,-0.378C0.085,-0.388 0.069,-0.393 0.045,-0.394C0.038,-0.394 0.034,-0.397 0.034,-0.402C0.034,-0.405 0.035,-0.407 0.038,-0.409C0.04,-0.41 0.06,-0.412 0.096,-0.415C0.132,-0.418 0.157,-0.419 0.171,-0.419Z" style="fill-rule:nonzero;"/>
                </g>
                <g transform="matrix(143.793,0,0,143.793,112.338,0)">
                    <path d="M0.175,-0.669C0.176,-0.628 0.177,-0.587 0.177,-0.546L0.176,-0.242L0.178,-0.095C0.178,-0.067 0.182,-0.047 0.19,-0.034C0.198,-0.022 0.215,-0.014 0.242,-0.012C0.252,-0.011 0.257,-0.008 0.257,-0.003C0.257,0.003 0.253,0.005 0.245,0.005C0.242,0.005 0.24,0.005 0.236,0.005C0.203,0.002 0.163,-0 0.116,-0C0.088,-0 0.065,0.001 0.048,0.004C0.044,0.005 0.041,0.005 0.038,0.005C0.028,0.005 0.023,0.002 0.023,-0.004C0.023,-0.01 0.028,-0.013 0.037,-0.013C0.066,-0.014 0.086,-0.022 0.095,-0.039C0.104,-0.056 0.109,-0.084 0.109,-0.123L0.107,-0.401C0.107,-0.491 0.106,-0.544 0.104,-0.562C0.102,-0.579 0.095,-0.594 0.083,-0.605C0.072,-0.617 0.056,-0.625 0.036,-0.628C0.023,-0.63 0.017,-0.633 0.017,-0.638C0.017,-0.644 0.022,-0.647 0.032,-0.647C0.092,-0.651 0.137,-0.659 0.167,-0.669L0.175,-0.669Z" style="fill-rule:nonzero;"/>
                </g>
                <g transform="matrix(143.793,0,0,143.793,152.78,0)">
                    <path d="M0.156,-0.364C0.192,-0.401 0.234,-0.419 0.281,-0.419C0.334,-0.419 0.378,-0.399 0.414,-0.358C0.451,-0.318 0.469,-0.271 0.469,-0.216C0.469,-0.157 0.451,-0.105 0.415,-0.06C0.378,-0.014 0.331,0.009 0.271,0.009C0.221,0.009 0.178,-0.004 0.144,-0.029C0.133,-0.037 0.125,-0.042 0.121,-0.042C0.113,-0.042 0.107,-0.035 0.102,-0.021C0.098,-0.008 0.094,-0.001 0.089,-0.001C0.084,-0.001 0.081,-0.006 0.081,-0.015L0.082,-0.035L0.088,-0.462C0.088,-0.538 0.088,-0.583 0.087,-0.596C0.086,-0.608 0.083,-0.618 0.077,-0.625C0.072,-0.631 0.061,-0.637 0.045,-0.642C0.038,-0.644 0.034,-0.648 0.034,-0.652C0.034,-0.657 0.038,-0.659 0.047,-0.659L0.133,-0.66C0.141,-0.658 0.148,-0.656 0.153,-0.655C0.158,-0.654 0.161,-0.649 0.161,-0.642C0.161,-0.638 0.16,-0.631 0.16,-0.62C0.157,-0.579 0.156,-0.493 0.156,-0.364ZM0.15,-0.151C0.15,-0.117 0.153,-0.092 0.158,-0.076C0.164,-0.06 0.176,-0.045 0.195,-0.032C0.213,-0.018 0.236,-0.012 0.262,-0.012C0.297,-0.012 0.326,-0.028 0.351,-0.062C0.375,-0.096 0.388,-0.141 0.388,-0.199C0.388,-0.26 0.376,-0.307 0.354,-0.342C0.331,-0.377 0.3,-0.394 0.261,-0.394C0.226,-0.394 0.199,-0.38 0.179,-0.352C0.16,-0.324 0.15,-0.257 0.15,-0.151Z" style="fill-rule:nonzero;"/>
                </g>
                <g transform="matrix(143.793,0,0,143.793,224.677,0)">
                    <path d="M0.115,-0.228C0.113,-0.211 0.113,-0.198 0.113,-0.188C0.113,-0.142 0.126,-0.103 0.154,-0.071C0.181,-0.039 0.215,-0.023 0.255,-0.023C0.294,-0.023 0.33,-0.039 0.364,-0.07C0.374,-0.079 0.38,-0.083 0.382,-0.083C0.388,-0.083 0.39,-0.079 0.391,-0.071C0.378,-0.048 0.357,-0.029 0.327,-0.013C0.297,0.002 0.264,0.01 0.227,0.01C0.173,0.01 0.127,-0.009 0.09,-0.048C0.052,-0.087 0.034,-0.136 0.034,-0.196C0.034,-0.26 0.054,-0.313 0.095,-0.355C0.137,-0.398 0.181,-0.419 0.228,-0.419C0.271,-0.419 0.311,-0.403 0.347,-0.369C0.382,-0.336 0.4,-0.297 0.4,-0.252C0.4,-0.245 0.399,-0.24 0.397,-0.237C0.395,-0.234 0.382,-0.232 0.359,-0.232L0.115,-0.228ZM0.115,-0.253C0.157,-0.251 0.198,-0.25 0.238,-0.25L0.264,-0.252C0.284,-0.253 0.299,-0.256 0.309,-0.263C0.319,-0.27 0.325,-0.283 0.325,-0.3C0.325,-0.328 0.315,-0.351 0.297,-0.372C0.278,-0.392 0.256,-0.402 0.23,-0.402C0.207,-0.402 0.183,-0.391 0.16,-0.367C0.137,-0.344 0.122,-0.306 0.115,-0.253Z" style="fill-rule:nonzero;"/>
                </g>
                <g transform="matrix(143.793,0,0,143.793,286.112,0)">
                    <path d="M0.171,-0.308C0.192,-0.345 0.214,-0.372 0.237,-0.391C0.26,-0.409 0.285,-0.418 0.311,-0.418C0.328,-0.418 0.344,-0.412 0.357,-0.399C0.37,-0.386 0.376,-0.371 0.376,-0.355C0.376,-0.324 0.363,-0.309 0.337,-0.309C0.325,-0.309 0.314,-0.317 0.306,-0.334C0.295,-0.356 0.281,-0.367 0.264,-0.367C0.248,-0.367 0.231,-0.358 0.214,-0.34C0.197,-0.322 0.185,-0.302 0.179,-0.28C0.173,-0.258 0.17,-0.213 0.17,-0.144C0.17,-0.08 0.173,-0.044 0.178,-0.035C0.183,-0.026 0.197,-0.02 0.218,-0.017C0.224,-0.016 0.227,-0.014 0.227,-0.01C0.227,-0.003 0.219,-0 0.204,-0L0.048,-0C0.037,-0 0.032,-0.003 0.032,-0.008C0.032,-0.014 0.039,-0.016 0.054,-0.017C0.074,-0.018 0.087,-0.025 0.092,-0.036C0.097,-0.048 0.099,-0.09 0.099,-0.162C0.099,-0.269 0.097,-0.333 0.093,-0.354C0.088,-0.376 0.072,-0.387 0.043,-0.389C0.032,-0.389 0.026,-0.392 0.026,-0.398C0.026,-0.401 0.027,-0.403 0.03,-0.405C0.032,-0.406 0.047,-0.408 0.074,-0.409L0.164,-0.414C0.166,-0.396 0.169,-0.361 0.171,-0.308Z" style="fill-rule:nonzero;"/>
                </g>
                <g transform="matrix(143.793,0,0,143.793,343.053,0)">
                    <path d="M0.162,-0.346C0.201,-0.395 0.248,-0.419 0.302,-0.419C0.345,-0.419 0.378,-0.407 0.401,-0.383C0.424,-0.358 0.436,-0.315 0.436,-0.252L0.433,-0.123C0.433,-0.082 0.433,-0.057 0.434,-0.048C0.435,-0.039 0.44,-0.031 0.448,-0.025C0.456,-0.018 0.465,-0.015 0.473,-0.015C0.481,-0.015 0.486,-0.013 0.486,-0.009C0.486,-0.003 0.479,-0 0.464,-0L0.32,-0C0.314,-0.001 0.312,-0.004 0.312,-0.008C0.312,-0.013 0.315,-0.016 0.323,-0.017C0.346,-0.02 0.36,-0.029 0.364,-0.044C0.368,-0.059 0.37,-0.107 0.37,-0.188C0.37,-0.275 0.361,-0.331 0.344,-0.357C0.327,-0.382 0.304,-0.395 0.275,-0.395C0.247,-0.395 0.222,-0.384 0.201,-0.363C0.18,-0.341 0.167,-0.31 0.163,-0.269C0.159,-0.227 0.157,-0.177 0.157,-0.117C0.157,-0.077 0.159,-0.05 0.164,-0.038C0.168,-0.026 0.18,-0.018 0.2,-0.014C0.208,-0.012 0.212,-0.009 0.212,-0.005C0.212,0 0.208,0.003 0.2,0.003L0.102,0.001C0.08,0.001 0.062,0.001 0.046,0.002C0.037,0.002 0.032,-0 0.032,-0.005C0.032,-0.01 0.036,-0.013 0.043,-0.014C0.059,-0.016 0.07,-0.02 0.075,-0.027C0.081,-0.034 0.085,-0.06 0.089,-0.106C0.093,-0.151 0.095,-0.21 0.095,-0.281C0.095,-0.408 0.095,-0.492 0.094,-0.531C0.092,-0.571 0.087,-0.599 0.076,-0.617C0.066,-0.635 0.053,-0.645 0.038,-0.648C0.029,-0.65 0.024,-0.653 0.024,-0.658C0.024,-0.66 0.025,-0.662 0.028,-0.662C0.03,-0.663 0.04,-0.663 0.059,-0.663C0.091,-0.663 0.125,-0.664 0.162,-0.667L0.161,-0.424C0.161,-0.393 0.161,-0.367 0.162,-0.346Z" style="fill-rule:nonzero;"/>
                </g>
                <g transform="matrix(143.793,0,0,143.793,417.969,0)">
                    <path d="M0.034,-0.204C0.034,-0.261 0.054,-0.311 0.096,-0.355C0.137,-0.399 0.188,-0.42 0.248,-0.42C0.305,-0.42 0.353,-0.401 0.394,-0.362C0.435,-0.323 0.456,-0.274 0.456,-0.216C0.456,-0.156 0.434,-0.104 0.391,-0.06C0.348,-0.015 0.298,0.007 0.241,0.007C0.184,0.007 0.135,-0.013 0.095,-0.054C0.054,-0.096 0.034,-0.145 0.034,-0.204ZM0.113,-0.207C0.113,-0.151 0.126,-0.104 0.152,-0.067C0.177,-0.03 0.209,-0.012 0.248,-0.012C0.282,-0.012 0.313,-0.029 0.34,-0.064C0.366,-0.099 0.379,-0.145 0.379,-0.202C0.379,-0.254 0.367,-0.3 0.341,-0.34C0.316,-0.38 0.282,-0.4 0.242,-0.4C0.204,-0.4 0.173,-0.382 0.149,-0.345C0.125,-0.308 0.113,-0.262 0.113,-0.207Z" style="fill-rule:nonzero;"/>
                </g>
                <g transform="matrix(143.793,0,0,143.793,488.391,0)">
                    <path d="M0.032,-0.197C0.032,-0.257 0.051,-0.309 0.09,-0.353C0.128,-0.398 0.174,-0.42 0.229,-0.42C0.265,-0.42 0.299,-0.412 0.332,-0.394C0.364,-0.377 0.38,-0.355 0.38,-0.329C0.38,-0.319 0.377,-0.31 0.371,-0.302C0.365,-0.295 0.358,-0.291 0.35,-0.291C0.331,-0.291 0.317,-0.306 0.308,-0.335C0.293,-0.38 0.266,-0.402 0.229,-0.402C0.192,-0.402 0.164,-0.386 0.144,-0.354C0.125,-0.322 0.115,-0.28 0.115,-0.228C0.115,-0.167 0.129,-0.116 0.156,-0.078C0.183,-0.039 0.215,-0.02 0.253,-0.02C0.278,-0.02 0.303,-0.029 0.326,-0.049C0.349,-0.068 0.363,-0.091 0.367,-0.119C0.368,-0.129 0.372,-0.133 0.377,-0.133C0.383,-0.133 0.386,-0.13 0.386,-0.125C0.386,-0.093 0.372,-0.063 0.342,-0.035C0.313,-0.007 0.273,0.007 0.224,0.007C0.17,0.007 0.124,-0.013 0.087,-0.054C0.051,-0.095 0.032,-0.143 0.032,-0.197Z" style="fill-rule:nonzero;"/>
                </g>
                <g transform="matrix(143.793,0,0,143.793,548.281,0)">
                    <path d="M0.162,-0.346C0.201,-0.395 0.248,-0.419 0.302,-0.419C0.345,-0.419 0.378,-0.407 0.401,-0.383C0.424,-0.358 0.436,-0.315 0.436,-0.252L0.433,-0.123C0.433,-0.082 0.433,-0.057 0.434,-0.048C0.435,-0.039 0.44,-0.031 0.448,-0.025C0.456,-0.018 0.465,-0.015 0.473,-0.015C0.481,-0.015 0.486,-0.013 0.486,-0.009C0.486,-0.003 0.479,-0 0.464,-0L0.32,-0C0.314,-0.001 0.312,-0.004 0.312,-0.008C0.312,-0.013 0.315,-0.016 0.323,-0.017C0.346,-0.02 0.36,-0.029 0.364,-0.044C0.368,-0.059 0.37,-0.107 0.37,-0.188C0.37,-0.275 0.361,-0.331 0.344,-0.357C0.327,-0.382 0.304,-0.395 0.275,-0.395C0.247,-0.395 0.222,-0.384 0.201,-0.363C0.18,-0.341 0.167,-0.31 0.163,-0.269C0.159,-0.227 0.157,-0.177 0.157,-0.117C0.157,-0.077 0.159,-0.05 0.164,-0.038C0.168,-0.026 0.18,-0.018 0.2,-0.014C0.208,-0.012 0.212,-0.009 0.212,-0.005C0.212,0 0.208,0.003 0.2,0.003L0.102,0.001C0.08,0.001 0.062,0.001 0.046,0.002C0.037,0.002 0.032,-0 0.032,-0.005C0.032,-0.01 0.036,-0.013 0.043,-0.014C0.059,-0.016 0.07,-0.02 0.075,-0.027C0.081,-0.034 0.085,-0.06 0.089,-0.106C0.093,-0.151 0.095,-0.21 0.095,-0.281C0.095,-0.408 0.095,-0.492 0.094,-0.531C0.092,-0.571 0.087,-0.599 0.076,-0.617C0.066,-0.635 0.053,-0.645 0.038,-0.648C0.029,-0.65 0.024,-0.653 0.024,-0.658C0.024,-0.66 0.025,-0.662 0.028,-0.662C0.03,-0.663 0.04,-0.663 0.059,-0.663C0.091,-0.663 0.125,-0.664 0.162,-0.667L0.161,-0.424C0.161,-0.393 0.161,-0.367 0.162,-0.346Z" style="fill-rule:nonzero;"/>
                </g>
                <g transform="matrix(143.793,0,0,143.793,623.197,0)">
                    <path d="M0.08,-0.411C0.094,-0.413 0.145,-0.414 0.231,-0.414L0.294,-0.415L0.356,-0.413C0.369,-0.413 0.375,-0.41 0.375,-0.404C0.375,-0.4 0.359,-0.372 0.327,-0.322L0.204,-0.128C0.171,-0.079 0.15,-0.044 0.141,-0.022C0.153,-0.022 0.165,-0.021 0.178,-0.021L0.21,-0.021L0.246,-0.021C0.267,-0.021 0.282,-0.023 0.293,-0.027C0.304,-0.031 0.314,-0.037 0.322,-0.046C0.331,-0.054 0.351,-0.079 0.383,-0.121C0.388,-0.127 0.392,-0.129 0.395,-0.129C0.401,-0.129 0.403,-0.126 0.403,-0.121C0.403,-0.119 0.394,-0.079 0.375,-0.003L0.245,-0.002L0.131,-0.004L0.069,-0.002C0.056,-0.002 0.049,-0.005 0.049,-0.012C0.049,-0.023 0.085,-0.08 0.155,-0.183C0.187,-0.229 0.206,-0.26 0.214,-0.274C0.222,-0.288 0.245,-0.328 0.283,-0.394C0.258,-0.395 0.24,-0.395 0.231,-0.395C0.191,-0.395 0.16,-0.39 0.138,-0.379C0.117,-0.368 0.097,-0.347 0.077,-0.316C0.068,-0.301 0.061,-0.293 0.057,-0.293C0.052,-0.293 0.049,-0.296 0.049,-0.302C0.049,-0.304 0.051,-0.309 0.053,-0.316C0.058,-0.332 0.067,-0.363 0.08,-0.411Z" style="fill-rule:nonzero;"/>
                </g>
                <g transform="matrix(143.793,0,0,143.793,687.58,0)">
                    <path d="M0.115,-0.228C0.113,-0.211 0.113,-0.198 0.113,-0.188C0.113,-0.142 0.126,-0.103 0.154,-0.071C0.181,-0.039 0.215,-0.023 0.255,-0.023C0.294,-0.023 0.33,-0.039 0.364,-0.07C0.374,-0.079 0.38,-0.083 0.382,-0.083C0.388,-0.083 0.39,-0.079 0.391,-0.071C0.378,-0.048 0.357,-0.029 0.327,-0.013C0.297,0.002 0.264,0.01 0.227,0.01C0.173,0.01 0.127,-0.009 0.09,-0.048C0.052,-0.087 0.034,-0.136 0.034,-0.196C0.034,-0.26 0.054,-0.313 0.095,-0.355C0.137,-0.398 0.181,-0.419 0.228,-0.419C0.271,-0.419 0.311,-0.403 0.347,-0.369C0.382,-0.336 0.4,-0.297 0.4,-0.252C0.4,-0.245 0.399,-0.24 0.397,-0.237C0.395,-0.234 0.382,-0.232 0.359,-0.232L0.115,-0.228ZM0.115,-0.253C0.157,-0.251 0.198,-0.25 0.238,-0.25L0.264,-0.252C0.284,-0.253 0.299,-0.256 0.309,-0.263C0.319,-0.27 0.325,-0.283 0.325,-0.3C0.325,-0.328 0.315,-0.351 0.297,-0.372C0.278,-0.392 0.256,-0.402 0.23,-0.402C0.207,-0.402 0.183,-0.391 0.16,-0.367C0.137,-0.344 0.122,-0.306 0.115,-0.253Z" style="fill-rule:nonzero;"/>
                </g>
                <g transform="matrix(143.793,0,0,143.793,749.015,0)">
                    <path d="M0.117,-0.658C0.129,-0.658 0.14,-0.654 0.15,-0.645C0.16,-0.635 0.165,-0.625 0.165,-0.615C0.165,-0.602 0.161,-0.591 0.153,-0.582C0.145,-0.573 0.134,-0.568 0.12,-0.568C0.107,-0.568 0.096,-0.572 0.086,-0.58C0.077,-0.588 0.072,-0.599 0.072,-0.613C0.072,-0.626 0.076,-0.637 0.084,-0.646C0.093,-0.654 0.103,-0.658 0.117,-0.658ZM0.171,-0.419L0.17,-0.31L0.171,-0.207L0.171,-0.13L0.171,-0.071C0.171,-0.048 0.175,-0.033 0.182,-0.027C0.19,-0.02 0.201,-0.017 0.217,-0.016C0.235,-0.015 0.244,-0.011 0.244,-0.005C0.244,0 0.24,0.003 0.233,0.003C0.231,0.003 0.228,0.003 0.225,0.002C0.194,-0.001 0.166,-0.003 0.14,-0.003C0.098,-0.003 0.07,-0.002 0.054,0C0.05,0.001 0.047,0.001 0.044,0.001C0.036,0.001 0.032,-0.001 0.032,-0.007C0.032,-0.013 0.041,-0.017 0.059,-0.02C0.077,-0.022 0.089,-0.026 0.094,-0.031C0.099,-0.037 0.102,-0.053 0.102,-0.08L0.105,-0.282C0.105,-0.336 0.101,-0.368 0.093,-0.378C0.085,-0.388 0.069,-0.393 0.045,-0.394C0.038,-0.394 0.034,-0.397 0.034,-0.402C0.034,-0.405 0.035,-0.407 0.038,-0.409C0.04,-0.41 0.06,-0.412 0.096,-0.415C0.132,-0.418 0.157,-0.419 0.171,-0.419Z" style="fill-rule:nonzero;"/>
                </g>
                <g transform="matrix(143.793,0,0,143.793,786.438,0)">
                    <path d="M0.187,-0.375C0.182,-0.302 0.18,-0.232 0.18,-0.162C0.18,-0.109 0.187,-0.074 0.199,-0.058C0.212,-0.041 0.23,-0.033 0.254,-0.033C0.272,-0.033 0.291,-0.04 0.312,-0.052C0.319,-0.057 0.324,-0.059 0.325,-0.059C0.33,-0.059 0.332,-0.057 0.332,-0.052C0.332,-0.044 0.32,-0.032 0.297,-0.015C0.274,0.002 0.245,0.01 0.212,0.01C0.178,0.01 0.153,-0.001 0.137,-0.024C0.12,-0.048 0.112,-0.082 0.112,-0.128C0.112,-0.176 0.115,-0.258 0.121,-0.375C0.118,-0.375 0.103,-0.376 0.074,-0.378L0.045,-0.38C0.038,-0.38 0.034,-0.383 0.034,-0.387C0.034,-0.391 0.038,-0.395 0.046,-0.397C0.06,-0.402 0.082,-0.417 0.113,-0.44C0.145,-0.464 0.163,-0.497 0.168,-0.541C0.17,-0.552 0.173,-0.558 0.179,-0.558C0.185,-0.558 0.188,-0.553 0.188,-0.544C0.188,-0.541 0.188,-0.538 0.188,-0.535C0.187,-0.522 0.187,-0.507 0.187,-0.491L0.187,-0.415L0.294,-0.417C0.312,-0.417 0.322,-0.414 0.322,-0.41C0.322,-0.395 0.319,-0.386 0.315,-0.382C0.298,-0.382 0.255,-0.379 0.187,-0.375Z" style="fill-rule:nonzero;"/>
                </g>
            </g>
            <g transform="matrix(0.630733,0,0,0.630733,236.579,207.661)">
                <g>
                    <g transform="matrix(1,0,0,1,57,521)">
                        <g transform="matrix(254.08,0,0,254.08,0,0)">
                            <path d="M0.321,-0.652L0.344,-0.652C0.38,-0.577 0.431,-0.45 0.495,-0.27C0.536,-0.154 0.564,-0.083 0.579,-0.057C0.595,-0.031 0.619,-0.016 0.653,-0.013C0.664,-0.012 0.669,-0.009 0.669,-0.002C0.669,0.002 0.667,0.004 0.661,0.004L0.654,0.004C0.624,0.001 0.586,-0 0.54,-0C0.469,-0 0.424,0.001 0.403,0.003C0.393,0.003 0.388,0 0.388,-0.005C0.388,-0.01 0.392,-0.012 0.399,-0.013C0.427,-0.016 0.446,-0.021 0.457,-0.027C0.467,-0.034 0.473,-0.045 0.473,-0.06C0.473,-0.074 0.463,-0.109 0.443,-0.165L0.414,-0.249C0.397,-0.249 0.322,-0.248 0.187,-0.246C0.153,-0.155 0.136,-0.099 0.136,-0.075C0.136,-0.055 0.145,-0.04 0.161,-0.031C0.178,-0.021 0.195,-0.016 0.211,-0.015C0.223,-0.014 0.229,-0.01 0.229,-0.004C0.229,-0.001 0.227,0.001 0.223,0.003C0.171,0.001 0.14,-0 0.129,-0C0.074,-0 0.037,0.001 0.019,0.002C0.008,0.002 0.003,-0.001 0.003,-0.007C0.003,-0.012 0.007,-0.015 0.017,-0.017C0.054,-0.021 0.083,-0.047 0.103,-0.093C0.122,-0.139 0.153,-0.221 0.195,-0.34C0.234,-0.449 0.276,-0.553 0.321,-0.652ZM0.302,-0.545C0.272,-0.484 0.236,-0.394 0.196,-0.276C0.229,-0.278 0.254,-0.278 0.268,-0.278L0.405,-0.276C0.393,-0.31 0.376,-0.355 0.355,-0.411C0.328,-0.477 0.31,-0.522 0.302,-0.545Z" style="fill-rule:nonzero;"/>
                        </g>
                        <g transform="matrix(254.08,0,0,254.08,174.68,0)">
                            <path d="M0.156,-0.418C0.164,-0.399 0.168,-0.366 0.17,-0.321C0.19,-0.353 0.212,-0.377 0.237,-0.393C0.262,-0.409 0.288,-0.417 0.317,-0.417C0.34,-0.417 0.361,-0.412 0.382,-0.404C0.402,-0.396 0.418,-0.381 0.429,-0.361C0.441,-0.341 0.446,-0.306 0.446,-0.258L0.443,-0.093C0.443,-0.063 0.446,-0.044 0.451,-0.036C0.456,-0.029 0.467,-0.023 0.483,-0.018C0.495,-0.015 0.5,-0.011 0.5,-0.007C0.5,-0.002 0.498,-0 0.492,-0C0.49,-0 0.488,-0 0.485,-0C0.47,-0.003 0.448,-0.005 0.419,-0.005C0.393,-0.005 0.364,-0.004 0.334,-0.001C0.322,-0.001 0.316,-0.004 0.316,-0.01C0.316,-0.014 0.319,-0.016 0.326,-0.018C0.344,-0.021 0.355,-0.026 0.361,-0.03C0.366,-0.034 0.37,-0.04 0.373,-0.047C0.375,-0.054 0.377,-0.077 0.378,-0.117C0.38,-0.157 0.38,-0.19 0.38,-0.215C0.38,-0.283 0.372,-0.329 0.354,-0.352C0.337,-0.374 0.316,-0.386 0.29,-0.386C0.252,-0.386 0.22,-0.365 0.195,-0.324C0.17,-0.283 0.157,-0.214 0.157,-0.118C0.157,-0.075 0.16,-0.047 0.166,-0.035C0.171,-0.023 0.186,-0.016 0.208,-0.013C0.216,-0.013 0.219,-0.009 0.219,-0.004C0.219,0.001 0.216,0.003 0.209,0.003L0.183,0.001C0.174,0 0.144,-0 0.093,-0L0.054,0.001C0.04,0.001 0.033,-0.002 0.033,-0.007C0.033,-0.012 0.04,-0.017 0.056,-0.02C0.071,-0.022 0.081,-0.028 0.086,-0.035C0.091,-0.042 0.095,-0.067 0.096,-0.108C0.098,-0.149 0.099,-0.201 0.099,-0.263C0.099,-0.321 0.095,-0.357 0.087,-0.371C0.08,-0.385 0.069,-0.393 0.055,-0.396C0.042,-0.399 0.036,-0.403 0.036,-0.409C0.036,-0.414 0.041,-0.417 0.05,-0.417L0.09,-0.417C0.094,-0.417 0.116,-0.417 0.156,-0.418Z" style="fill-rule:nonzero;"/>
                        </g>
                        <g transform="matrix(254.08,0,0,254.08,309.66,0)">
                            <path d="M0.388,-0.35C0.403,-0.327 0.41,-0.301 0.41,-0.273C0.41,-0.231 0.396,-0.195 0.369,-0.166C0.341,-0.136 0.301,-0.119 0.249,-0.115C0.215,-0.113 0.192,-0.11 0.18,-0.107C0.168,-0.104 0.157,-0.097 0.146,-0.088C0.136,-0.079 0.131,-0.07 0.131,-0.061C0.131,-0.047 0.139,-0.037 0.155,-0.03C0.17,-0.024 0.202,-0.02 0.252,-0.018C0.325,-0.015 0.373,-0.012 0.397,-0.009C0.422,-0.005 0.443,0.007 0.46,0.026C0.478,0.045 0.486,0.069 0.486,0.099C0.486,0.149 0.465,0.189 0.421,0.22C0.377,0.251 0.313,0.266 0.228,0.266C0.164,0.266 0.117,0.258 0.085,0.242C0.053,0.226 0.038,0.201 0.038,0.169C0.038,0.118 0.086,0.077 0.182,0.045C0.141,0.039 0.113,0.03 0.096,0.019C0.08,0.007 0.071,-0.008 0.071,-0.029C0.071,-0.049 0.08,-0.068 0.097,-0.084C0.115,-0.099 0.141,-0.113 0.176,-0.124C0.145,-0.133 0.119,-0.149 0.1,-0.172C0.081,-0.195 0.072,-0.222 0.072,-0.252C0.072,-0.297 0.089,-0.336 0.123,-0.369C0.156,-0.403 0.199,-0.419 0.251,-0.419C0.302,-0.419 0.344,-0.402 0.375,-0.367C0.409,-0.405 0.44,-0.424 0.47,-0.424C0.49,-0.424 0.506,-0.418 0.517,-0.407C0.529,-0.395 0.534,-0.382 0.534,-0.368C0.534,-0.359 0.531,-0.352 0.524,-0.346C0.518,-0.34 0.51,-0.337 0.501,-0.337C0.484,-0.337 0.471,-0.347 0.461,-0.367C0.456,-0.378 0.449,-0.384 0.44,-0.384C0.427,-0.384 0.41,-0.373 0.388,-0.35ZM0.149,-0.268C0.149,-0.22 0.16,-0.186 0.181,-0.165C0.202,-0.145 0.224,-0.135 0.248,-0.135C0.269,-0.135 0.289,-0.145 0.306,-0.166C0.324,-0.187 0.333,-0.219 0.333,-0.261C0.333,-0.306 0.324,-0.34 0.307,-0.364C0.289,-0.388 0.268,-0.4 0.243,-0.4C0.215,-0.4 0.193,-0.389 0.176,-0.365C0.158,-0.342 0.149,-0.309 0.149,-0.268ZM0.279,0.047C0.245,0.047 0.214,0.052 0.185,0.063C0.156,0.075 0.135,0.088 0.121,0.103C0.107,0.119 0.1,0.137 0.1,0.159C0.1,0.187 0.114,0.209 0.142,0.224C0.169,0.24 0.204,0.247 0.246,0.247C0.309,0.247 0.356,0.234 0.386,0.209C0.417,0.183 0.432,0.155 0.432,0.125C0.432,0.099 0.419,0.079 0.394,0.066C0.369,0.053 0.33,0.047 0.279,0.047Z" style="fill-rule:nonzero;"/>
                        </g>
                        <g transform="matrix(254.08,0,0,254.08,447.245,0)">
                            <path d="M0.115,-0.228C0.113,-0.211 0.113,-0.198 0.113,-0.188C0.113,-0.142 0.126,-0.103 0.154,-0.071C0.181,-0.039 0.215,-0.023 0.255,-0.023C0.294,-0.023 0.33,-0.039 0.364,-0.07C0.374,-0.079 0.38,-0.083 0.382,-0.083C0.388,-0.083 0.39,-0.079 0.391,-0.071C0.378,-0.048 0.357,-0.029 0.327,-0.013C0.297,0.002 0.264,0.01 0.227,0.01C0.173,0.01 0.127,-0.009 0.09,-0.048C0.052,-0.087 0.034,-0.136 0.034,-0.196C0.034,-0.26 0.054,-0.313 0.095,-0.355C0.137,-0.398 0.181,-0.419 0.228,-0.419C0.271,-0.419 0.311,-0.403 0.347,-0.369C0.382,-0.336 0.4,-0.297 0.4,-0.252C0.4,-0.245 0.399,-0.24 0.397,-0.237C0.395,-0.234 0.382,-0.232 0.359,-0.232L0.115,-0.228ZM0.115,-0.253C0.157,-0.251 0.198,-0.25 0.238,-0.25L0.264,-0.252C0.284,-0.253 0.299,-0.256 0.309,-0.263C0.319,-0.27 0.325,-0.283 0.325,-0.3C0.325,-0.328 0.315,-0.351 0.297,-0.372C0.278,-0.392 0.256,-0.402 0.23,-0.402C0.207,-0.402 0.183,-0.391 0.16,-0.367C0.137,-0.344 0.122,-0.306 0.115,-0.253Z" style="fill-rule:nonzero;"/>
                        </g>
                        <g transform="matrix(254.08,0,0,254.08,555.8,0)">
                            <path d="M0.175,-0.669C0.176,-0.628 0.177,-0.587 0.177,-0.546L0.176,-0.242L0.178,-0.095C0.178,-0.067 0.182,-0.047 0.19,-0.034C0.198,-0.022 0.215,-0.014 0.242,-0.012C0.252,-0.011 0.257,-0.008 0.257,-0.003C0.257,0.003 0.253,0.005 0.245,0.005C0.242,0.005 0.24,0.005 0.236,0.005C0.203,0.002 0.163,-0 0.116,-0C0.088,-0 0.065,0.001 0.048,0.004C0.044,0.005 0.041,0.005 0.038,0.005C0.028,0.005 0.023,0.002 0.023,-0.004C0.023,-0.01 0.028,-0.013 0.037,-0.013C0.066,-0.014 0.086,-0.022 0.095,-0.039C0.104,-0.056 0.109,-0.084 0.109,-0.123L0.107,-0.401C0.107,-0.491 0.106,-0.544 0.104,-0.562C0.102,-0.579 0.095,-0.594 0.083,-0.605C0.072,-0.617 0.056,-0.625 0.036,-0.628C0.023,-0.63 0.017,-0.633 0.017,-0.638C0.017,-0.644 0.022,-0.647 0.032,-0.647C0.092,-0.651 0.137,-0.659 0.167,-0.669L0.175,-0.669Z" style="fill-rule:nonzero;"/>
                        </g>
                        <g transform="matrix(254.08,0,0,254.08,627.26,0)">
                            <path d="M0.117,-0.658C0.129,-0.658 0.14,-0.654 0.15,-0.645C0.16,-0.635 0.165,-0.625 0.165,-0.615C0.165,-0.602 0.161,-0.591 0.153,-0.582C0.145,-0.573 0.134,-0.568 0.12,-0.568C0.107,-0.568 0.096,-0.572 0.086,-0.58C0.077,-0.588 0.072,-0.599 0.072,-0.613C0.072,-0.626 0.076,-0.637 0.084,-0.646C0.093,-0.654 0.103,-0.658 0.117,-0.658ZM0.171,-0.419L0.17,-0.31L0.171,-0.207L0.171,-0.13L0.171,-0.071C0.171,-0.048 0.175,-0.033 0.182,-0.027C0.19,-0.02 0.201,-0.017 0.217,-0.016C0.235,-0.015 0.244,-0.011 0.244,-0.005C0.244,0 0.24,0.003 0.233,0.003C0.231,0.003 0.228,0.003 0.225,0.002C0.194,-0.001 0.166,-0.003 0.14,-0.003C0.098,-0.003 0.07,-0.002 0.054,0C0.05,0.001 0.047,0.001 0.044,0.001C0.036,0.001 0.032,-0.001 0.032,-0.007C0.032,-0.013 0.041,-0.017 0.059,-0.02C0.077,-0.022 0.089,-0.026 0.094,-0.031C0.099,-0.037 0.102,-0.053 0.102,-0.08L0.105,-0.282C0.105,-0.336 0.101,-0.368 0.093,-0.378C0.085,-0.388 0.069,-0.393 0.045,-0.394C0.038,-0.394 0.034,-0.397 0.034,-0.402C0.034,-0.405 0.035,-0.407 0.038,-0.409C0.04,-0.41 0.06,-0.412 0.096,-0.415C0.132,-0.418 0.157,-0.419 0.171,-0.419Z" style="fill-rule:nonzero;"/>
                        </g>
                        <g transform="matrix(254.08,0,0,254.08,693.385,0)">
                            <path d="M0.032,-0.197C0.032,-0.257 0.051,-0.309 0.09,-0.353C0.128,-0.398 0.174,-0.42 0.229,-0.42C0.265,-0.42 0.299,-0.412 0.332,-0.394C0.364,-0.377 0.38,-0.355 0.38,-0.329C0.38,-0.319 0.377,-0.31 0.371,-0.302C0.365,-0.295 0.358,-0.291 0.35,-0.291C0.331,-0.291 0.317,-0.306 0.308,-0.335C0.293,-0.38 0.266,-0.402 0.229,-0.402C0.192,-0.402 0.164,-0.386 0.144,-0.354C0.125,-0.322 0.115,-0.28 0.115,-0.228C0.115,-0.167 0.129,-0.116 0.156,-0.078C0.183,-0.039 0.215,-0.02 0.253,-0.02C0.278,-0.02 0.303,-0.029 0.326,-0.049C0.349,-0.068 0.363,-0.091 0.367,-0.119C0.368,-0.129 0.372,-0.133 0.377,-0.133C0.383,-0.133 0.386,-0.13 0.386,-0.125C0.386,-0.093 0.372,-0.063 0.342,-0.035C0.313,-0.007 0.273,0.007 0.224,0.007C0.17,0.007 0.124,-0.013 0.087,-0.054C0.051,-0.095 0.032,-0.143 0.032,-0.197Z" style="fill-rule:nonzero;"/>
                        </g>
                        <g transform="matrix(254.08,0,0,254.08,799.211,0)">
                            <path d="M0.284,-0.063C0.268,-0.039 0.249,-0.022 0.227,-0.01C0.205,0.001 0.18,0.007 0.152,0.007C0.119,0.007 0.093,-0.002 0.074,-0.02C0.056,-0.037 0.046,-0.06 0.046,-0.089C0.046,-0.11 0.052,-0.13 0.063,-0.149C0.074,-0.168 0.087,-0.181 0.102,-0.189C0.116,-0.197 0.142,-0.207 0.178,-0.22C0.23,-0.237 0.262,-0.251 0.272,-0.263C0.282,-0.274 0.288,-0.289 0.288,-0.307C0.288,-0.336 0.281,-0.359 0.267,-0.375C0.253,-0.391 0.234,-0.399 0.209,-0.399C0.188,-0.399 0.173,-0.395 0.163,-0.386C0.152,-0.376 0.144,-0.358 0.139,-0.33C0.133,-0.3 0.12,-0.285 0.1,-0.285C0.093,-0.285 0.085,-0.289 0.076,-0.296C0.068,-0.303 0.063,-0.314 0.063,-0.328C0.063,-0.352 0.077,-0.373 0.104,-0.391C0.131,-0.409 0.168,-0.418 0.215,-0.418C0.253,-0.418 0.283,-0.413 0.305,-0.403C0.327,-0.392 0.341,-0.38 0.347,-0.366C0.353,-0.352 0.355,-0.326 0.355,-0.287L0.353,-0.158C0.353,-0.108 0.356,-0.073 0.362,-0.052C0.368,-0.031 0.379,-0.02 0.395,-0.02C0.398,-0.02 0.403,-0.021 0.409,-0.021L0.417,-0.022C0.424,-0.022 0.428,-0.02 0.428,-0.014C0.428,-0.002 0.396,0.004 0.332,0.004C0.313,0.004 0.301,0 0.295,-0.009C0.288,-0.017 0.285,-0.035 0.284,-0.063ZM0.284,-0.253C0.274,-0.24 0.252,-0.225 0.218,-0.207C0.184,-0.189 0.159,-0.172 0.144,-0.156C0.129,-0.14 0.122,-0.12 0.122,-0.098C0.122,-0.077 0.128,-0.06 0.14,-0.045C0.152,-0.031 0.167,-0.024 0.186,-0.024C0.204,-0.024 0.222,-0.03 0.239,-0.041C0.255,-0.053 0.268,-0.068 0.276,-0.085C0.284,-0.103 0.288,-0.13 0.288,-0.165C0.288,-0.191 0.286,-0.221 0.284,-0.253Z" style="fill-rule:nonzero;"/>
                        </g>
                        <g transform="matrix(254.08,0,0,254.08,973.891,0)">
                            <path d="M0.473,-0.159C0.502,-0.102 0.525,-0.067 0.541,-0.055C0.557,-0.042 0.573,-0.036 0.589,-0.036C0.61,-0.036 0.631,-0.044 0.651,-0.062C0.653,-0.064 0.655,-0.065 0.657,-0.065C0.663,-0.065 0.667,-0.062 0.667,-0.056C0.667,-0.049 0.652,-0.037 0.622,-0.019C0.592,-0 0.563,0.009 0.534,0.009C0.516,0.009 0.5,0.004 0.485,-0.007C0.469,-0.017 0.448,-0.047 0.419,-0.097C0.347,-0.026 0.277,0.009 0.209,0.009C0.164,0.009 0.125,-0.005 0.093,-0.033C0.062,-0.061 0.046,-0.096 0.046,-0.138C0.046,-0.178 0.059,-0.214 0.084,-0.247C0.11,-0.28 0.154,-0.315 0.215,-0.354C0.156,-0.413 0.126,-0.464 0.126,-0.508C0.126,-0.545 0.14,-0.575 0.166,-0.598C0.192,-0.621 0.223,-0.633 0.257,-0.633C0.287,-0.633 0.314,-0.623 0.338,-0.604C0.362,-0.584 0.374,-0.559 0.374,-0.528C0.374,-0.486 0.345,-0.44 0.287,-0.391C0.363,-0.328 0.421,-0.258 0.461,-0.18C0.503,-0.245 0.524,-0.296 0.524,-0.332C0.524,-0.348 0.519,-0.361 0.509,-0.371C0.499,-0.381 0.485,-0.386 0.466,-0.386C0.45,-0.386 0.442,-0.389 0.442,-0.395C0.442,-0.402 0.446,-0.405 0.453,-0.405L0.539,-0.402L0.654,-0.403C0.663,-0.403 0.667,-0.4 0.667,-0.394C0.667,-0.388 0.662,-0.385 0.65,-0.385C0.626,-0.384 0.606,-0.375 0.59,-0.359C0.573,-0.342 0.554,-0.309 0.531,-0.26C0.509,-0.213 0.49,-0.179 0.473,-0.159ZM0.27,-0.407C0.312,-0.444 0.333,-0.481 0.333,-0.521C0.333,-0.544 0.324,-0.565 0.308,-0.583C0.292,-0.601 0.273,-0.609 0.251,-0.609C0.23,-0.609 0.214,-0.602 0.202,-0.587C0.189,-0.572 0.183,-0.555 0.183,-0.535C0.183,-0.496 0.212,-0.454 0.27,-0.407ZM0.231,-0.338C0.198,-0.317 0.172,-0.293 0.153,-0.269C0.134,-0.245 0.124,-0.215 0.124,-0.18C0.124,-0.139 0.137,-0.105 0.163,-0.078C0.189,-0.05 0.219,-0.037 0.254,-0.037C0.304,-0.037 0.356,-0.063 0.409,-0.117C0.382,-0.165 0.358,-0.202 0.338,-0.228C0.318,-0.254 0.282,-0.291 0.231,-0.338Z" style="fill-rule:nonzero;"/>
                        </g>
                        <g transform="matrix(254.08,0,0,254.08,1212.09,0)">
                            <path d="M0.306,-0.612C0.281,-0.614 0.263,-0.614 0.252,-0.614C0.182,-0.614 0.131,-0.6 0.099,-0.57C0.068,-0.541 0.049,-0.515 0.044,-0.492C0.043,-0.484 0.038,-0.479 0.031,-0.479C0.028,-0.479 0.025,-0.481 0.022,-0.484C0.024,-0.523 0.03,-0.575 0.041,-0.641C0.057,-0.641 0.067,-0.642 0.071,-0.642C0.096,-0.642 0.13,-0.64 0.173,-0.638C0.219,-0.635 0.289,-0.634 0.384,-0.634C0.481,-0.634 0.544,-0.635 0.573,-0.637C0.6,-0.64 0.637,-0.641 0.683,-0.641C0.687,-0.618 0.69,-0.593 0.691,-0.568C0.693,-0.539 0.695,-0.519 0.697,-0.507C0.697,-0.504 0.697,-0.501 0.697,-0.499C0.697,-0.491 0.694,-0.487 0.687,-0.487C0.683,-0.487 0.679,-0.488 0.677,-0.491C0.674,-0.494 0.668,-0.503 0.658,-0.519C0.641,-0.545 0.623,-0.565 0.605,-0.578C0.587,-0.592 0.566,-0.601 0.544,-0.604C0.522,-0.608 0.476,-0.611 0.408,-0.612C0.404,-0.563 0.402,-0.507 0.402,-0.444C0.402,-0.235 0.406,-0.112 0.415,-0.074C0.424,-0.037 0.456,-0.018 0.511,-0.018C0.525,-0.018 0.531,-0.015 0.531,-0.01C0.531,-0.003 0.525,-0 0.512,-0L0.212,-0C0.204,-0 0.2,-0.003 0.2,-0.009C0.2,-0.015 0.208,-0.019 0.223,-0.019C0.249,-0.019 0.27,-0.026 0.285,-0.04C0.301,-0.055 0.31,-0.074 0.313,-0.099C0.315,-0.124 0.316,-0.195 0.316,-0.313C0.316,-0.414 0.313,-0.514 0.306,-0.612Z" style="fill-rule:nonzero;"/>
                        </g>
                        <g transform="matrix(254.08,0,0,254.08,1394.71,0)">
                            <path d="M0.162,-0.346C0.201,-0.395 0.248,-0.419 0.302,-0.419C0.345,-0.419 0.378,-0.407 0.401,-0.383C0.424,-0.358 0.436,-0.315 0.436,-0.252L0.433,-0.123C0.433,-0.082 0.433,-0.057 0.434,-0.048C0.435,-0.039 0.44,-0.031 0.448,-0.025C0.456,-0.018 0.465,-0.015 0.473,-0.015C0.481,-0.015 0.486,-0.013 0.486,-0.009C0.486,-0.003 0.479,-0 0.464,-0L0.32,-0C0.314,-0.001 0.312,-0.004 0.312,-0.008C0.312,-0.013 0.315,-0.016 0.323,-0.017C0.346,-0.02 0.36,-0.029 0.364,-0.044C0.368,-0.059 0.37,-0.107 0.37,-0.188C0.37,-0.275 0.361,-0.331 0.344,-0.357C0.327,-0.382 0.304,-0.395 0.275,-0.395C0.247,-0.395 0.222,-0.384 0.201,-0.363C0.18,-0.341 0.167,-0.31 0.163,-0.269C0.159,-0.227 0.157,-0.177 0.157,-0.117C0.157,-0.077 0.159,-0.05 0.164,-0.038C0.168,-0.026 0.18,-0.018 0.2,-0.014C0.208,-0.012 0.212,-0.009 0.212,-0.005C0.212,0 0.208,0.003 0.2,0.003L0.102,0.001C0.08,0.001 0.062,0.001 0.046,0.002C0.037,0.002 0.032,-0 0.032,-0.005C0.032,-0.01 0.036,-0.013 0.043,-0.014C0.059,-0.016 0.07,-0.02 0.075,-0.027C0.081,-0.034 0.085,-0.06 0.089,-0.106C0.093,-0.151 0.095,-0.21 0.095,-0.281C0.095,-0.408 0.095,-0.492 0.094,-0.531C0.092,-0.571 0.087,-0.599 0.076,-0.617C0.066,-0.635 0.053,-0.645 0.038,-0.648C0.029,-0.65 0.024,-0.653 0.024,-0.658C0.024,-0.66 0.025,-0.662 0.028,-0.662C0.03,-0.663 0.04,-0.663 0.059,-0.663C0.091,-0.663 0.125,-0.664 0.162,-0.667L0.161,-0.424C0.161,-0.393 0.161,-0.367 0.162,-0.346Z" style="fill-rule:nonzero;"/>
                        </g>
                        <g transform="matrix(254.08,0,0,254.08,1527.09,0)">
                            <path d="M0.034,-0.204C0.034,-0.261 0.054,-0.311 0.096,-0.355C0.137,-0.399 0.188,-0.42 0.248,-0.42C0.305,-0.42 0.353,-0.401 0.394,-0.362C0.435,-0.323 0.456,-0.274 0.456,-0.216C0.456,-0.156 0.434,-0.104 0.391,-0.06C0.348,-0.015 0.298,0.007 0.241,0.007C0.184,0.007 0.135,-0.013 0.095,-0.054C0.054,-0.096 0.034,-0.145 0.034,-0.204ZM0.113,-0.207C0.113,-0.151 0.126,-0.104 0.152,-0.067C0.177,-0.03 0.209,-0.012 0.248,-0.012C0.282,-0.012 0.313,-0.029 0.34,-0.064C0.366,-0.099 0.379,-0.145 0.379,-0.202C0.379,-0.254 0.367,-0.3 0.341,-0.34C0.316,-0.38 0.282,-0.4 0.242,-0.4C0.204,-0.4 0.173,-0.382 0.149,-0.345C0.125,-0.308 0.113,-0.262 0.113,-0.207Z" style="fill-rule:nonzero;"/>
                        </g>
                        <g transform="matrix(254.08,0,0,254.08,1651.52,0)">
                            <path d="M0.171,-0.308C0.192,-0.345 0.214,-0.372 0.237,-0.391C0.26,-0.409 0.285,-0.418 0.311,-0.418C0.328,-0.418 0.344,-0.412 0.357,-0.399C0.37,-0.386 0.376,-0.371 0.376,-0.355C0.376,-0.324 0.363,-0.309 0.337,-0.309C0.325,-0.309 0.314,-0.317 0.306,-0.334C0.295,-0.356 0.281,-0.367 0.264,-0.367C0.248,-0.367 0.231,-0.358 0.214,-0.34C0.197,-0.322 0.185,-0.302 0.179,-0.28C0.173,-0.258 0.17,-0.213 0.17,-0.144C0.17,-0.08 0.173,-0.044 0.178,-0.035C0.183,-0.026 0.197,-0.02 0.218,-0.017C0.224,-0.016 0.227,-0.014 0.227,-0.01C0.227,-0.003 0.219,-0 0.204,-0L0.048,-0C0.037,-0 0.032,-0.003 0.032,-0.008C0.032,-0.014 0.039,-0.016 0.054,-0.017C0.074,-0.018 0.087,-0.025 0.092,-0.036C0.097,-0.048 0.099,-0.09 0.099,-0.162C0.099,-0.269 0.097,-0.333 0.093,-0.354C0.088,-0.376 0.072,-0.387 0.043,-0.389C0.032,-0.389 0.026,-0.392 0.026,-0.398C0.026,-0.401 0.027,-0.403 0.03,-0.405C0.032,-0.406 0.047,-0.408 0.074,-0.409L0.164,-0.414C0.166,-0.396 0.169,-0.361 0.171,-0.308Z" style="fill-rule:nonzero;"/>
                        </g>
                    </g>
                    <g transform="matrix(1,0,0,1,1812.49,521)">
                        <g transform="matrix(254.08,0,0,254.08,0,0)">
                            <path d="M0.348,-0.129C0.348,-0.091 0.334,-0.059 0.306,-0.032C0.278,-0.005 0.245,0.009 0.206,0.009C0.184,0.009 0.156,0.001 0.125,-0.013C0.108,-0.021 0.097,-0.025 0.094,-0.025C0.089,-0.025 0.084,-0.021 0.08,-0.015C0.074,-0.006 0.069,-0.001 0.065,-0.001C0.061,-0.001 0.058,-0.006 0.057,-0.015C0.056,-0.024 0.056,-0.045 0.055,-0.078C0.055,-0.106 0.054,-0.125 0.054,-0.133C0.054,-0.145 0.057,-0.151 0.063,-0.151C0.067,-0.151 0.07,-0.148 0.072,-0.142C0.084,-0.104 0.102,-0.073 0.125,-0.047C0.148,-0.021 0.175,-0.008 0.205,-0.008C0.227,-0.008 0.246,-0.015 0.263,-0.029C0.28,-0.042 0.289,-0.06 0.289,-0.083C0.289,-0.119 0.258,-0.151 0.196,-0.179C0.153,-0.198 0.125,-0.212 0.11,-0.22C0.096,-0.229 0.085,-0.241 0.077,-0.256C0.069,-0.271 0.064,-0.287 0.064,-0.305C0.064,-0.339 0.077,-0.367 0.103,-0.389C0.128,-0.412 0.159,-0.423 0.195,-0.423C0.222,-0.423 0.251,-0.415 0.283,-0.398C0.288,-0.396 0.293,-0.395 0.297,-0.395C0.3,-0.395 0.304,-0.397 0.308,-0.403C0.311,-0.408 0.314,-0.41 0.317,-0.41C0.32,-0.41 0.322,-0.409 0.323,-0.406C0.325,-0.404 0.327,-0.39 0.329,-0.363C0.331,-0.337 0.332,-0.315 0.332,-0.298C0.332,-0.288 0.329,-0.283 0.323,-0.283C0.318,-0.283 0.314,-0.287 0.312,-0.297C0.309,-0.306 0.301,-0.322 0.288,-0.347C0.275,-0.372 0.261,-0.387 0.245,-0.394C0.23,-0.401 0.215,-0.404 0.2,-0.404C0.176,-0.404 0.157,-0.399 0.142,-0.387C0.127,-0.376 0.12,-0.361 0.12,-0.343C0.12,-0.332 0.123,-0.321 0.129,-0.312C0.135,-0.303 0.141,-0.296 0.146,-0.292C0.152,-0.287 0.183,-0.272 0.239,-0.247C0.274,-0.231 0.298,-0.218 0.309,-0.21C0.32,-0.201 0.329,-0.19 0.336,-0.175C0.344,-0.16 0.348,-0.145 0.348,-0.129Z" style="fill-rule:nonzero;"/>
                        </g>
                        <g transform="matrix(254.08,0,0,254.08,100.615,0)">
                            <path d="M0.187,-0.375C0.182,-0.302 0.18,-0.232 0.18,-0.162C0.18,-0.109 0.187,-0.074 0.199,-0.058C0.212,-0.041 0.23,-0.033 0.254,-0.033C0.272,-0.033 0.291,-0.04 0.312,-0.052C0.319,-0.057 0.324,-0.059 0.325,-0.059C0.33,-0.059 0.332,-0.057 0.332,-0.052C0.332,-0.044 0.32,-0.032 0.297,-0.015C0.274,0.002 0.245,0.01 0.212,0.01C0.178,0.01 0.153,-0.001 0.137,-0.024C0.12,-0.048 0.112,-0.082 0.112,-0.128C0.112,-0.176 0.115,-0.258 0.121,-0.375C0.118,-0.375 0.103,-0.376 0.074,-0.378L0.045,-0.38C0.038,-0.38 0.034,-0.383 0.034,-0.387C0.034,-0.391 0.038,-0.395 0.046,-0.397C0.06,-0.402 0.082,-0.417 0.113,-0.44C0.145,-0.464 0.163,-0.497 0.168,-0.541C0.17,-0.552 0.173,-0.558 0.179,-0.558C0.185,-0.558 0.188,-0.553 0.188,-0.544C0.188,-0.541 0.188,-0.538 0.188,-0.535C0.187,-0.522 0.187,-0.507 0.187,-0.491L0.187,-0.415L0.294,-0.417C0.312,-0.417 0.322,-0.414 0.322,-0.41C0.322,-0.395 0.319,-0.386 0.315,-0.382C0.298,-0.382 0.255,-0.379 0.187,-0.375Z" style="fill-rule:nonzero;"/>
                        </g>
                        <g transform="matrix(254.08,0,0,254.08,187.955,0)">
                            <path d="M0.115,-0.228C0.113,-0.211 0.113,-0.198 0.113,-0.188C0.113,-0.142 0.126,-0.103 0.154,-0.071C0.181,-0.039 0.215,-0.023 0.255,-0.023C0.294,-0.023 0.33,-0.039 0.364,-0.07C0.374,-0.079 0.38,-0.083 0.382,-0.083C0.388,-0.083 0.39,-0.079 0.391,-0.071C0.378,-0.048 0.357,-0.029 0.327,-0.013C0.297,0.002 0.264,0.01 0.227,0.01C0.173,0.01 0.127,-0.009 0.09,-0.048C0.052,-0.087 0.034,-0.136 0.034,-0.196C0.034,-0.26 0.054,-0.313 0.095,-0.355C0.137,-0.398 0.181,-0.419 0.228,-0.419C0.271,-0.419 0.311,-0.403 0.347,-0.369C0.382,-0.336 0.4,-0.297 0.4,-0.252C0.4,-0.245 0.399,-0.24 0.397,-0.237C0.395,-0.234 0.382,-0.232 0.359,-0.232L0.115,-0.228ZM0.115,-0.253C0.157,-0.251 0.198,-0.25 0.238,-0.25L0.264,-0.252C0.284,-0.253 0.299,-0.256 0.309,-0.263C0.319,-0.27 0.325,-0.283 0.325,-0.3C0.325,-0.328 0.315,-0.351 0.297,-0.372C0.278,-0.392 0.256,-0.402 0.23,-0.402C0.207,-0.402 0.183,-0.391 0.16,-0.367C0.137,-0.344 0.122,-0.306 0.115,-0.253Z" style="fill-rule:nonzero;"/>
                        </g>
                        <g transform="matrix(254.08,0,0,254.08,296.509,0)">
                            <path d="M0.156,-0.418C0.164,-0.399 0.168,-0.366 0.17,-0.321C0.19,-0.353 0.212,-0.377 0.237,-0.393C0.262,-0.409 0.288,-0.417 0.317,-0.417C0.34,-0.417 0.361,-0.412 0.382,-0.404C0.402,-0.396 0.418,-0.381 0.429,-0.361C0.441,-0.341 0.446,-0.306 0.446,-0.258L0.443,-0.093C0.443,-0.063 0.446,-0.044 0.451,-0.036C0.456,-0.029 0.467,-0.023 0.483,-0.018C0.495,-0.015 0.5,-0.011 0.5,-0.007C0.5,-0.002 0.498,-0 0.492,-0C0.49,-0 0.488,-0 0.485,-0C0.47,-0.003 0.448,-0.005 0.419,-0.005C0.393,-0.005 0.364,-0.004 0.334,-0.001C0.322,-0.001 0.316,-0.004 0.316,-0.01C0.316,-0.014 0.319,-0.016 0.326,-0.018C0.344,-0.021 0.355,-0.026 0.361,-0.03C0.366,-0.034 0.37,-0.04 0.373,-0.047C0.375,-0.054 0.377,-0.077 0.378,-0.117C0.38,-0.157 0.38,-0.19 0.38,-0.215C0.38,-0.283 0.372,-0.329 0.354,-0.352C0.337,-0.374 0.316,-0.386 0.29,-0.386C0.252,-0.386 0.22,-0.365 0.195,-0.324C0.17,-0.283 0.157,-0.214 0.157,-0.118C0.157,-0.075 0.16,-0.047 0.166,-0.035C0.171,-0.023 0.186,-0.016 0.208,-0.013C0.216,-0.013 0.219,-0.009 0.219,-0.004C0.219,0.001 0.216,0.003 0.209,0.003L0.183,0.001C0.174,0 0.144,-0 0.093,-0L0.054,0.001C0.04,0.001 0.033,-0.002 0.033,-0.007C0.033,-0.012 0.04,-0.017 0.056,-0.02C0.071,-0.022 0.081,-0.028 0.086,-0.035C0.091,-0.042 0.095,-0.067 0.096,-0.108C0.098,-0.149 0.099,-0.201 0.099,-0.263C0.099,-0.321 0.095,-0.357 0.087,-0.371C0.08,-0.385 0.069,-0.393 0.055,-0.396C0.042,-0.399 0.036,-0.403 0.036,-0.409C0.036,-0.414 0.041,-0.417 0.05,-0.417L0.09,-0.417C0.094,-0.417 0.116,-0.417 0.156,-0.418Z" style="fill-rule:nonzero;"/>
                        </g>
                    </g>
                </g>
            </g>
            <g transform="matrix(1.19354,0,0,1.19354,658.006,635.912)">
                <g transform="matrix(73.99,0,0,73.99,0,0)">
                    <path d="M0.391,-0.001C0.374,0 0.358,0.001 0.343,0.001L0.129,-0.001C0.095,-0.001 0.073,-0.001 0.063,-0C0.052,-0 0.047,-0.003 0.047,-0.009C0.047,-0.012 0.049,-0.016 0.055,-0.02C0.172,-0.106 0.251,-0.178 0.292,-0.238C0.333,-0.297 0.354,-0.351 0.354,-0.401C0.354,-0.429 0.347,-0.453 0.333,-0.474C0.319,-0.495 0.298,-0.505 0.269,-0.505C0.221,-0.505 0.182,-0.485 0.152,-0.443C0.121,-0.402 0.105,-0.359 0.105,-0.315C0.105,-0.295 0.109,-0.28 0.117,-0.27C0.125,-0.26 0.137,-0.255 0.152,-0.255C0.164,-0.255 0.178,-0.26 0.194,-0.27C0.21,-0.28 0.224,-0.3 0.235,-0.331C0.238,-0.339 0.241,-0.343 0.246,-0.343C0.252,-0.343 0.255,-0.34 0.255,-0.333C0.255,-0.328 0.251,-0.316 0.241,-0.297C0.232,-0.279 0.218,-0.263 0.198,-0.249C0.178,-0.235 0.159,-0.228 0.14,-0.228C0.117,-0.228 0.097,-0.237 0.079,-0.255C0.062,-0.273 0.053,-0.294 0.053,-0.318C0.053,-0.363 0.079,-0.41 0.131,-0.458C0.183,-0.506 0.238,-0.53 0.294,-0.53C0.332,-0.53 0.364,-0.519 0.392,-0.497C0.42,-0.475 0.434,-0.442 0.434,-0.4C0.434,-0.359 0.42,-0.321 0.394,-0.285C0.367,-0.248 0.313,-0.199 0.231,-0.137C0.188,-0.103 0.159,-0.08 0.145,-0.067L0.292,-0.067C0.335,-0.067 0.363,-0.069 0.376,-0.075C0.39,-0.08 0.404,-0.094 0.42,-0.116C0.429,-0.127 0.435,-0.133 0.438,-0.133C0.444,-0.133 0.446,-0.131 0.446,-0.125L0.391,-0.001Z" style="fill-rule:nonzero;"/>
                </g>
                <g transform="matrix(73.99,0,0,73.99,36.995,0)">
                    <path d="M0.443,-0.519L0.439,-0.505C0.407,-0.449 0.38,-0.393 0.358,-0.337C0.335,-0.281 0.322,-0.239 0.316,-0.21C0.311,-0.181 0.307,-0.129 0.303,-0.054C0.301,-0.002 0.285,0.024 0.257,0.024C0.245,0.024 0.235,0.019 0.228,0.009C0.221,-0 0.218,-0.012 0.218,-0.026C0.218,-0.061 0.243,-0.133 0.292,-0.242L0.383,-0.438C0.386,-0.443 0.387,-0.447 0.387,-0.449C0.387,-0.453 0.384,-0.456 0.378,-0.456L0.314,-0.456C0.237,-0.456 0.189,-0.456 0.169,-0.455C0.149,-0.455 0.132,-0.448 0.119,-0.436C0.107,-0.424 0.097,-0.412 0.092,-0.401C0.087,-0.391 0.082,-0.387 0.077,-0.387C0.07,-0.387 0.067,-0.39 0.067,-0.397C0.067,-0.403 0.073,-0.428 0.083,-0.471C0.093,-0.514 0.1,-0.538 0.104,-0.545C0.107,-0.551 0.111,-0.555 0.115,-0.555C0.12,-0.555 0.124,-0.551 0.126,-0.544C0.13,-0.536 0.136,-0.53 0.143,-0.526C0.151,-0.522 0.169,-0.521 0.196,-0.521L0.307,-0.522C0.346,-0.522 0.391,-0.521 0.443,-0.519Z" style="fill-rule:nonzero;"/>
                </g>
                <g transform="matrix(73.99,0,0,73.99,73.99,0)">
                    <path d="M0.109,-0.09C0.122,-0.09 0.134,-0.085 0.143,-0.076C0.153,-0.067 0.158,-0.056 0.158,-0.042C0.158,-0.029 0.153,-0.017 0.144,-0.008C0.134,0.002 0.123,0.006 0.109,0.006C0.096,0.006 0.085,0.002 0.076,-0.008C0.066,-0.017 0.062,-0.029 0.062,-0.042C0.062,-0.055 0.066,-0.066 0.076,-0.076C0.085,-0.085 0.096,-0.09 0.109,-0.09Z" style="fill-rule:nonzero;"/>
                </g>
                <g transform="matrix(73.99,0,0,73.99,108.673,0)">
                    <path d="M0.071,-0.282L0.311,-0.282L0.311,-0.523L0.354,-0.523L0.354,-0.282L0.596,-0.282L0.596,-0.239L0.354,-0.239L0.354,-0L0.311,-0L0.311,-0.239L0.071,-0.239L0.071,-0.282Z" style="fill-rule:nonzero;"/>
                </g>
                <g transform="matrix(73.99,0,0,73.99,176.485,0)">
                    <path d="M0.391,-0.001C0.374,0 0.358,0.001 0.343,0.001L0.129,-0.001C0.095,-0.001 0.073,-0.001 0.063,-0C0.052,-0 0.047,-0.003 0.047,-0.009C0.047,-0.012 0.049,-0.016 0.055,-0.02C0.172,-0.106 0.251,-0.178 0.292,-0.238C0.333,-0.297 0.354,-0.351 0.354,-0.401C0.354,-0.429 0.347,-0.453 0.333,-0.474C0.319,-0.495 0.298,-0.505 0.269,-0.505C0.221,-0.505 0.182,-0.485 0.152,-0.443C0.121,-0.402 0.105,-0.359 0.105,-0.315C0.105,-0.295 0.109,-0.28 0.117,-0.27C0.125,-0.26 0.137,-0.255 0.152,-0.255C0.164,-0.255 0.178,-0.26 0.194,-0.27C0.21,-0.28 0.224,-0.3 0.235,-0.331C0.238,-0.339 0.241,-0.343 0.246,-0.343C0.252,-0.343 0.255,-0.34 0.255,-0.333C0.255,-0.328 0.251,-0.316 0.241,-0.297C0.232,-0.279 0.218,-0.263 0.198,-0.249C0.178,-0.235 0.159,-0.228 0.14,-0.228C0.117,-0.228 0.097,-0.237 0.079,-0.255C0.062,-0.273 0.053,-0.294 0.053,-0.318C0.053,-0.363 0.079,-0.41 0.131,-0.458C0.183,-0.506 0.238,-0.53 0.294,-0.53C0.332,-0.53 0.364,-0.519 0.392,-0.497C0.42,-0.475 0.434,-0.442 0.434,-0.4C0.434,-0.359 0.42,-0.321 0.394,-0.285C0.367,-0.248 0.313,-0.199 0.231,-0.137C0.188,-0.103 0.159,-0.08 0.145,-0.067L0.292,-0.067C0.335,-0.067 0.363,-0.069 0.376,-0.075C0.39,-0.08 0.404,-0.094 0.42,-0.116C0.429,-0.127 0.435,-0.133 0.438,-0.133C0.444,-0.133 0.446,-0.131 0.446,-0.125L0.391,-0.001Z" style="fill-rule:nonzero;"/>
                </g>
                <g transform="matrix(73.99,0,0,73.99,213.48,0)">
                    <path d="M0.319,-0.297C0.359,-0.279 0.389,-0.258 0.409,-0.234C0.429,-0.21 0.438,-0.182 0.438,-0.151C0.438,-0.109 0.419,-0.071 0.38,-0.039C0.34,-0.007 0.297,0.009 0.249,0.009C0.202,0.009 0.161,-0.004 0.125,-0.03C0.089,-0.057 0.071,-0.088 0.071,-0.124C0.071,-0.149 0.08,-0.172 0.098,-0.192C0.116,-0.213 0.148,-0.237 0.196,-0.264C0.126,-0.293 0.091,-0.334 0.091,-0.389C0.091,-0.429 0.108,-0.465 0.141,-0.497C0.174,-0.529 0.215,-0.545 0.265,-0.545C0.306,-0.545 0.342,-0.534 0.374,-0.512C0.406,-0.49 0.422,-0.461 0.422,-0.426C0.422,-0.402 0.414,-0.38 0.397,-0.359C0.381,-0.338 0.355,-0.318 0.319,-0.297ZM0.297,-0.306C0.329,-0.322 0.35,-0.34 0.362,-0.358C0.373,-0.376 0.378,-0.397 0.378,-0.421C0.378,-0.454 0.367,-0.48 0.344,-0.499C0.321,-0.518 0.294,-0.527 0.263,-0.527C0.23,-0.527 0.202,-0.518 0.178,-0.499C0.154,-0.481 0.143,-0.456 0.143,-0.426C0.143,-0.398 0.153,-0.376 0.174,-0.36C0.195,-0.344 0.236,-0.326 0.297,-0.306ZM0.218,-0.255C0.152,-0.216 0.12,-0.171 0.12,-0.12C0.12,-0.091 0.131,-0.065 0.154,-0.043C0.177,-0.021 0.208,-0.01 0.249,-0.01C0.288,-0.01 0.32,-0.021 0.343,-0.043C0.366,-0.065 0.377,-0.092 0.377,-0.123C0.377,-0.144 0.371,-0.164 0.359,-0.182C0.347,-0.201 0.326,-0.215 0.298,-0.225C0.269,-0.235 0.243,-0.245 0.218,-0.255Z" style="fill-rule:nonzero;"/>
                </g>
                <g transform="matrix(73.99,0,0,73.99,250.475,0)">
                    <path d="M0.109,-0.09C0.122,-0.09 0.134,-0.085 0.143,-0.076C0.153,-0.067 0.158,-0.056 0.158,-0.042C0.158,-0.029 0.153,-0.017 0.144,-0.008C0.134,0.002 0.123,0.006 0.109,0.006C0.096,0.006 0.085,0.002 0.076,-0.008C0.066,-0.017 0.062,-0.029 0.062,-0.042C0.062,-0.055 0.066,-0.066 0.076,-0.076C0.085,-0.085 0.096,-0.09 0.109,-0.09Z" style="fill-rule:nonzero;"/>
                </g>
                <g transform="matrix(73.99,0,0,73.99,266.66,0)">
                    <path d="M0.253,-0.531C0.312,-0.531 0.363,-0.504 0.407,-0.45C0.45,-0.397 0.472,-0.335 0.472,-0.264C0.472,-0.193 0.45,-0.13 0.406,-0.074C0.363,-0.019 0.309,0.009 0.246,0.009C0.184,0.009 0.133,-0.018 0.091,-0.07C0.049,-0.123 0.028,-0.186 0.028,-0.258C0.028,-0.307 0.038,-0.353 0.059,-0.394C0.08,-0.435 0.107,-0.469 0.14,-0.493C0.173,-0.518 0.211,-0.531 0.253,-0.531ZM0.252,-0.512C0.209,-0.512 0.174,-0.489 0.148,-0.443C0.122,-0.398 0.109,-0.336 0.109,-0.257C0.109,-0.181 0.123,-0.121 0.15,-0.077C0.177,-0.032 0.21,-0.01 0.249,-0.01C0.289,-0.01 0.323,-0.029 0.349,-0.066C0.375,-0.103 0.389,-0.171 0.389,-0.27C0.389,-0.352 0.376,-0.412 0.351,-0.452C0.326,-0.492 0.293,-0.512 0.252,-0.512Z" style="fill-rule:nonzero;"/>
                </g>
                <g transform="matrix(73.99,0,0,73.99,303.655,0)">
                    <path d="M0.375,-0.243C0.35,-0.226 0.325,-0.212 0.301,-0.203C0.277,-0.194 0.253,-0.19 0.23,-0.19C0.184,-0.19 0.143,-0.205 0.108,-0.235C0.074,-0.265 0.056,-0.305 0.056,-0.353C0.056,-0.405 0.077,-0.449 0.119,-0.483C0.16,-0.517 0.205,-0.535 0.252,-0.535C0.308,-0.535 0.355,-0.514 0.394,-0.472C0.434,-0.431 0.453,-0.373 0.453,-0.298C0.453,-0.207 0.427,-0.131 0.376,-0.069C0.324,-0.008 0.259,0.023 0.179,0.023C0.137,0.023 0.104,0.014 0.08,-0.002C0.056,-0.019 0.043,-0.041 0.043,-0.067C0.043,-0.082 0.048,-0.094 0.057,-0.103C0.066,-0.112 0.076,-0.116 0.088,-0.116C0.112,-0.116 0.125,-0.104 0.125,-0.08L0.123,-0.044C0.123,-0.013 0.146,0.002 0.194,0.002C0.241,0.002 0.28,-0.018 0.31,-0.059C0.34,-0.1 0.362,-0.161 0.375,-0.243ZM0.133,-0.366C0.133,-0.32 0.144,-0.283 0.166,-0.255C0.188,-0.227 0.216,-0.213 0.249,-0.213C0.284,-0.213 0.314,-0.226 0.34,-0.25C0.366,-0.274 0.379,-0.31 0.379,-0.358C0.379,-0.406 0.368,-0.444 0.344,-0.473C0.32,-0.501 0.29,-0.516 0.252,-0.516C0.218,-0.516 0.189,-0.501 0.167,-0.471C0.144,-0.441 0.133,-0.406 0.133,-0.366Z" style="fill-rule:nonzero;"/>
                </g>
                <g transform="matrix(73.99,0,0,73.99,340.65,0)">
                    <path d="M0.109,-0.09C0.122,-0.09 0.134,-0.085 0.143,-0.076C0.153,-0.067 0.158,-0.056 0.158,-0.042C0.158,-0.029 0.153,-0.017 0.144,-0.008C0.134,0.002 0.123,0.006 0.109,0.006C0.096,0.006 0.085,0.002 0.076,-0.008C0.066,-0.017 0.062,-0.029 0.062,-0.042C0.062,-0.055 0.066,-0.066 0.076,-0.076C0.085,-0.085 0.096,-0.09 0.109,-0.09Z" style="fill-rule:nonzero;"/>
                </g>
                <g transform="matrix(73.99,0,0,73.99,356.836,0)">
                    <path d="M0.391,-0.001C0.374,0 0.358,0.001 0.343,0.001L0.129,-0.001C0.095,-0.001 0.073,-0.001 0.063,-0C0.052,-0 0.047,-0.003 0.047,-0.009C0.047,-0.012 0.049,-0.016 0.055,-0.02C0.172,-0.106 0.251,-0.178 0.292,-0.238C0.333,-0.297 0.354,-0.351 0.354,-0.401C0.354,-0.429 0.347,-0.453 0.333,-0.474C0.319,-0.495 0.298,-0.505 0.269,-0.505C0.221,-0.505 0.182,-0.485 0.152,-0.443C0.121,-0.402 0.105,-0.359 0.105,-0.315C0.105,-0.295 0.109,-0.28 0.117,-0.27C0.125,-0.26 0.137,-0.255 0.152,-0.255C0.164,-0.255 0.178,-0.26 0.194,-0.27C0.21,-0.28 0.224,-0.3 0.235,-0.331C0.238,-0.339 0.241,-0.343 0.246,-0.343C0.252,-0.343 0.255,-0.34 0.255,-0.333C0.255,-0.328 0.251,-0.316 0.241,-0.297C0.232,-0.279 0.218,-0.263 0.198,-0.249C0.178,-0.235 0.159,-0.228 0.14,-0.228C0.117,-0.228 0.097,-0.237 0.079,-0.255C0.062,-0.273 0.053,-0.294 0.053,-0.318C0.053,-0.363 0.079,-0.41 0.131,-0.458C0.183,-0.506 0.238,-0.53 0.294,-0.53C0.332,-0.53 0.364,-0.519 0.392,-0.497C0.42,-0.475 0.434,-0.442 0.434,-0.4C0.434,-0.359 0.42,-0.321 0.394,-0.285C0.367,-0.248 0.313,-0.199 0.231,-0.137C0.188,-0.103 0.159,-0.08 0.145,-0.067L0.292,-0.067C0.335,-0.067 0.363,-0.069 0.376,-0.075C0.39,-0.08 0.404,-0.094 0.42,-0.116C0.429,-0.127 0.435,-0.133 0.438,-0.133C0.444,-0.133 0.446,-0.131 0.446,-0.125L0.391,-0.001Z" style="fill-rule:nonzero;"/>
                </g>
                <g transform="matrix(73.99,0,0,73.99,393.831,0)">
                    <path d="M0.253,-0.531C0.312,-0.531 0.363,-0.504 0.407,-0.45C0.45,-0.397 0.472,-0.335 0.472,-0.264C0.472,-0.193 0.45,-0.13 0.406,-0.074C0.363,-0.019 0.309,0.009 0.246,0.009C0.184,0.009 0.133,-0.018 0.091,-0.07C0.049,-0.123 0.028,-0.186 0.028,-0.258C0.028,-0.307 0.038,-0.353 0.059,-0.394C0.08,-0.435 0.107,-0.469 0.14,-0.493C0.173,-0.518 0.211,-0.531 0.253,-0.531ZM0.252,-0.512C0.209,-0.512 0.174,-0.489 0.148,-0.443C0.122,-0.398 0.109,-0.336 0.109,-0.257C0.109,-0.181 0.123,-0.121 0.15,-0.077C0.177,-0.032 0.21,-0.01 0.249,-0.01C0.289,-0.01 0.323,-0.029 0.349,-0.066C0.375,-0.103 0.389,-0.171 0.389,-0.27C0.389,-0.352 0.376,-0.412 0.351,-0.452C0.326,-0.492 0.293,-0.512 0.252,-0.512Z" style="fill-rule:nonzero;"/>
                </g>
                <g transform="matrix(73.99,0,0,73.99,430.826,0)">
                    <path d="M0.391,-0.001C0.374,0 0.358,0.001 0.343,0.001L0.129,-0.001C0.095,-0.001 0.073,-0.001 0.063,-0C0.052,-0 0.047,-0.003 0.047,-0.009C0.047,-0.012 0.049,-0.016 0.055,-0.02C0.172,-0.106 0.251,-0.178 0.292,-0.238C0.333,-0.297 0.354,-0.351 0.354,-0.401C0.354,-0.429 0.347,-0.453 0.333,-0.474C0.319,-0.495 0.298,-0.505 0.269,-0.505C0.221,-0.505 0.182,-0.485 0.152,-0.443C0.121,-0.402 0.105,-0.359 0.105,-0.315C0.105,-0.295 0.109,-0.28 0.117,-0.27C0.125,-0.26 0.137,-0.255 0.152,-0.255C0.164,-0.255 0.178,-0.26 0.194,-0.27C0.21,-0.28 0.224,-0.3 0.235,-0.331C0.238,-0.339 0.241,-0.343 0.246,-0.343C0.252,-0.343 0.255,-0.34 0.255,-0.333C0.255,-0.328 0.251,-0.316 0.241,-0.297C0.232,-0.279 0.218,-0.263 0.198,-0.249C0.178,-0.235 0.159,-0.228 0.14,-0.228C0.117,-0.228 0.097,-0.237 0.079,-0.255C0.062,-0.273 0.053,-0.294 0.053,-0.318C0.053,-0.363 0.079,-0.41 0.131,-0.458C0.183,-0.506 0.238,-0.53 0.294,-0.53C0.332,-0.53 0.364,-0.519 0.392,-0.497C0.42,-0.475 0.434,-0.442 0.434,-0.4C0.434,-0.359 0.42,-0.321 0.394,-0.285C0.367,-0.248 0.313,-0.199 0.231,-0.137C0.188,-0.103 0.159,-0.08 0.145,-0.067L0.292,-0.067C0.335,-0.067 0.363,-0.069 0.376,-0.075C0.39,-0.08 0.404,-0.094 0.42,-0.116C0.429,-0.127 0.435,-0.133 0.438,-0.133C0.444,-0.133 0.446,-0.131 0.446,-0.125L0.391,-0.001Z" style="fill-rule:nonzero;"/>
                </g>
                <g transform="matrix(73.99,0,0,73.99,467.821,0)">
                    <path d="M0.267,-0.201C0.192,-0.201 0.112,-0.2 0.026,-0.197C0.026,-0.201 0.026,-0.204 0.026,-0.205C0.026,-0.208 0.026,-0.211 0.026,-0.215C0.116,-0.326 0.211,-0.432 0.31,-0.532C0.317,-0.533 0.322,-0.534 0.325,-0.534C0.33,-0.534 0.333,-0.532 0.335,-0.528C0.336,-0.502 0.336,-0.48 0.336,-0.462L0.334,-0.283C0.334,-0.269 0.334,-0.248 0.335,-0.221C0.382,-0.221 0.414,-0.228 0.428,-0.241C0.443,-0.255 0.451,-0.277 0.452,-0.308C0.452,-0.316 0.455,-0.32 0.461,-0.32C0.467,-0.32 0.47,-0.316 0.47,-0.307C0.47,-0.304 0.47,-0.301 0.469,-0.296C0.468,-0.281 0.467,-0.259 0.467,-0.231L0.469,-0.125C0.469,-0.118 0.466,-0.115 0.459,-0.115C0.455,-0.115 0.452,-0.118 0.451,-0.124C0.444,-0.155 0.436,-0.175 0.426,-0.186C0.416,-0.197 0.397,-0.202 0.37,-0.202C0.365,-0.202 0.354,-0.202 0.335,-0.201C0.335,-0.114 0.336,-0.065 0.337,-0.055C0.338,-0.045 0.343,-0.036 0.352,-0.029C0.36,-0.022 0.376,-0.019 0.398,-0.019C0.409,-0.019 0.414,-0.016 0.414,-0.01C0.414,-0.003 0.405,-0 0.387,-0L0.203,-0C0.184,-0 0.175,-0.003 0.175,-0.01C0.175,-0.016 0.183,-0.019 0.199,-0.019C0.227,-0.02 0.245,-0.027 0.253,-0.041C0.26,-0.055 0.265,-0.108 0.267,-0.201ZM0.267,-0.221C0.271,-0.278 0.272,-0.358 0.271,-0.461C0.225,-0.409 0.188,-0.369 0.159,-0.339C0.13,-0.309 0.097,-0.269 0.06,-0.219C0.112,-0.222 0.168,-0.223 0.229,-0.223C0.234,-0.223 0.247,-0.222 0.267,-0.221Z" style="fill-rule:nonzero;"/>
                </g>
            </g>
            <g transform="matrix(1,0,0,1,923.709,234.544)">
                <g transform="matrix(73.99,0,0,73.99,0,0)">
                    <path d="M0.391,-0.001C0.374,0 0.358,0.001 0.343,0.001L0.129,-0.001C0.095,-0.001 0.073,-0.001 0.063,-0C0.052,-0 0.047,-0.003 0.047,-0.009C0.047,-0.012 0.049,-0.016 0.055,-0.02C0.172,-0.106 0.251,-0.178 0.292,-0.238C0.333,-0.297 0.354,-0.351 0.354,-0.401C0.354,-0.429 0.347,-0.453 0.333,-0.474C0.319,-0.495 0.298,-0.505 0.269,-0.505C0.221,-0.505 0.182,-0.485 0.152,-0.443C0.121,-0.402 0.105,-0.359 0.105,-0.315C0.105,-0.295 0.109,-0.28 0.117,-0.27C0.125,-0.26 0.137,-0.255 0.152,-0.255C0.164,-0.255 0.178,-0.26 0.194,-0.27C0.21,-0.28 0.224,-0.3 0.235,-0.331C0.238,-0.339 0.241,-0.343 0.246,-0.343C0.252,-0.343 0.255,-0.34 0.255,-0.333C0.255,-0.328 0.251,-0.316 0.241,-0.297C0.232,-0.279 0.218,-0.263 0.198,-0.249C0.178,-0.235 0.159,-0.228 0.14,-0.228C0.117,-0.228 0.097,-0.237 0.079,-0.255C0.062,-0.273 0.053,-0.294 0.053,-0.318C0.053,-0.363 0.079,-0.41 0.131,-0.458C0.183,-0.506 0.238,-0.53 0.294,-0.53C0.332,-0.53 0.364,-0.519 0.392,-0.497C0.42,-0.475 0.434,-0.442 0.434,-0.4C0.434,-0.359 0.42,-0.321 0.394,-0.285C0.367,-0.248 0.313,-0.199 0.231,-0.137C0.188,-0.103 0.159,-0.08 0.145,-0.067L0.292,-0.067C0.335,-0.067 0.363,-0.069 0.376,-0.075C0.39,-0.08 0.404,-0.094 0.42,-0.116C0.429,-0.127 0.435,-0.133 0.438,-0.133C0.444,-0.133 0.446,-0.131 0.446,-0.125L0.391,-0.001Z" style="fill-rule:nonzero;"/>
                </g>
                <g transform="matrix(73.99,0,0,73.99,36.995,0)">
                    <path d="M0.195,-0.454C0.18,-0.379 0.171,-0.327 0.168,-0.299C0.187,-0.314 0.205,-0.325 0.224,-0.333C0.243,-0.34 0.262,-0.344 0.282,-0.344C0.322,-0.344 0.357,-0.331 0.388,-0.305C0.419,-0.279 0.434,-0.244 0.434,-0.2C0.434,-0.145 0.41,-0.097 0.362,-0.054C0.314,-0.012 0.261,0.009 0.204,0.009C0.163,0.009 0.128,-0.001 0.099,-0.021C0.07,-0.041 0.056,-0.066 0.056,-0.097C0.056,-0.112 0.061,-0.124 0.07,-0.131C0.079,-0.139 0.089,-0.143 0.1,-0.143C0.109,-0.143 0.118,-0.139 0.125,-0.133C0.133,-0.127 0.137,-0.119 0.137,-0.11C0.137,-0.105 0.136,-0.097 0.133,-0.088C0.13,-0.078 0.129,-0.07 0.129,-0.064C0.129,-0.052 0.135,-0.04 0.146,-0.028C0.158,-0.016 0.177,-0.01 0.203,-0.01C0.251,-0.01 0.288,-0.03 0.315,-0.069C0.343,-0.108 0.356,-0.158 0.356,-0.217C0.356,-0.253 0.35,-0.28 0.336,-0.298C0.323,-0.316 0.302,-0.325 0.275,-0.325C0.243,-0.325 0.216,-0.313 0.192,-0.291C0.169,-0.268 0.155,-0.245 0.153,-0.223C0.151,-0.209 0.147,-0.203 0.142,-0.203C0.136,-0.203 0.133,-0.206 0.133,-0.212C0.133,-0.214 0.141,-0.262 0.156,-0.356L0.172,-0.464C0.177,-0.493 0.181,-0.513 0.184,-0.522C0.242,-0.513 0.277,-0.508 0.289,-0.508C0.333,-0.508 0.37,-0.528 0.399,-0.566C0.405,-0.573 0.41,-0.577 0.414,-0.577C0.419,-0.577 0.421,-0.575 0.421,-0.571C0.421,-0.547 0.405,-0.522 0.373,-0.493C0.34,-0.465 0.298,-0.451 0.246,-0.451C0.234,-0.451 0.217,-0.452 0.195,-0.454Z" style="fill-rule:nonzero;"/>
                </g>
            </g>
            <g transform="matrix(1,0,0,1,287.313,131.498)">
                <g transform="matrix(2.91211,0,0,4.16794,20.0933,-61.3091)">
                    <rect x="81.717" y="33.806" width="113.577" height="1.173" style="fill:rgb(0,2,2);"/>
                </g>
                <g transform="matrix(2.91211,0,0,4.16794,518.595,-61.3091)">
                    <rect x="81.717" y="33.806" width="113.577" height="1.173" style="fill:rgb(0,2,2);"/>
                </g>
                <g transform="matrix(5.40727,0,0,5.40727,-471.678,-101.145)">
                    <path d="M197.635,33.877L211.414,47.656L225.193,33.877L211.414,20.098L197.635,33.877ZM211.414,48.401L196.891,33.877L211.414,19.353L225.938,33.877L211.414,48.401Z" style="fill:rgb(0,2,2);fill-rule:nonzero;"/>
                </g>
                <g transform="matrix(5.40727,0,0,5.40727,-471.678,-101.145)">
                    <path d="M199.869,33.877L211.414,45.422L222.958,33.877L211.414,22.333L199.869,33.877ZM211.414,46.166L199.125,33.877L211.414,21.588L223.703,33.877L211.414,46.166Z" style="fill:rgb(0,2,2);fill-rule:nonzero;"/>
                </g>
                <g transform="matrix(4.46465,0,0,4.46465,-110.591,-70.786)">
                    <path d="M66.929,34.229L73.902,41.202L80.875,34.229L73.902,27.257L66.929,34.229ZM73.902,41.949L66.183,34.229L73.902,26.51L81.621,34.229L73.902,41.949Z" style="fill:rgb(0,2,2);fill-rule:nonzero;"/>
                </g>
                <g transform="matrix(4.16794,0,0,4.16794,-88.6637,-60.6298)">
                    <path d="M68.089,34.229L73.901,40.042L79.714,34.229L73.901,28.416L68.089,34.229ZM73.901,40.789L67.342,34.229L73.901,27.67L80.461,34.229L73.901,40.789Z" style="fill:rgb(0,2,2);fill-rule:nonzero;"/>
                </g>
                <g transform="matrix(4.46465,0,0,4.46465,796.073,-70.786)">
                    <path d="M66.929,34.229L73.902,41.202L80.875,34.229L73.902,27.257L66.929,34.229ZM73.902,41.949L66.183,34.229L73.902,26.51L81.621,34.229L73.902,41.949Z" style="fill:rgb(0,2,2);fill-rule:nonzero;"/>
                </g>
                <g transform="matrix(4.16794,0,0,4.16794,818,-60.6298)">
                    <path d="M68.089,34.229L73.901,40.042L79.714,34.229L73.901,28.416L68.089,34.229ZM73.901,40.789L67.342,34.229L73.901,27.67L80.461,34.229L73.901,40.789Z" style="fill:rgb(0,2,2);fill-rule:nonzero;"/>
                </g>
            </g>
            <g transform="matrix(2.28058,0,0,2.28058,-1149.96,-851.283)">
                <g transform="matrix(1,0,0,1.27496,714.36,142.054)">
                    <rect x="76.823" y="413.787" width="268.001" height="0.667" style="fill:rgb(13,22,22);"/>
                </g>
                <g transform="matrix(1,0,0,1,714.143,255.921)">
                    <path d="M76.315,414.12L71.365,419.07L66.415,414.12L71.365,409.171L76.315,414.12Z" style="fill:rgb(13,22,22);fill-rule:nonzero;"/>
                </g>
                <g transform="matrix(1,0,0,1,714.143,255.921)">
                    <path d="M66.006,414.12L63.323,416.804L60.64,414.12L63.323,411.438L66.006,414.12Z" style="fill:rgb(13,22,22);fill-rule:nonzero;"/>
                </g>
                <g transform="matrix(1,0,0,1,714.701,255.921)">
                    <path d="M345.208,414.12L350.157,419.07L355.107,414.12L350.157,409.171L345.208,414.12Z" style="fill:rgb(13,22,22);fill-rule:nonzero;"/>
                </g>
                <g transform="matrix(1,0,0,1,714.701,255.921)">
                    <path d="M355.516,414.12L358.199,416.804L360.882,414.12L358.199,411.438L355.516,414.12Z" style="fill:rgb(13,22,22);fill-rule:nonzero;"/>
                </g>
            </g>
        </g>
    </g>
</svg>
