<?xml version="1.0" encoding="UTF-8" standalone="no"?>
<!DOCTYPE svg PUBLIC "-//W3C//DTD SVG 1.1//EN" "http://www.w3.org/Graphics/SVG/1.1/DTD/svg11.dtd">
<svg width="100%" height="100%" viewBox="0 0 1269 780" version="1.1" xmlns="http://www.w3.org/2000/svg" xmlns:xlink="http://www.w3.org/1999/xlink" xml:space="preserve" xmlns:serif="http://www.serif.com/" style="fill-rule:evenodd;clip-rule:evenodd;stroke-linejoin:round;stroke-miterlimit:2;">
    <g transform="matrix(1,0,0,1,-325.5,-112)">
        <g id="Palace-Script" serif:id="Palace Script" transform="matrix(1.28348,0,0,1.28348,-242.204,-133.465)">
            <g transform="matrix(16.6961,0,0,16.6961,-2569.91,-5605.58)">
                <text x="189.523px" y="360.827px" style="font-family:'PalaceScriptMT', 'Palace Script MT', cursive;font-style:italic;font-size:12px;">Silberhochzeit</text>
            </g>
            <g transform="matrix(1.22192,0,0,1.22192,19.0262,-227.492)">
                <text x="342px" y="680px" style="font-family:'PalaceScriptMT', 'Palace Script MT', cursive;font-style:italic;font-size:244.308px;">Kecka &amp;Toto</text>
            </g>
            <g transform="matrix(1,0,0,1,233.192,-162.952)">
                <text x="402px" y="889px" style="font-family:'PalaceScriptMT', 'Palace Script MT', cursive;font-style:italic;font-size:141.001px;">27. + 28.09.2024</text>
            </g>
        </g>
        <g transform="matrix(3.00301,0,0,3.00301,288.063,-341.072)">
            <g transform="matrix(1,0,0,1,-6.99298,-1.42109e-14)">
                <rect x="81.717" y="177.854" width="113.577" height="1.174" style="fill-rule:nonzero;"/>
                <path d="M66.929,178.278L73.902,185.25L80.875,178.278L73.902,171.305L66.929,178.278ZM73.902,185.998L66.183,178.278L73.902,170.559L81.621,178.278L73.902,185.998Z" style="fill-rule:nonzero;"/>
                <path d="M68.089,178.278L73.901,184.091L79.714,178.278L73.901,172.465L68.089,178.278ZM73.901,184.837L67.342,178.278L73.901,171.719L80.461,178.278L73.901,184.837Z" style="fill-rule:nonzero;"/>
                <path d="M211.359,183.368C211.033,183.45 210.699,183.511 210.362,183.549C210.025,183.59 209.686,183.602 209.345,183.6C209.005,183.598 208.666,183.57 208.328,183.529C208.158,183.509 207.991,183.479 207.823,183.451C207.656,183.418 207.488,183.386 207.323,183.346C205.997,183.031 204.744,182.455 203.604,181.717C203.32,181.532 203.042,181.336 202.771,181.133C202.5,180.927 202.236,180.713 201.979,180.49L201.788,180.321L201.602,180.148C201.479,180.033 201.353,179.92 201.234,179.8L200.877,179.442C200.76,179.322 200.647,179.198 200.532,179.075C200.416,178.953 200.306,178.827 200.194,178.701C200.083,178.576 199.971,178.45 199.866,178.321L199.544,177.937L199.232,177.546C198.822,177.022 198.429,176.488 198.049,175.951C197.861,175.682 197.672,175.412 197.488,175.142L196.94,174.332L195.865,172.723C195.149,171.659 194.439,170.629 193.652,169.709C193.259,169.251 192.848,168.817 192.408,168.429C192.19,168.231 191.961,168.051 191.729,167.879C191.615,167.788 191.492,167.71 191.372,167.629L191.191,167.507L191.002,167.396C190.877,167.321 190.753,167.243 190.622,167.179L190.427,167.077C190.362,167.042 190.297,167.007 190.229,166.979L189.828,166.796L189.415,166.635C188.859,166.432 188.28,166.283 187.689,166.188C187.394,166.136 187.095,166.111 186.794,166.089L186.342,166.073L185.888,166.085C185.283,166.116 184.677,166.213 184.083,166.372C183.493,166.538 182.912,166.771 182.363,167.075C181.812,167.376 181.29,167.742 180.812,168.163C180.334,168.583 179.898,169.057 179.525,169.578C179.337,169.837 179.165,170.108 179.008,170.387C178.851,170.667 178.714,170.957 178.593,171.252C178.473,171.548 178.371,171.852 178.288,172.16C178.208,172.467 178.147,172.78 178.108,173.096C178.068,173.411 178.049,173.729 178.05,174.045C178.052,174.363 178.075,174.679 178.116,174.992C178.158,175.304 178.217,175.615 178.298,175.918C178.378,176.221 178.479,176.519 178.595,176.808C178.713,177.096 178.846,177.377 179,177.646C179.153,177.915 179.324,178.171 179.51,178.415C179.697,178.657 179.898,178.888 180.116,179.099C180.333,179.311 180.566,179.505 180.81,179.681C180.934,179.771 181.05,179.849 181.177,179.919C181.302,179.991 181.432,180.055 181.563,180.111C181.828,180.225 182.104,180.307 182.377,180.349C182.65,180.392 182.922,180.393 183.165,180.344C183.408,180.295 183.617,180.196 183.782,180.053C183.949,179.909 184.073,179.725 184.163,179.497C184.251,179.268 184.307,179.001 184.334,178.713C184.347,178.569 184.355,178.42 184.359,178.268L184.362,178.152L184.362,178.034C184.362,177.956 184.364,177.877 184.362,177.798C184.36,177.483 184.346,177.17 184.325,176.857C184.312,176.701 184.301,176.544 184.283,176.389C184.269,176.233 184.248,176.078 184.228,175.923C184.184,175.614 184.136,175.305 184.073,175C184.012,174.694 183.943,174.391 183.861,174.091C183.824,173.94 183.777,173.792 183.735,173.643C183.688,173.495 183.645,173.346 183.593,173.2C183.397,172.612 183.161,172.046 182.882,171.511C182.603,170.976 182.273,170.477 181.893,170.031C181.704,169.808 181.496,169.601 181.28,169.411C181.063,169.222 180.833,169.048 180.588,168.896C180.343,168.744 180.085,168.612 179.819,168.503C179.553,168.396 179.278,168.307 178.996,168.253C178.715,168.198 178.429,168.17 178.143,168.172L178.035,168.174C177.999,168.176 177.963,168.175 177.927,168.18L177.713,168.199C177.641,168.21 177.569,168.219 177.498,168.232L177.39,168.254C177.354,168.261 177.318,168.269 177.283,168.278C176.71,168.415 176.146,168.673 175.613,169.009C175.347,169.176 175.087,169.361 174.835,169.56C174.709,169.66 174.587,169.765 174.463,169.869C174.4,169.919 174.342,169.975 174.283,170.03L174.104,170.194C173.634,170.639 173.203,171.129 172.813,171.651C172.424,172.175 172.079,172.734 171.784,173.318C171.191,174.485 170.811,175.763 170.667,177.053C170.64,177.373 170.638,177.693 170.687,177.998C170.71,178.15 170.745,178.298 170.793,178.438C170.842,178.578 170.903,178.709 170.979,178.83C171.015,178.892 171.056,178.943 171.096,178.996L171.163,179.07C171.187,179.094 171.211,179.116 171.235,179.139C171.333,179.228 171.442,179.302 171.556,179.361C171.784,179.477 172.03,179.52 172.228,179.487C172.328,179.469 172.413,179.436 172.493,179.391C172.575,179.344 172.649,179.283 172.722,179.207C172.867,179.054 172.996,178.837 173.1,178.595C173.126,178.534 173.15,178.471 173.173,178.408C173.195,178.344 173.214,178.277 173.236,178.212C173.253,178.146 173.271,178.08 173.286,178.013C173.298,177.945 173.314,177.878 173.324,177.81C173.366,177.537 173.375,177.257 173.352,176.978C173.308,176.418 173.139,175.861 172.865,175.36C172.728,175.109 172.568,174.871 172.382,174.654C172.198,174.437 171.991,174.239 171.763,174.069C171.308,173.728 170.769,173.505 170.193,173.445C169.905,173.415 169.608,173.422 169.312,173.47C169.016,173.516 168.721,173.603 168.437,173.72C167.867,173.957 167.334,174.321 166.901,174.786C166.467,175.248 166.127,175.808 165.944,176.414C165.851,176.716 165.802,177.032 165.793,177.342C165.792,177.418 165.796,177.494 165.807,177.568C165.815,177.642 165.832,177.713 165.853,177.781C165.895,177.917 165.964,178.036 166.051,178.108C166.093,178.146 166.142,178.168 166.189,178.183C166.238,178.2 166.281,178.199 166.328,178.193C166.373,178.186 166.418,178.172 166.461,178.15C166.505,178.127 166.546,178.098 166.583,178.064C166.621,178.032 166.653,177.994 166.679,177.954C166.704,177.916 166.725,177.876 166.734,177.839C166.764,177.754 166.781,177.662 166.783,177.56C166.787,177.459 166.776,177.35 166.756,177.238C166.745,177.183 166.733,177.126 166.715,177.071L166.689,176.987C166.679,176.96 166.667,176.933 166.656,176.905C166.61,176.797 166.556,176.688 166.484,176.589C166.414,176.489 166.336,176.39 166.244,176.304C166.154,176.216 166.055,176.132 165.946,176.064C165.838,175.995 165.722,175.933 165.598,175.89C165.475,175.847 165.346,175.811 165.211,175.802C165.076,175.792 164.935,175.793 164.793,175.819C164.653,175.846 164.509,175.884 164.374,175.948C164.238,176.009 164.105,176.086 163.986,176.182C163.744,176.37 163.545,176.623 163.429,176.909C163.412,176.945 163.399,176.979 163.389,177.015C163.378,177.05 163.369,177.086 163.361,177.122C163.345,177.194 163.338,177.267 163.34,177.337C163.343,177.478 163.389,177.604 163.478,177.67C163.523,177.706 163.571,177.723 163.618,177.721C163.666,177.721 163.718,177.7 163.767,177.665C163.866,177.593 163.946,177.467 163.976,177.341C163.992,177.279 163.994,177.216 163.984,177.161C163.975,177.106 163.951,177.062 163.918,177.023C163.835,176.936 163.729,176.879 163.602,176.865C163.54,176.855 163.474,176.86 163.408,176.866C163.343,176.877 163.276,176.89 163.213,176.916C163.148,176.937 163.087,176.969 163.029,177.002C163.001,177.021 162.971,177.037 162.945,177.059L162.906,177.089C162.894,177.1 162.882,177.111 162.87,177.122C162.846,177.142 162.82,177.169 162.796,177.195C162.772,177.222 162.748,177.249 162.724,177.278C162.676,177.336 162.63,177.398 162.583,177.463C162.488,177.594 162.39,177.736 162.269,177.88C162.145,178.023 162.004,178.156 161.853,178.271C161.699,178.384 161.534,178.48 161.362,178.56C161.19,178.64 161.008,178.696 160.824,178.736C160.732,178.757 160.638,178.769 160.544,178.781L160.403,178.791C160.356,178.793 160.309,178.792 160.262,178.792C160.073,178.789 159.884,178.767 159.7,178.718C159.516,178.669 159.341,178.597 159.178,178.506C159.015,178.415 158.867,178.3 158.734,178.173C158.702,178.14 158.667,178.109 158.637,178.075L158.547,177.971C158.491,177.898 158.437,177.824 158.389,177.746C158.197,177.436 158.083,177.074 158.087,176.713L158.358,176.648C158.427,176.79 158.5,176.921 158.582,177.043C158.663,177.167 158.756,177.278 158.854,177.381C158.951,177.485 159.057,177.579 159.169,177.661C159.282,177.743 159.398,177.816 159.521,177.876C159.644,177.935 159.77,177.982 159.9,178.017L159.998,178.04C160.031,178.046 160.065,178.05 160.098,178.056C160.131,178.063 160.166,178.064 160.2,178.068C160.233,178.071 160.268,178.074 160.302,178.074C160.439,178.08 160.578,178.069 160.716,178.045C160.854,178.021 160.992,177.987 161.124,177.935C161.256,177.884 161.384,177.821 161.505,177.746C161.626,177.669 161.737,177.58 161.842,177.479C161.948,177.377 162.052,177.252 162.168,177.123C162.286,176.994 162.411,176.858 162.572,176.739C162.736,176.618 162.917,176.535 163.106,176.49C163.2,176.465 163.297,176.456 163.394,176.45C163.492,176.45 163.59,176.454 163.687,176.479C163.881,176.52 164.068,176.636 164.19,176.799C164.257,176.888 164.299,176.999 164.309,177.107C164.315,177.162 164.313,177.215 164.307,177.268C164.3,177.319 164.29,177.37 164.274,177.419C164.212,177.612 164.097,177.784 163.922,177.904C163.835,177.962 163.726,178.005 163.61,178.005C163.493,178.006 163.383,177.957 163.304,177.892C163.221,177.826 163.159,177.736 163.122,177.643C163.084,177.548 163.069,177.451 163.065,177.356C163.062,177.261 163.071,177.167 163.088,177.077C163.104,176.986 163.13,176.894 163.164,176.812C163.224,176.642 163.31,176.482 163.406,176.331C163.501,176.177 163.618,176.038 163.742,175.906C163.995,175.645 164.299,175.427 164.647,175.28C164.82,175.204 165.005,175.152 165.197,175.121C165.389,175.087 165.586,175.085 165.78,175.104C165.976,175.122 166.167,175.171 166.351,175.238C166.535,175.304 166.708,175.399 166.871,175.511C167.035,175.622 167.181,175.758 167.313,175.911C167.445,176.063 167.555,176.237 167.644,176.424C167.82,176.798 167.904,177.236 167.807,177.692C167.759,177.919 167.659,178.148 167.506,178.343C167.343,178.549 167.138,178.691 166.916,178.774C166.805,178.816 166.689,178.843 166.572,178.853C166.454,178.862 166.333,178.853 166.218,178.824C166.161,178.81 166.104,178.787 166.051,178.764C166.024,178.751 165.998,178.737 165.972,178.723C165.948,178.708 165.924,178.691 165.901,178.676C165.811,178.608 165.73,178.529 165.671,178.44C165.549,178.264 165.491,178.074 165.457,177.892C165.44,177.8 165.429,177.709 165.423,177.62C165.417,177.529 165.415,177.44 165.416,177.351C165.422,177 165.471,176.653 165.565,176.314C165.752,175.638 166.1,175.009 166.551,174.47C166.776,174.2 167.029,173.953 167.304,173.731C167.579,173.509 167.876,173.314 168.192,173.151C168.507,172.986 168.841,172.857 169.188,172.765C169.536,172.673 169.896,172.627 170.26,172.628C170.623,172.629 170.987,172.682 171.336,172.783C171.685,172.884 172.02,173.032 172.33,173.218C172.639,173.407 172.924,173.632 173.181,173.887C173.436,174.143 173.665,174.426 173.859,174.734C174.25,175.347 174.51,176.057 174.594,176.809C174.678,177.561 174.585,178.356 174.258,179.088C174.175,179.272 174.074,179.453 173.95,179.626C173.826,179.799 173.679,179.967 173.5,180.112C173.323,180.258 173.114,180.38 172.89,180.458C172.663,180.536 172.421,180.57 172.194,180.553C171.966,180.539 171.754,180.478 171.564,180.392C171.374,180.306 171.204,180.195 171.055,180.065C170.907,179.936 170.778,179.789 170.668,179.631C170.642,179.59 170.614,179.551 170.589,179.51L170.519,179.383C170.477,179.297 170.435,179.208 170.405,179.122C170.341,178.947 170.294,178.77 170.263,178.592C170.232,178.414 170.215,178.236 170.208,178.061C170.192,177.708 170.218,177.364 170.253,177.025C170.544,174.33 171.735,171.726 173.605,169.69L173.783,169.501C173.842,169.438 173.901,169.375 173.964,169.316C174.09,169.197 174.212,169.074 174.339,168.956C174.595,168.722 174.863,168.498 175.146,168.288C175.711,167.87 176.344,167.513 177.041,167.288C177.084,167.273 177.128,167.26 177.172,167.248L177.305,167.21C177.394,167.187 177.484,167.168 177.573,167.147L177.846,167.1C177.892,167.091 177.938,167.088 177.983,167.083L178.121,167.068C178.487,167.036 178.855,167.044 179.215,167.09C179.577,167.134 179.93,167.217 180.271,167.331C180.611,167.444 180.94,167.587 181.256,167.756C181.569,167.928 181.868,168.125 182.149,168.347C182.43,168.569 182.69,168.81 182.932,169.069C183.171,169.328 183.394,169.603 183.597,169.888C183.7,170.031 183.795,170.177 183.889,170.325L184.025,170.549C184.069,170.624 184.111,170.7 184.154,170.776C184.49,171.385 184.764,172.023 184.984,172.674C185.042,172.836 185.091,173.001 185.143,173.165C185.167,173.247 185.19,173.33 185.214,173.413C185.238,173.496 185.26,173.579 185.281,173.662C185.37,173.995 185.441,174.333 185.505,174.671L185.55,174.926L185.589,175.182C185.603,175.268 185.613,175.353 185.624,175.439C185.634,175.525 185.646,175.61 185.655,175.696C185.692,176.04 185.716,176.385 185.73,176.731C185.741,177.078 185.742,177.425 185.73,177.771C185.727,177.858 185.721,177.945 185.717,178.031L185.71,178.161L185.702,178.294C185.688,178.472 185.668,178.654 185.64,178.839C185.613,179.024 185.574,179.214 185.522,179.405C185.47,179.597 185.402,179.791 185.313,179.983C185.135,180.367 184.852,180.742 184.491,181.006C184.311,181.14 184.112,181.247 183.91,181.324C183.707,181.401 183.5,181.449 183.296,181.475C182.889,181.524 182.501,181.486 182.138,181.402C181.775,181.317 181.436,181.187 181.117,181.021C180.958,180.939 180.804,180.848 180.655,180.748C180.507,180.649 180.362,180.538 180.233,180.428C179.703,179.987 179.24,179.472 178.859,178.905C178.667,178.623 178.494,178.328 178.339,178.025C178.185,177.721 178.05,177.407 177.934,177.086C177.818,176.766 177.721,176.439 177.641,176.107C177.563,175.774 177.504,175.437 177.465,175.097C177.425,174.757 177.406,174.414 177.404,174.07C177.405,173.726 177.425,173.381 177.466,173.037C177.508,172.694 177.568,172.352 177.653,172.014C177.736,171.677 177.841,171.344 177.964,171.019C178.086,170.692 178.229,170.374 178.388,170.063C178.547,169.753 178.725,169.452 178.916,169.159C179.108,168.868 179.313,168.584 179.535,168.314C179.757,168.044 179.992,167.783 180.24,167.536C180.734,167.039 181.281,166.594 181.868,166.206C182.455,165.817 183.085,165.49 183.746,165.233C183.83,165.203 183.912,165.168 183.996,165.142L184.5,164.978C184.585,164.952 184.671,164.932 184.756,164.909C185.097,164.814 185.444,164.749 185.793,164.69L186.318,164.622L186.846,164.584C187.197,164.572 187.551,164.566 187.902,164.589C188.605,164.626 189.304,164.737 189.986,164.911L190.495,165.058C190.662,165.113 190.828,165.173 190.994,165.232C191.078,165.26 191.159,165.294 191.241,165.329L191.485,165.431C191.649,165.497 191.806,165.578 191.966,165.656L192.204,165.774L192.435,165.905C192.588,165.994 192.745,166.078 192.892,166.179C193.191,166.373 193.483,166.574 193.756,166.796C194.31,167.231 194.81,167.719 195.276,168.226C195.738,168.735 196.164,169.267 196.561,169.809C196.759,170.08 196.952,170.352 197.138,170.626L197.416,171.037L197.687,171.449C198.406,172.547 199.085,173.648 199.777,174.722C200.123,175.258 200.474,175.786 200.833,176.303C201.193,176.821 201.567,177.321 201.953,177.81C202.051,177.93 202.147,178.052 202.246,178.172L202.546,178.526C202.596,178.586 202.648,178.643 202.7,178.7L202.854,178.873L203.01,179.044L203.167,179.211C203.591,179.654 204.041,180.071 204.515,180.461C204.752,180.655 204.996,180.841 205.245,181.021C205.495,181.198 205.75,181.368 206.012,181.529C206.536,181.85 207.083,182.134 207.656,182.368C207.941,182.486 208.232,182.591 208.53,182.681C208.827,182.773 209.129,182.852 209.437,182.912C209.744,182.973 210.056,183.021 210.373,183.05C210.689,183.078 211.009,183.091 211.333,183.09L211.359,183.368Z" style="fill-rule:nonzero;"/>
            </g>
            <g transform="matrix(1,0,0,1,-2.87131,-0.145508)">
                <g transform="matrix(1,0,0,1,33.2999,0)">
                    <rect x="227.912" y="177.854" width="113.576" height="1.174" style="fill-rule:nonzero;"/>
                </g>
                <g transform="matrix(1,0,0,1,33.2999,0)">
                    <path d="M343.198,178.57L350.171,185.542L357.144,178.57L350.171,171.597L343.198,178.57ZM350.171,186.289L342.452,178.57L350.171,170.85L357.89,178.57L350.171,186.289Z" style="fill-rule:nonzero;"/>
                </g>
                <g transform="matrix(1,0,0,1,33.2999,0)">
                    <path d="M344.358,178.57L350.171,184.382L355.984,178.57L350.171,172.757L344.358,178.57ZM350.171,185.129L343.611,178.57L350.171,172.01L356.73,178.57L350.171,185.129Z" style="fill-rule:nonzero;"/>
                </g>
                <g transform="matrix(1,0,0,1,33.2999,0)">
                    <path d="M211.618,183.368C211.945,183.45 212.278,183.511 212.615,183.549C212.952,183.59 213.292,183.602 213.632,183.6C213.972,183.598 214.312,183.57 214.649,183.529C214.819,183.509 214.986,183.479 215.154,183.451C215.321,183.418 215.489,183.386 215.654,183.346C216.98,183.031 218.233,182.455 219.373,181.717C219.657,181.532 219.935,181.336 220.207,181.133C220.478,180.927 220.741,180.713 220.999,180.49L221.19,180.321L221.375,180.148C221.498,180.033 221.625,179.92 221.743,179.8L222.1,179.442C222.217,179.322 222.33,179.198 222.445,179.075C222.562,178.953 222.671,178.827 222.783,178.701C222.894,178.576 223.006,178.45 223.112,178.321L223.433,177.937L223.745,177.546C224.155,177.022 224.548,176.488 224.929,175.951C225.116,175.682 225.306,175.412 225.489,175.142L226.037,174.332L227.112,172.723C227.828,171.659 228.538,170.629 229.325,169.709C229.718,169.251 230.129,168.817 230.569,168.429C230.788,168.231 231.016,168.051 231.249,167.879C231.362,167.788 231.485,167.71 231.605,167.629L231.787,167.507L231.975,167.396C232.101,167.321 232.224,167.243 232.355,167.179L232.55,167.077C232.615,167.042 232.68,167.007 232.748,166.979L233.15,166.796L233.563,166.635C234.118,166.432 234.697,166.283 235.288,166.188C235.583,166.136 235.882,166.111 236.183,166.089L236.635,166.073L237.089,166.085C237.694,166.116 238.3,166.213 238.894,166.372C239.484,166.538 240.065,166.771 240.615,167.075C241.165,167.376 241.688,167.742 242.165,168.163C242.643,168.583 243.079,169.057 243.452,169.578C243.641,169.837 243.813,170.108 243.969,170.387C244.126,170.667 244.263,170.957 244.384,171.252C244.505,171.548 244.606,171.852 244.689,172.16C244.77,172.467 244.83,172.78 244.869,173.096C244.909,173.411 244.928,173.729 244.927,174.045C244.925,174.363 244.902,174.679 244.861,174.992C244.819,175.304 244.76,175.615 244.679,175.918C244.599,176.221 244.499,176.519 244.382,176.808C244.264,177.096 244.131,177.377 243.977,177.646C243.824,177.915 243.653,178.171 243.467,178.415C243.28,178.657 243.079,178.888 242.862,179.099C242.644,179.311 242.412,179.505 242.167,179.681C242.044,179.771 241.927,179.849 241.801,179.919C241.675,179.991 241.546,180.055 241.414,180.111C241.149,180.225 240.873,180.307 240.6,180.349C240.327,180.392 240.055,180.393 239.812,180.344C239.569,180.295 239.36,180.196 239.195,180.053C239.028,179.909 238.904,179.725 238.814,179.497C238.727,179.268 238.67,179.001 238.644,178.713C238.63,178.569 238.622,178.42 238.618,178.268L238.616,178.152L238.615,178.034C238.615,177.956 238.613,177.877 238.615,177.798C238.617,177.483 238.632,177.17 238.652,176.857C238.666,176.701 238.676,176.544 238.694,176.389C238.709,176.233 238.729,176.078 238.749,175.923C238.793,175.614 238.841,175.305 238.904,175C238.965,174.694 239.035,174.391 239.116,174.091C239.153,173.94 239.2,173.792 239.242,173.643C239.289,173.495 239.333,173.346 239.384,173.2C239.58,172.612 239.816,172.046 240.095,171.511C240.375,170.976 240.704,170.477 241.084,170.031C241.273,169.808 241.481,169.601 241.697,169.411C241.914,169.222 242.145,169.048 242.389,168.896C242.634,168.744 242.892,168.612 243.158,168.503C243.425,168.396 243.699,168.307 243.981,168.253C244.262,168.198 244.548,168.17 244.835,168.172L244.942,168.174C244.978,168.176 245.014,168.175 245.05,168.18L245.265,168.199C245.336,168.21 245.408,168.219 245.479,168.232L245.587,168.254C245.623,168.261 245.659,168.269 245.694,168.278C246.267,168.415 246.832,168.673 247.364,169.009C247.63,169.176 247.89,169.361 248.142,169.56C248.268,169.66 248.39,169.765 248.514,169.869C248.577,169.919 248.635,169.975 248.694,170.03L248.873,170.194C249.343,170.639 249.774,171.129 250.165,171.651C250.553,172.175 250.898,172.734 251.193,173.318C251.786,174.485 252.167,175.763 252.31,177.053C252.337,177.373 252.339,177.693 252.291,177.998C252.267,178.15 252.232,178.298 252.185,178.438C252.135,178.578 252.074,178.709 251.999,178.83C251.962,178.892 251.922,178.943 251.881,178.996L251.814,179.07C251.791,179.094 251.766,179.116 251.742,179.139C251.644,179.228 251.535,179.302 251.421,179.361C251.193,179.477 250.947,179.52 250.749,179.487C250.649,179.469 250.564,179.436 250.484,179.391C250.402,179.344 250.328,179.283 250.255,179.207C250.111,179.054 249.981,178.837 249.877,178.595C249.851,178.534 249.827,178.471 249.804,178.408C249.782,178.344 249.763,178.277 249.741,178.212C249.725,178.146 249.707,178.08 249.691,178.013C249.68,177.945 249.663,177.878 249.653,177.81C249.611,177.537 249.603,177.257 249.625,176.978C249.669,176.418 249.838,175.861 250.112,175.36C250.249,175.109 250.409,174.871 250.595,174.654C250.779,174.437 250.986,174.239 251.214,174.069C251.669,173.728 252.208,173.505 252.784,173.445C253.072,173.415 253.369,173.422 253.666,173.47C253.961,173.516 254.256,173.603 254.541,173.72C255.11,173.957 255.643,174.321 256.075,174.786C256.51,175.248 256.85,175.808 257.034,176.414C257.126,176.716 257.176,177.032 257.183,177.342C257.185,177.418 257.181,177.494 257.17,177.568C257.161,177.642 257.146,177.713 257.125,177.781C257.083,177.917 257.013,178.036 256.926,178.108C256.884,178.146 256.834,178.168 256.788,178.183C256.739,178.2 256.696,178.199 256.65,178.193C256.604,178.186 256.56,178.172 256.515,178.15C256.471,178.127 256.431,178.098 256.394,178.064C256.355,178.032 256.324,177.994 256.299,177.954C256.273,177.916 256.252,177.876 256.243,177.839C256.213,177.754 256.196,177.662 256.194,177.56C256.19,177.459 256.2,177.35 256.221,177.238C256.232,177.183 256.245,177.126 256.262,177.071L256.289,176.987C256.298,176.96 256.311,176.933 256.321,176.905C256.368,176.797 256.42,176.688 256.493,176.589C256.562,176.489 256.64,176.39 256.733,176.304C256.824,176.216 256.922,176.132 257.031,176.064C257.139,175.995 257.255,175.933 257.379,175.89C257.502,175.847 257.631,175.811 257.767,175.802C257.901,175.792 258.042,175.793 258.183,175.819C258.324,175.846 258.467,175.884 258.603,175.948C258.739,176.009 258.872,176.086 258.992,176.182C259.233,176.37 259.432,176.623 259.548,176.909C259.565,176.945 259.578,176.979 259.588,177.015C259.6,177.05 259.609,177.086 259.616,177.122C259.631,177.194 259.639,177.267 259.637,177.337C259.634,177.478 259.588,177.604 259.499,177.67C259.454,177.706 259.406,177.723 259.359,177.721C259.312,177.721 259.259,177.7 259.209,177.665C259.111,177.593 259.031,177.467 259.001,177.341C258.984,177.279 258.983,177.216 258.993,177.161C259.002,177.106 259.026,177.062 259.058,177.023C259.142,176.936 259.249,176.879 259.375,176.865C259.437,176.855 259.504,176.86 259.569,176.866C259.635,176.877 259.7,176.89 259.765,176.916C259.829,176.937 259.89,176.969 259.948,177.002C259.976,177.021 260.006,177.037 260.032,177.059L260.071,177.089C260.083,177.1 260.095,177.111 260.107,177.122C260.131,177.142 260.157,177.169 260.181,177.195C260.206,177.222 260.229,177.249 260.252,177.278C260.301,177.336 260.346,177.398 260.394,177.463C260.489,177.594 260.588,177.736 260.708,177.88C260.833,178.023 260.972,178.156 261.125,178.271C261.278,178.384 261.443,178.48 261.614,178.56C261.786,178.64 261.969,178.696 262.153,178.736C262.245,178.757 262.339,178.769 262.433,178.781L262.574,178.791C262.621,178.793 262.668,178.792 262.715,178.792C262.904,178.789 263.094,178.767 263.277,178.718C263.461,178.669 263.636,178.597 263.799,178.506C263.962,178.415 264.11,178.3 264.243,178.173C264.276,178.14 264.31,178.109 264.34,178.075L264.43,177.971C264.486,177.898 264.541,177.824 264.588,177.746C264.78,177.436 264.894,177.074 264.89,176.713L264.619,176.648C264.55,176.79 264.477,176.921 264.395,177.043C264.314,177.167 264.222,177.278 264.124,177.381C264.026,177.485 263.92,177.579 263.808,177.661C263.695,177.743 263.579,177.816 263.456,177.876C263.333,177.935 263.207,177.982 263.077,178.017L262.979,178.04C262.946,178.046 262.912,178.05 262.879,178.056C262.846,178.063 262.812,178.064 262.778,178.068C262.744,178.071 262.71,178.074 262.675,178.074C262.538,178.08 262.399,178.069 262.261,178.045C262.124,178.021 261.986,177.987 261.854,177.935C261.721,177.884 261.592,177.821 261.471,177.746C261.351,177.669 261.239,177.58 261.135,177.479C261.028,177.377 260.924,177.252 260.808,177.123C260.691,176.994 260.566,176.858 260.406,176.739C260.241,176.618 260.06,176.535 259.871,176.49C259.777,176.465 259.68,176.456 259.583,176.45C259.484,176.45 259.387,176.454 259.29,176.479C259.096,176.52 258.909,176.636 258.786,176.799C258.72,176.888 258.678,176.999 258.668,177.107C258.661,177.162 258.665,177.215 258.67,177.268C258.677,177.319 258.687,177.37 258.703,177.419C258.765,177.612 258.88,177.784 259.055,177.904C259.142,177.962 259.251,178.005 259.367,178.005C259.484,178.006 259.594,177.957 259.674,177.892C259.756,177.826 259.818,177.736 259.855,177.643C259.893,177.548 259.907,177.451 259.911,177.356C259.915,177.261 259.906,177.167 259.89,177.077C259.872,176.986 259.846,176.894 259.812,176.812C259.752,176.642 259.667,176.482 259.571,176.331C259.476,176.177 259.359,176.038 259.234,175.906C258.982,175.645 258.678,175.427 258.329,175.28C258.157,175.204 257.971,175.152 257.78,175.121C257.588,175.087 257.39,175.085 257.196,175.104C257.001,175.122 256.811,175.171 256.627,175.238C256.441,175.304 256.269,175.399 256.105,175.511C255.943,175.622 255.796,175.758 255.665,175.911C255.532,176.063 255.422,176.237 255.333,176.424C255.157,176.798 255.073,177.236 255.17,177.692C255.218,177.919 255.318,178.148 255.471,178.343C255.634,178.549 255.839,178.691 256.061,178.774C256.172,178.816 256.288,178.843 256.405,178.853C256.523,178.862 256.644,178.853 256.759,178.824C256.816,178.81 256.872,178.787 256.927,178.764C256.953,178.751 256.979,178.737 257.005,178.723C257.03,178.708 257.053,178.691 257.075,178.676C257.167,178.608 257.247,178.529 257.306,178.44C257.428,178.264 257.486,178.074 257.519,177.892C257.536,177.8 257.548,177.709 257.553,177.62C257.561,177.529 257.562,177.44 257.562,177.351C257.555,177 257.506,176.653 257.411,176.314C257.225,175.638 256.877,175.009 256.426,174.47C256.2,174.2 255.948,173.953 255.673,173.731C255.398,173.509 255.101,173.314 254.786,173.151C254.47,172.986 254.136,172.857 253.789,172.765C253.441,172.673 253.081,172.627 252.718,172.628C252.354,172.629 251.99,172.682 251.641,172.783C251.292,172.884 250.957,173.032 250.647,173.218C250.338,173.407 250.053,173.632 249.796,173.887C249.541,174.143 249.312,174.426 249.118,174.734C248.727,175.347 248.467,176.057 248.383,176.809C248.299,177.561 248.392,178.356 248.719,179.088C248.802,179.272 248.903,179.453 249.027,179.626C249.152,179.799 249.298,179.967 249.477,180.112C249.654,180.258 249.863,180.38 250.088,180.458C250.314,180.536 250.556,180.57 250.783,180.553C251.011,180.539 251.223,180.478 251.413,180.392C251.603,180.306 251.773,180.195 251.922,180.065C252.07,179.936 252.199,179.789 252.309,179.631C252.336,179.59 252.363,179.551 252.388,179.51L252.458,179.383C252.5,179.297 252.542,179.208 252.572,179.122C252.636,178.947 252.683,178.77 252.715,178.592C252.746,178.414 252.762,178.236 252.77,178.061C252.785,177.708 252.759,177.364 252.724,177.025C252.433,174.33 251.242,171.726 249.372,169.69L249.194,169.501C249.135,169.438 249.076,169.375 249.013,169.316C248.888,169.197 248.766,169.074 248.638,168.956C248.382,168.722 248.114,168.498 247.831,168.288C247.266,167.87 246.633,167.513 245.936,167.288C245.893,167.273 245.849,167.26 245.805,167.248L245.672,167.21C245.583,167.187 245.493,167.168 245.404,167.147L245.131,167.1C245.085,167.091 245.04,167.088 244.994,167.083L244.856,167.068C244.49,167.036 244.122,167.044 243.762,167.09C243.4,167.134 243.048,167.217 242.707,167.331C242.366,167.444 242.037,167.587 241.721,167.756C241.408,167.928 241.109,168.125 240.828,168.347C240.547,168.569 240.287,168.81 240.046,169.069C239.806,169.328 239.583,169.603 239.38,169.888C239.278,170.031 239.182,170.177 239.088,170.325L238.952,170.549C238.908,170.624 238.866,170.7 238.823,170.776C238.487,171.385 238.213,172.023 237.993,172.674C237.936,172.836 237.886,173.001 237.834,173.165C237.81,173.247 237.787,173.33 237.763,173.413C237.739,173.496 237.717,173.579 237.696,173.662C237.607,173.995 237.536,174.333 237.472,174.671L237.427,174.926L237.388,175.182C237.375,175.268 237.364,175.353 237.353,175.439C237.343,175.525 237.331,175.61 237.322,175.696C237.285,176.04 237.261,176.385 237.247,176.731C237.236,177.078 237.235,177.425 237.248,177.771C237.25,177.858 237.256,177.945 237.26,178.031L237.267,178.161L237.276,178.294C237.29,178.472 237.309,178.654 237.337,178.839C237.364,179.024 237.403,179.214 237.455,179.405C237.508,179.597 237.575,179.791 237.665,179.983C237.842,180.367 238.125,180.742 238.486,181.006C238.667,181.14 238.865,181.247 239.068,181.324C239.271,181.401 239.478,181.449 239.681,181.475C240.088,181.524 240.477,181.486 240.839,181.402C241.202,181.317 241.542,181.187 241.86,181.021C242.02,180.939 242.173,180.848 242.322,180.748C242.47,180.649 242.615,180.538 242.745,180.428C243.274,179.987 243.737,179.472 244.118,178.905C244.311,178.623 244.483,178.328 244.638,178.025C244.792,177.721 244.927,177.407 245.043,177.086C245.16,176.766 245.256,176.439 245.336,176.107C245.414,175.774 245.473,175.437 245.512,175.097C245.552,174.757 245.571,174.414 245.573,174.07C245.572,173.726 245.552,173.381 245.511,173.037C245.469,172.694 245.409,172.352 245.325,172.014C245.241,171.677 245.136,171.344 245.013,171.019C244.891,170.692 244.748,170.374 244.589,170.063C244.43,169.753 244.252,169.452 244.062,169.159C243.87,168.868 243.664,168.584 243.442,168.314C243.22,168.044 242.986,167.783 242.737,167.536C242.243,167.039 241.696,166.594 241.109,166.206C240.522,165.817 239.892,165.49 239.231,165.233C239.148,165.203 239.065,165.168 238.981,165.142L238.477,164.978C238.392,164.952 238.306,164.932 238.221,164.909C237.88,164.814 237.533,164.749 237.185,164.69L236.659,164.622L236.132,164.584C235.78,164.572 235.427,164.566 235.075,164.589C234.372,164.626 233.674,164.737 232.991,164.911L232.482,165.058C232.315,165.113 232.149,165.173 231.983,165.232C231.899,165.26 231.818,165.294 231.736,165.329L231.492,165.431C231.328,165.497 231.171,165.578 231.012,165.656L230.773,165.774L230.542,165.905C230.389,165.994 230.232,166.078 230.086,166.179C229.786,166.373 229.494,166.574 229.221,166.796C228.667,167.231 228.167,167.719 227.701,168.226C227.239,168.735 226.814,169.267 226.417,169.809C226.218,170.08 226.025,170.352 225.839,170.626L225.561,171.037L225.29,171.449C224.571,172.547 223.892,173.648 223.201,174.722C222.854,175.258 222.503,175.786 222.144,176.303C221.784,176.821 221.411,177.321 221.024,177.81C220.926,177.93 220.83,178.052 220.731,178.172L220.431,178.526C220.381,178.586 220.329,178.643 220.277,178.7L220.123,178.873L219.967,179.044L219.81,179.211C219.387,179.654 218.937,180.071 218.463,180.461C218.225,180.655 217.981,180.841 217.732,181.021C217.482,181.198 217.227,181.368 216.965,181.529C216.441,181.85 215.894,182.134 215.322,182.368C215.036,182.486 214.745,182.591 214.447,182.681C214.151,182.773 213.848,182.852 213.541,182.912C213.233,182.973 212.921,183.021 212.604,183.05C212.288,183.078 211.968,183.091 211.645,183.09L211.618,183.368Z" style="fill-rule:nonzero;"/>
                </g>
            </g>
            <g transform="matrix(1.68089,0,0,1.68089,-132.158,-123.788)">
                <g transform="matrix(0.0152044,0,0,0.0152044,199.411,170.022)">
                    <text x="427px" y="808px" style="font-family:'NuevaStd-Italic', 'Nueva Std', sans-serif;font-style:italic;font-size:997.143px;">2<tspan x="793.949px " y="808px ">5</tspan></text>
                </g>
                <path d="M197.635,177.926L211.414,191.705L225.193,177.926L211.414,164.147L197.635,177.926ZM211.414,192.45L196.891,177.926L211.414,163.402L225.938,177.926L211.414,192.45Z" style="fill-rule:nonzero;"/>
                <path d="M199.869,177.926L211.414,189.471L222.958,177.926L211.414,166.382L199.869,177.926ZM211.414,190.215L199.125,177.926L211.414,165.637L223.703,177.926L211.414,190.215Z" style="fill-rule:nonzero;"/>
            </g>
        </g>
        <g transform="matrix(2.20489,0,0,2.20489,495.296,-32.1763)">
            <rect x="76.823" y="413.787" width="268.001" height="0.667" style="fill:rgb(13,22,22);fill-rule:nonzero;"/>
            <path d="M76.315,414.12L71.365,419.07L66.415,414.12L71.365,409.171L76.315,414.12Z" style="fill:rgb(13,22,22);fill-rule:nonzero;"/>
            <path d="M66.006,414.12L63.323,416.804L60.64,414.12L63.323,411.438L66.006,414.12Z" style="fill:rgb(13,22,22);fill-rule:nonzero;"/>
            <path d="M345.208,414.12L350.157,419.07L355.107,414.12L350.157,409.171L345.208,414.12Z" style="fill:rgb(13,22,22);fill-rule:nonzero;"/>
            <path d="M355.516,414.12L358.199,416.804L360.882,414.12L358.199,411.438L355.516,414.12Z" style="fill:rgb(13,22,22);fill-rule:nonzero;"/>
        </g>
    </g>
</svg>
