<?xml version="1.0" encoding="UTF-8" standalone="no"?>
<!DOCTYPE svg PUBLIC "-//W3C//DTD SVG 1.1//EN" "http://www.w3.org/Graphics/SVG/1.1/DTD/svg11.dtd">
<svg width="100%" height="100%" viewBox="0 0 1374 554" version="1.1" xmlns="http://www.w3.org/2000/svg" xmlns:xlink="http://www.w3.org/1999/xlink" xml:space="preserve" xmlns:serif="http://www.serif.com/" style="fill-rule:evenodd;clip-rule:evenodd;stroke-linejoin:round;stroke-miterlimit:2;">
    <g transform="matrix(1,0,0,1,-273,-135)">
        <g>
            <g transform="matrix(1,0,0,1,418.092,118.26)">
                <text x="122px" y="270px" style="font-family:'BellMT', 'Bell MT', serif;font-size:143.793px;">Silberhochzeit</text>
            </g>
            <g transform="matrix(0.630733,0,0,0.630733,236.579,207.661)">
                <text x="57px" y="521px" style="font-family:'BellMT', 'Bell MT', serif;font-size:254.08px;">Angelica &amp; Thor<tspan x="1812.49px 1913.1px " y="521px 521px ">st</tspan>en</text>
            </g>
            <g transform="matrix(1.19354,0,0,1.19354,425.266,-71.8572)">
                <text x="195px" y="593px" style="font-family:'BellMT', 'Bell MT', serif;font-size:73.99px;">27. + 28.09.2024</text>
            </g>
            <g transform="matrix(1,0,0,1,728.709,-358.456)">
                <text x="195px" y="593px" style="font-family:'BellMT', 'Bell MT', serif;font-size:73.99px;">25</text>
            </g>
            <g transform="matrix(1,0,0,1,287.313,131.498)">
                <g transform="matrix(2.91211,0,0,4.16794,20.0933,-61.3091)">
                    <rect x="81.717" y="33.806" width="113.577" height="1.173" style="fill:rgb(0,2,2);fill-rule:nonzero;"/>
                </g>
                <g transform="matrix(2.91211,0,0,4.16794,518.595,-61.3091)">
                    <rect x="81.717" y="33.806" width="113.577" height="1.173" style="fill:rgb(0,2,2);fill-rule:nonzero;"/>
                </g>
                <g transform="matrix(5.40727,0,0,5.40727,-471.678,-101.145)">
                    <path d="M197.635,33.877L211.414,47.656L225.193,33.877L211.414,20.098L197.635,33.877ZM211.414,48.401L196.891,33.877L211.414,19.353L225.938,33.877L211.414,48.401Z" style="fill:rgb(0,2,2);fill-rule:nonzero;"/>
                </g>
                <g transform="matrix(5.40727,0,0,5.40727,-471.678,-101.145)">
                    <path d="M199.869,33.877L211.414,45.422L222.958,33.877L211.414,22.333L199.869,33.877ZM211.414,46.166L199.125,33.877L211.414,21.588L223.703,33.877L211.414,46.166Z" style="fill:rgb(0,2,2);fill-rule:nonzero;"/>
                </g>
                <g transform="matrix(4.46465,0,0,4.46465,-110.591,-70.786)">
                    <path d="M66.929,34.229L73.902,41.202L80.875,34.229L73.902,27.257L66.929,34.229ZM73.902,41.949L66.183,34.229L73.902,26.51L81.621,34.229L73.902,41.949Z" style="fill:rgb(0,2,2);fill-rule:nonzero;"/>
                </g>
                <g transform="matrix(4.16794,0,0,4.16794,-88.6637,-60.6298)">
                    <path d="M68.089,34.229L73.901,40.042L79.714,34.229L73.901,28.416L68.089,34.229ZM73.901,40.789L67.342,34.229L73.901,27.67L80.461,34.229L73.901,40.789Z" style="fill:rgb(0,2,2);fill-rule:nonzero;"/>
                </g>
                <g transform="matrix(4.46465,0,0,4.46465,796.073,-70.786)">
                    <path d="M66.929,34.229L73.902,41.202L80.875,34.229L73.902,27.257L66.929,34.229ZM73.902,41.949L66.183,34.229L73.902,26.51L81.621,34.229L73.902,41.949Z" style="fill:rgb(0,2,2);fill-rule:nonzero;"/>
                </g>
                <g transform="matrix(4.16794,0,0,4.16794,818,-60.6298)">
                    <path d="M68.089,34.229L73.901,40.042L79.714,34.229L73.901,28.416L68.089,34.229ZM73.901,40.789L67.342,34.229L73.901,27.67L80.461,34.229L73.901,40.789Z" style="fill:rgb(0,2,2);fill-rule:nonzero;"/>
                </g>
            </g>
            <g transform="matrix(2.28058,0,0,2.28058,-1149.96,-851.283)">
                <g transform="matrix(1,0,0,1.27496,714.36,142.054)">
                    <rect x="76.823" y="413.787" width="268.001" height="0.667" style="fill:rgb(13,22,22);fill-rule:nonzero;"/>
                </g>
                <g transform="matrix(1,0,0,1,714.143,255.921)">
                    <path d="M76.315,414.12L71.365,419.07L66.415,414.12L71.365,409.171L76.315,414.12Z" style="fill:rgb(13,22,22);fill-rule:nonzero;"/>
                </g>
                <g transform="matrix(1,0,0,1,714.143,255.921)">
                    <path d="M66.006,414.12L63.323,416.804L60.64,414.12L63.323,411.438L66.006,414.12Z" style="fill:rgb(13,22,22);fill-rule:nonzero;"/>
                </g>
                <g transform="matrix(1,0,0,1,714.701,255.921)">
                    <path d="M345.208,414.12L350.157,419.07L355.107,414.12L350.157,409.171L345.208,414.12Z" style="fill:rgb(13,22,22);fill-rule:nonzero;"/>
                </g>
                <g transform="matrix(1,0,0,1,714.701,255.921)">
                    <path d="M355.516,414.12L358.199,416.804L360.882,414.12L358.199,411.438L355.516,414.12Z" style="fill:rgb(13,22,22);fill-rule:nonzero;"/>
                </g>
            </g>
        </g>
    </g>
</svg>
