<?xml version="1.0" encoding="UTF-8" standalone="no"?>
<!DOCTYPE svg PUBLIC "-//W3C//DTD SVG 1.1//EN" "http://www.w3.org/Graphics/SVG/1.1/DTD/svg11.dtd">
<svg width="100%" height="100%" viewBox="0 0 1269 790" version="1.1" xmlns="http://www.w3.org/2000/svg" xmlns:xlink="http://www.w3.org/1999/xlink" xml:space="preserve" xmlns:serif="http://www.serif.com/" style="fill-rule:evenodd;clip-rule:evenodd;stroke-linejoin:round;stroke-miterlimit:2;">
    <g transform="matrix(1,0,0,1,-325.5,-102)">
        <g>
            <g id="Palace-Script" serif:id="Palace Script" transform="matrix(1.28348,0,0,1.28348,-242.204,-133.465)">
                <g transform="matrix(0.779134,0,0,0.779134,188.709,96.1955)">
                    <path d="M657.147,332.64L654.636,337.537C630.612,383.241 597.632,406.093 555.694,406.093C546.821,406.093 539.832,404.691 534.726,401.887C529.62,399.083 527.066,395.253 527.066,390.398C527.066,388.305 527.59,386.464 528.636,384.873C529.682,383.283 531.294,382.488 533.47,382.488C535.061,382.488 536.316,382.99 537.237,383.995C538.158,384.999 538.618,386.213 538.618,387.636C538.618,388.473 538.22,389.331 537.425,390.21C536.63,391.089 535.688,391.528 534.6,391.528C533.345,391.528 532.445,391.424 531.901,391.214C531.356,391.005 530.708,390.231 529.954,388.891C529.62,389.226 529.452,390.189 529.452,391.779C529.452,393.453 530.185,395.253 531.649,397.178C533.114,399.104 535.981,400.778 540.25,402.201C544.519,403.624 550.253,404.335 557.452,404.335C572.268,404.335 585.536,400.464 597.255,392.721C608.974,384.978 618.412,376.356 625.569,366.855C632.726,357.355 639.15,347.289 644.842,336.658C633.961,339.755 624.627,341.304 616.842,341.304C606.212,341.304 597.422,338.73 590.475,333.582C583.527,328.434 580.053,321.926 580.053,314.057C580.053,305.519 583.862,297.106 591.479,288.819C599.097,280.532 609.665,273.752 623.183,268.479C636.702,263.205 651.455,260.568 667.443,260.568L667.443,262.201C650.702,262.284 635.823,265.047 622.807,270.488C609.79,275.929 599.892,282.583 593.111,290.452C586.331,298.32 582.941,305.854 582.941,313.053C582.941,321.005 586.038,327.45 592.233,332.389C598.427,337.328 606.463,339.797 616.34,339.797C626.05,339.797 636.053,337.997 646.349,334.398C647.27,333.31 648.735,331.175 650.744,327.994C657.775,317.112 664.89,307.465 672.089,299.053C679.288,290.64 686.068,283.755 692.43,278.398C698.792,273.041 704.861,269.002 710.636,266.281C716.412,263.561 721.56,262.201 726.08,262.201C730.768,262.201 733.112,264 733.112,267.6C733.112,273.292 729.282,280.449 721.623,289.071C713.964,297.692 704.275,306.021 692.556,314.057C680.837,322.093 669.034,328.287 657.147,332.64ZM701.722,368.937L734.493,340.55C738.846,336.867 753.16,321.8 777.435,295.349L783.713,288.568L793.381,288.568L714.278,377.089C704.819,387.468 700.089,393.537 700.089,395.295C700.089,396.885 700.926,397.681 702.6,397.681C705.53,397.681 708.878,396.446 712.645,393.977C716.412,391.507 721.497,387.385 727.901,381.609C732.268,377.67 735.846,374.471 738.636,372.012L738.636,371.69L742.654,368.048C750.355,361.352 756.633,355.869 761.488,351.6C766.343,347.331 771.701,342.601 777.56,337.411C783.42,332.222 787.375,328.664 789.426,326.739C791.477,324.814 793.297,323.014 794.888,321.34L824.269,288.568L835.067,288.568L754.08,378.595C748.305,385.041 744.81,389.833 743.596,392.972C742.382,396.111 742.947,397.681 745.291,397.681C751.653,397.681 758.308,395.462 765.255,391.026C772.203,386.589 778.021,381.462 782.708,375.645C787.396,369.827 789.74,365.244 789.74,361.896C789.74,357.292 791.037,354.99 793.632,354.99C794.636,354.99 795.139,355.492 795.139,356.497C795.139,362.021 791.539,368.969 784.34,377.34C788.861,377.507 792.251,377.089 794.511,376.084C796.047,375.402 797.911,374.023 800.105,371.949C800.721,371.197 801.389,370.462 802.107,369.743C807.172,364.679 813.115,360.787 819.937,358.066C826.759,355.346 832.305,353.985 836.574,353.985C839.001,353.985 840.906,354.551 842.287,355.681C843.668,356.811 844.359,358.296 844.359,360.138C844.359,362.984 842.81,365.6 839.713,367.986C836.616,370.371 832.305,372.338 826.78,373.887C821.255,375.435 814.768,376.335 807.318,376.586C800.956,383.785 797.775,389.268 797.775,393.035C797.775,394.374 798.466,395.483 799.847,396.362C801.228,397.241 802.965,397.681 805.058,397.681C818.535,397.681 834.983,387.971 854.403,368.551L854.403,369.266C857.156,367.041 859.898,364.794 862.628,362.524C866.353,359.426 870.057,356.497 873.74,353.734C873.07,351.139 873.405,348.817 874.744,346.766C876.084,344.715 877.716,343.69 879.641,343.69C880.729,343.69 881.692,344.003 882.529,344.631C883.366,345.259 883.785,346.033 883.785,346.954C883.785,348.042 883.429,348.921 882.717,349.591C882.006,350.261 881.148,350.595 880.143,350.595C879.139,350.595 877.758,349.758 876,348.084C875.498,348.754 875.246,349.675 875.246,350.846C875.163,351.851 875.56,352.793 876.439,353.672C877.318,354.551 878.302,354.99 879.39,354.99C880.143,354.99 881.273,354.823 882.78,354.488C884.454,354.153 885.459,353.985 885.794,353.985C886.463,353.985 887.028,354.613 887.489,355.869C887.949,357.125 888.179,358.631 888.179,360.389C888.179,361.896 887.154,363.884 885.103,366.353C883.052,368.823 879.516,372.861 874.493,378.47C869.471,384.078 865.997,388.054 864.072,390.398C862.146,392.742 861.184,394.542 861.184,395.797C861.184,397.053 862.021,397.681 863.695,397.681C866.039,397.681 871.04,394.939 878.699,389.456C886.359,383.974 895.252,377.005 905.381,368.551L905.381,369.034L938.278,340.048C948.407,331.259 956.149,324.437 961.507,319.582C966.864,314.727 971.635,310.123 975.821,305.77C980.006,301.417 985.238,295.683 991.516,288.568L1001.81,288.568L918.314,383.241C926.266,376.545 935.16,369.994 944.995,363.591C954.831,357.187 961.423,353.985 964.771,353.985C968.538,353.985 970.422,356.036 970.422,360.138C970.422,364.909 968.873,369.136 965.776,372.82C962.679,376.503 958.493,380.311 953.22,384.246C946.691,389.017 943.426,392.616 943.426,395.044C943.426,396.802 944.472,397.681 946.565,397.681C950.583,397.681 955.982,395.295 962.762,390.524C969.462,385.809 977.919,378.765 988.133,369.392C992.485,365.29 997.526,361.85 1003.26,359.071C1010.25,355.681 1016.38,353.985 1021.65,353.985C1027.34,353.985 1030.19,356.622 1030.19,361.896C1030.19,366.165 1028.14,371.145 1024.04,376.838C1024.87,377.172 1025.79,377.34 1026.8,377.34C1032.07,377.34 1037.14,374.41 1041.99,368.551L1041.99,368.747C1043.58,367.094 1045.33,365.542 1047.27,364.093C1051.45,360.954 1056.05,358.485 1061.08,356.685C1066.1,354.885 1071,353.985 1075.77,353.985C1077.94,353.985 1079.72,354.53 1081.1,355.618C1082.49,356.706 1083.17,358.213 1083.17,360.138C1083.17,362.314 1082.32,364.261 1080.6,365.977C1078.88,367.693 1076.98,368.551 1074.89,368.551C1072.38,368.551 1071.12,367.462 1071.12,365.286C1071.12,362.021 1072.59,360.389 1075.52,360.389C1077.19,360.389 1078.19,361.142 1078.53,362.649C1078.86,363.151 1079.2,363.403 1079.53,363.403C1079.95,363.403 1080.37,363.068 1080.79,362.398C1081.21,361.728 1081.42,360.975 1081.42,360.138C1081.42,358.799 1080.96,357.731 1080.04,356.936C1079.12,356.141 1077.86,355.743 1076.27,355.743C1071.83,355.743 1066.45,358.129 1060.13,362.9C1053.82,367.672 1048.35,373.113 1043.75,379.223C1039.14,385.334 1036.84,390.105 1036.84,393.537C1036.84,396.299 1038.89,397.681 1043,397.681C1050.61,397.681 1058.02,395.337 1065.22,390.649C1072.42,385.962 1081.67,378.595 1092.97,368.551L1092.97,369.034L1125.87,340.048C1135.99,331.259 1143.74,324.437 1149.1,319.582C1154.45,314.727 1159.22,310.123 1163.41,305.77C1167.59,301.417 1172.83,295.683 1179.1,288.568L1189.4,288.568L1105.9,383.241C1113.85,376.545 1122.75,369.994 1132.58,363.591C1142.42,357.187 1149.01,353.985 1152.36,353.985C1156.13,353.985 1158.01,356.036 1158.01,360.138C1158.01,364.909 1156.46,369.136 1153.36,372.82C1150.27,376.503 1146.08,380.311 1140.81,384.246C1134.28,389.017 1131.01,392.616 1131.01,395.044C1131.01,396.802 1132.06,397.681 1134.15,397.681C1138.17,397.681 1143.57,395.295 1150.35,390.524C1156.46,386.222 1164.04,379.982 1173.08,371.802L1173.08,371.69L1174.46,370.54C1175,370.052 1175.54,369.556 1176.09,369.053L1176.09,369.196L1187.64,359.636C1187.14,357.459 1187.58,355.576 1188.96,353.985C1190.34,352.395 1192.08,351.6 1194.17,351.6C1196.52,351.6 1197.69,352.73 1197.69,354.99C1197.69,356.078 1197.39,356.957 1196.81,357.627C1196.22,358.296 1195.43,358.631 1194.42,358.631C1192.33,358.631 1190.86,358.087 1190.03,356.999C1189.69,358.171 1190.13,359.238 1191.35,360.201C1192.56,361.163 1194.42,361.645 1196.93,361.645C1202.96,361.645 1207.27,360.64 1209.87,358.631L1214.13,354.99C1218.32,351.391 1221.25,349.591 1222.92,349.591C1224.1,349.591 1224.68,350.009 1224.68,350.846C1224.68,354.948 1219.12,358.464 1207.98,361.394L1180.99,384.246C1185.42,382.906 1189.19,382.237 1192.29,382.237C1196.81,382.237 1199.07,384.036 1199.07,387.636C1199.07,389.143 1198.11,390.859 1196.18,392.784C1195.43,393.537 1195.01,394.332 1194.92,395.169C1194.84,396.006 1195.17,396.425 1195.93,396.425C1197.6,396.425 1202.06,393.474 1209.3,387.573C1215.59,382.449 1221.7,376.993 1227.64,371.207C1228.08,370.712 1228.53,370.224 1229.01,369.743C1234.08,364.679 1240.02,360.787 1246.84,358.066C1253.67,355.346 1259.21,353.985 1263.48,353.985C1265.91,353.985 1267.81,354.551 1269.19,355.681C1270.58,356.811 1271.27,358.296 1271.27,360.138C1271.27,362.984 1269.72,365.6 1266.62,367.986C1263.52,370.371 1259.21,372.338 1253.69,373.887C1248.16,375.435 1241.67,376.335 1234.23,376.586C1227.86,383.785 1224.68,389.268 1224.68,393.035C1224.68,394.374 1225.37,395.483 1226.75,396.362C1228.13,397.241 1229.87,397.681 1231.96,397.681C1244.74,397.681 1260.19,388.954 1278.3,371.501L1278.3,371.438C1278.62,371.144 1278.95,370.851 1279.28,370.559C1279.95,369.902 1280.63,369.232 1281.31,368.551L1281.31,368.794C1286.98,363.983 1293.42,359.382 1300.65,354.99L1311.95,354.99L1282.31,388.138C1280.22,390.482 1278.88,392.658 1278.3,394.667C1277.71,396.676 1278.21,397.681 1279.8,397.681C1283.99,397.681 1290.23,394.583 1298.51,388.389C1305.58,383.105 1312.19,377.577 1318.35,371.804L1318.35,371.69C1323.46,366.835 1329.78,361.331 1337.31,355.178C1344.84,349.026 1352.21,343.48 1359.41,338.542L1350.24,338.542L1352,336.407L1361.29,336.407L1382.13,312.802L1392.93,312.802L1372.09,336.407L1388.04,336.407L1386.65,338.542L1370.46,338.542L1339.95,373.196C1336.6,376.879 1332.89,381.316 1328.84,386.506C1324.78,391.696 1322.75,394.542 1322.75,395.044C1322.75,396.802 1323.67,397.681 1325.51,397.681C1332.37,397.681 1347.1,387.971 1369.7,368.551L1369.7,370.685L1363.05,376.586C1345.72,391.821 1333.12,399.438 1325.26,399.438C1323.33,399.438 1321.82,398.894 1320.74,397.806C1319.65,396.718 1319.1,395.462 1319.1,394.039C1319.1,390.691 1321.47,385.125 1326.2,377.34C1330.93,369.555 1340.2,358.757 1354.01,344.945C1346.07,350.24 1335.23,358.905 1321.49,370.935L1321.49,370.936C1313.37,378.721 1305.54,385.418 1298.01,391.026C1290.48,396.634 1284.32,399.438 1279.55,399.438C1276.79,399.438 1275.41,397.974 1275.41,395.044C1275.41,386.338 1282.19,375.205 1295.75,361.645C1296.5,360.891 1297.19,360.159 1297.82,359.447C1298.45,358.736 1299.06,358.087 1299.64,357.501C1292.11,362.021 1285.08,367.337 1278.55,373.447L1278.54,373.409C1270.24,381.454 1262.58,387.682 1255.57,392.093C1247.79,396.99 1239.92,399.438 1231.96,399.438C1224.93,399.438 1221.42,395.421 1221.42,387.385C1221.42,383.679 1222.19,380.223 1223.74,377.017C1207.87,391.964 1197.39,399.438 1192.29,399.438C1191.12,399.438 1190.05,399.041 1189.09,398.246C1188.12,397.45 1187.64,396.299 1187.64,394.793C1187.64,392.784 1189.02,390.566 1191.79,388.138C1193.38,387.217 1194.36,386.296 1194.74,385.376C1195.11,384.455 1193.88,383.995 1191.03,383.995C1186.93,383.995 1181.36,386.129 1174.33,390.398C1173.16,391.654 1171.99,393.014 1170.82,394.479C1169.64,395.944 1168.49,397.137 1167.36,398.057C1166.23,398.978 1165.21,399.438 1164.29,399.438C1162.61,399.438 1161.78,398.853 1161.78,397.681C1161.78,395.337 1166.55,391.57 1176.09,386.38L1204.72,362.398C1200.78,363.068 1197.94,363.403 1196.18,363.403C1192.41,363.403 1189.94,362.398 1188.77,360.389L1176.09,371.143L1176.09,371.187L1172.45,374.452C1164.08,382.153 1156.57,388.243 1149.91,392.721C1143.26,397.199 1138,399.438 1134.15,399.438C1130.39,399.438 1128.5,397.639 1128.5,394.039C1128.5,387.175 1132.19,380.563 1139.55,374.201C1145.16,369.262 1149.01,365.704 1151.1,363.528C1153.2,361.352 1154.24,359.426 1154.24,357.752C1154.24,357.334 1154.01,356.894 1153.55,356.434C1153.09,355.974 1152.53,355.743 1151.86,355.743C1148.59,355.743 1139.43,361.142 1124.36,371.941C1111.97,380.897 1101.17,390.063 1091.96,399.438L1081.17,399.438L1147.84,323.6L1089.95,373.699L1089.95,373.547C1071.45,390.809 1055.92,399.438 1043.37,399.438C1039.86,399.438 1037.3,398.539 1035.71,396.739C1034.12,394.939 1033.33,391.737 1033.33,387.134C1033.33,383.336 1034.47,379.501 1036.75,375.63C1033.49,377.942 1030,379.098 1026.3,379.098C1025.71,379.014 1025.12,378.93 1024.54,378.847C1023.95,378.763 1023.28,378.679 1022.53,378.595C1009.14,392.491 997.543,399.438 987.749,399.438C985.907,399.438 984.212,398.957 982.664,397.995C981.115,397.032 979.943,395.755 979.148,394.165C978.353,392.575 977.955,390.733 977.955,388.64C977.955,384.998 978.997,381.409 981.079,377.874C974.212,383.979 967.959,388.928 962.323,392.721C955.668,397.199 950.416,399.438 946.565,399.438C942.798,399.438 940.915,397.639 940.915,394.039C940.915,387.175 944.598,380.563 951.964,374.201C957.572,369.262 961.423,365.704 963.516,363.528C965.608,361.352 966.655,359.426 966.655,357.752C966.655,357.334 966.425,356.894 965.964,356.434C965.504,355.974 964.939,355.743 964.269,355.743C961.004,355.743 951.839,361.142 936.771,371.941C924.383,380.897 913.584,390.063 904.377,399.438L893.578,399.438L960.251,323.6L902.368,373.699L902.368,373.235C881.589,390.705 868.364,399.438 862.69,399.438C860.43,399.438 859.3,398.057 859.3,395.295C859.3,391.361 860.075,387.636 861.623,384.12C863.172,380.604 865.829,376.712 869.596,372.443L884.287,356.246C882.529,356.915 880.541,357.208 878.323,357.125C876.104,357.041 874.744,356.413 874.242,355.241C863.109,364.449 855.492,370.601 851.39,373.699L851.39,373.648C843.182,381.577 835.607,387.726 828.663,392.093C820.879,396.99 813.01,399.438 805.058,399.438C798.027,399.438 794.511,395.421 794.511,387.385C794.511,383.487 795.369,379.865 797.085,376.521C796.089,377.198 795.148,377.701 794.26,378.03C791.665,378.993 787.856,379.265 782.834,378.847C776.556,385.878 770.047,391.068 763.309,394.416C756.571,397.764 750.481,399.438 745.04,399.438C741.273,399.438 739.39,397.639 739.39,394.039C739.39,390.942 740.164,387.782 741.713,384.56C743.261,381.337 745.919,377.298 749.686,372.443C750.606,371.104 752.155,369.199 754.331,366.73C756.508,364.261 759.459,360.933 763.183,356.748C766.908,352.562 770.34,348.691 773.479,345.133C776.619,341.576 778.272,339.713 778.439,339.546L742.027,370.79L742.027,371.187C730.642,381.651 722.313,388.975 717.04,393.16C711.766,397.346 706.953,399.438 702.6,399.438C701.094,399.438 699.817,398.873 698.771,397.743C697.724,396.613 697.201,395.295 697.201,393.788C697.201,389.519 699.294,384.539 703.479,378.847C707.665,373.154 713.315,366.5 720.43,358.882C720.932,358.213 722.439,356.434 724.95,353.546C727.461,350.658 729.889,347.791 732.233,344.945C726.801,349.039 716.63,357.686 701.722,370.886L701.722,370.936C693.602,378.721 685.775,385.418 678.242,391.026C670.708,396.634 664.556,399.438 659.784,399.438C657.022,399.438 655.641,397.974 655.641,395.044C655.641,386.338 662.421,375.205 675.982,361.645C676.735,360.891 677.425,360.159 678.053,359.447C678.681,358.736 679.288,358.087 679.874,357.501C672.34,362.021 665.309,367.337 658.78,373.447L658.529,371.438C664.89,365.663 672.34,360.18 680.878,354.99L692.179,354.99L662.547,388.138C660.454,390.482 659.115,392.658 658.529,394.667C657.943,396.676 658.445,397.681 660.035,397.681C664.221,397.681 670.457,394.583 678.744,388.389C685.91,383.033 692.606,377.426 698.834,371.569L698.834,371.438L700.39,370.091C700.836,369.662 701.28,369.233 701.722,368.802L701.722,368.937ZM1022.03,355.743C1017.34,355.743 1011.96,358.401 1005.89,363.716C999.824,369.032 994.383,374.87 989.57,381.232C984.756,387.594 982.35,391.528 982.35,393.035C982.35,394.374 982.957,395.483 984.17,396.362C985.384,397.241 986.912,397.681 988.753,397.681C993.19,397.681 998.526,395.483 1004.76,391.089C1011,386.694 1016.5,381.504 1021.27,375.519C1026.05,369.534 1028.43,364.826 1028.43,361.394C1028.43,359.719 1027.82,358.359 1026.61,357.313C1025.4,356.267 1023.87,355.743 1022.03,355.743ZM809.829,374.201C816.777,374.201 822.637,373.322 827.408,371.564C832.179,369.806 835.799,367.713 838.269,365.286C840.738,362.858 841.973,360.891 841.973,359.385C841.973,356.957 840.55,355.743 837.704,355.743C833.937,355.743 829.542,357.397 824.52,360.703C819.498,364.009 814.601,368.509 809.829,374.201ZM1236.74,374.201C1243.68,374.201 1249.54,373.322 1254.31,371.564C1259.09,369.806 1262.71,367.713 1265.17,365.286C1267.64,362.858 1268.88,360.891 1268.88,359.385C1268.88,356.957 1267.46,355.743 1264.61,355.743C1260.84,355.743 1256.45,357.397 1251.43,360.703C1246.4,364.009 1241.51,368.509 1236.74,374.201ZM702.224,328.497C704.065,328.497 704.986,329.627 704.986,331.887C704.986,333.226 704.609,334.314 703.856,335.151C703.103,335.988 702.14,336.407 700.968,336.407C698.708,336.407 697.578,335.402 697.578,333.394C697.578,332.222 698.038,331.113 698.959,330.066C699.88,329.02 700.968,328.497 702.224,328.497ZM1321.99,328.497C1323.83,328.497 1324.75,329.627 1324.75,331.887C1324.75,333.226 1324.38,334.314 1323.62,335.151C1322.87,335.988 1321.91,336.407 1320.74,336.407C1318.48,336.407 1317.35,335.402 1317.35,333.394C1317.35,332.222 1317.81,331.113 1318.73,330.066C1319.65,329.02 1320.74,328.497 1321.99,328.497ZM658.026,330.506C666.983,324.981 675.793,319.017 684.457,312.613C693.121,306.21 701.073,299.869 708.313,293.591C715.554,287.313 721.183,281.914 725.201,277.393C729.219,272.873 731.228,269.692 731.228,267.851C731.228,265.256 729.596,263.958 726.331,263.958C719.467,263.958 711.85,266.804 703.479,272.497C695.109,278.189 687.324,285.471 680.125,294.344C676.275,298.948 672.654,304.054 669.264,309.663C665.874,315.271 662.128,322.219 658.026,330.506Z" style="fill-rule:nonzero;"/>
                </g>
                <g transform="matrix(0.779134,0,0,0.779134,188.709,103.987)">
                    <path d="M1059.25,582.074L1067.67,579.268C1068.42,569.664 1071.82,561.214 1077.86,553.918C1083.91,546.621 1090.62,542.973 1097.98,542.973C1101.22,542.973 1103.93,544.002 1106.11,546.06C1108.3,548.118 1109.39,550.768 1109.39,554.011C1109.39,566.234 1096.35,575.713 1070.29,582.448C1071.04,589.433 1071.57,595.513 1071.88,600.689C1072.19,605.865 1072.53,610.137 1072.91,613.504C1080.39,606.021 1085.63,600.471 1088.62,596.854C1091.74,593.112 1094.8,589.682 1097.79,586.564C1100.78,583.446 1104.18,580.702 1107.99,578.332C1111.79,575.963 1115.56,574.778 1119.3,574.778C1122.55,574.778 1125.16,575.526 1127.16,577.023C1129.16,578.519 1130.15,580.577 1130.15,583.197C1130.15,586.689 1128.47,588.435 1125.1,588.435C1121.24,588.435 1119.3,586.564 1119.3,582.822C1119.3,580.203 1119.55,578.395 1120.05,577.397C1114.56,577.397 1109.58,579.424 1105.09,583.477C1100.6,587.531 1096.29,592.177 1092.18,597.415C1090.18,599.91 1087.53,602.809 1084.22,606.115C1080.92,609.42 1077.33,613.005 1073.47,616.872C1074.09,629.718 1073.34,641.661 1071.22,652.699C1069.1,663.737 1063.05,673.871 1053.08,683.1C1046.96,688.837 1040.01,693.858 1032.21,698.16C1024.42,702.463 1016.44,705.769 1008.27,708.076C1000.1,710.383 992.272,711.537 984.789,711.537C975.809,711.537 968.855,709.604 963.929,705.737C959.002,701.871 956.539,696.633 956.539,690.022C956.539,683.786 958.535,678.298 962.526,673.559C966.517,668.819 972.067,665.358 979.176,663.176C986.285,660.993 994.33,660.525 1003.31,661.772L1002.56,664.392C996.825,663.893 993.582,663.643 992.833,663.643C986.847,663.643 981.234,664.89 975.996,667.385C970.757,669.879 966.642,673.153 963.648,677.207C960.655,681.26 959.158,685.657 959.158,690.396C959.158,696.009 961.808,700.468 967.109,703.773C972.41,707.078 978.615,708.731 985.724,708.731C996.201,708.731 1006.15,706.423 1015.56,701.809C1024.98,697.194 1035.43,689.71 1046.9,679.358C1057.5,669.755 1064.24,659.995 1067.11,650.08C1069.97,640.164 1071.04,630.093 1070.29,619.865C1064.17,624.231 1059.03,627.536 1054.85,629.781C1050.67,632.026 1046.87,633.616 1043.44,634.551C1040.01,635.487 1036.3,635.955 1032.31,635.955C1026.45,635.955 1021.61,634.427 1017.81,631.371C1014,628.315 1012.1,624.355 1012.1,619.491C1012.1,611.758 1015.72,604.898 1022.95,598.912C1030.19,592.925 1042.29,587.312 1059.25,582.074ZM507.16,472.816L509.031,474.313C501.173,483.667 492.723,490.87 483.681,495.921C474.638,500.973 464.816,503.498 454.215,503.498C444.486,503.498 436.691,501.378 430.829,497.137C424.967,492.897 422.036,487.346 422.036,480.487C422.036,471.756 425.092,463.462 431.203,455.604C437.315,447.747 446.139,441.448 457.676,436.709C469.213,431.969 482.34,429.599 497.057,429.599C518.011,429.599 528.488,436.958 528.488,451.676C528.488,452.174 528.238,453.921 527.739,456.914C527.24,459.907 526.991,461.778 526.991,462.526C526.991,466.767 529.797,468.887 535.41,468.887C540.025,468.887 544.733,467.609 549.535,465.052C554.337,462.495 559.232,459.159 564.221,455.043C569.21,450.927 572.141,448.557 573.014,447.934C574.511,446.936 576.756,445.034 579.749,442.228C582.742,439.421 585.58,437.114 588.261,435.306C590.943,433.497 593.282,432.593 595.277,432.593C597.023,432.593 597.054,433.497 595.371,435.306C593.687,437.114 591.972,438.517 590.226,439.515C586.609,442.009 579.312,447.871 568.337,457.101C556.114,468.077 546.042,478.616 538.123,488.718C530.203,498.821 519.882,513.975 507.16,534.18C500.175,545.281 494.313,554.229 489.574,561.027C484.834,567.824 480.126,573.998 475.449,579.548C470.772,585.099 465.752,590.742 460.389,596.48C450.66,606.582 440.932,615.126 431.203,622.11C421.475,629.095 410.904,634.489 399.492,638.293C388.08,642.097 375.14,643.999 360.672,643.999C348.823,643.999 339.999,641.785 334.199,637.358C328.4,632.93 325.5,627.224 325.5,620.239C325.5,616.124 326.56,612.818 328.68,610.324C330.801,607.829 333.919,606.582 338.035,606.582C342.899,606.582 345.331,608.703 345.331,612.943C345.331,617.059 342.899,619.117 338.035,619.117C333.794,619.117 331.674,616.685 331.674,611.821C329.304,613.193 328.119,616.124 328.119,620.614C328.119,626.351 330.863,631.246 336.351,635.3C341.839,639.353 350.32,641.38 361.795,641.38C374.142,641.38 385.461,639.322 395.751,635.206C406.04,631.09 415.301,625.603 423.533,618.743C431.764,611.883 438.811,604.93 444.673,597.883C450.535,590.836 458.206,580.952 467.685,568.23C478.411,553.512 486.456,542.724 491.819,535.864C497.182,529.004 504.291,520.273 513.147,509.672L517.45,504.621C523.436,497.636 533.414,487.035 547.383,472.816L553.37,466.268C552.247,466.892 550.595,467.703 548.412,468.7C546.23,469.698 543.953,470.478 541.584,471.039C539.214,471.6 536.532,471.818 533.539,471.694C529.049,471.569 525.432,470.228 522.688,467.671C519.944,465.115 518.572,461.716 518.572,457.475C518.572,457.725 518.884,456.041 519.508,452.424C520.131,448.807 520.443,446.25 520.443,444.753C520.443,436.397 512.648,432.219 497.057,432.219C481.966,432.219 469.026,434.651 458.237,439.515C447.448,444.379 439.217,450.522 433.542,457.943C427.867,465.364 425.029,472.754 425.029,480.113C425.029,486.099 427.773,491.026 433.261,494.892C438.749,498.759 445.858,500.692 454.589,500.692C473.672,500.692 491.195,491.4 507.16,472.816ZM1339.69,543.347L1344.74,536.425C1375.55,493.396 1407.1,464.023 1439.41,448.308L1441.28,449.805C1430.05,455.667 1420.04,461.934 1411.25,468.607C1402.46,475.279 1394.54,482.888 1387.49,491.431C1380.44,499.975 1373.99,509.485 1368.13,519.962C1357.4,539.169 1349.17,553.232 1343.43,562.149C1337.69,571.067 1331.77,578.956 1325.66,585.816C1317.18,595.17 1307.79,603.589 1297.5,611.072C1287.21,618.556 1276.83,624.667 1266.35,629.407C1255.88,634.146 1244.87,637.763 1233.33,640.258C1221.8,642.752 1210.41,643.999 1199.19,643.999C1184.35,643.999 1173.53,641.785 1166.73,637.358C1159.93,632.93 1156.53,627.349 1156.53,620.614C1156.53,616.373 1157.72,612.912 1160.09,610.23C1162.46,607.549 1165.26,606.208 1168.51,606.208C1174.12,606.208 1176.92,608.64 1176.92,613.504C1176.92,615.126 1176.33,616.591 1175.15,617.901C1173.96,619.21 1172.5,619.865 1170.75,619.865C1164.89,619.865 1162.96,616.435 1164.95,609.576C1162.83,610.823 1161.37,612.257 1160.56,613.879C1159.75,615.5 1159.34,617.62 1159.34,620.239C1159.34,626.226 1162.68,631.246 1169.35,635.3C1176.02,639.353 1185.34,641.38 1197.32,641.38C1215.4,641.38 1232.43,638.324 1248.39,632.213C1264.36,626.101 1276.39,619.055 1284.5,611.072C1289.36,606.457 1293.85,601.874 1297.97,597.321C1302.09,592.769 1307.57,586.128 1314.43,577.397C1321.29,568.666 1329.71,557.316 1339.69,543.347ZM578.542,600.669C568.064,609.982 559.767,617.223 553.651,622.391C545.606,629.188 538.06,634.489 531.013,638.293C523.966,642.097 517.262,643.999 510.902,643.999C503.044,643.999 499.115,639.322 499.115,629.968C499.115,623.607 499.77,618.182 501.08,613.691C502.389,609.201 504.229,604.93 506.599,600.876C508.968,596.823 511.463,593.33 514.082,590.399C516.701,587.468 520.006,583.883 523.998,579.642C538.84,563.927 546.261,552.327 546.261,544.844C546.261,541.227 545.949,538.795 545.325,537.548C540.461,539.543 535.659,540.541 530.92,540.541C526.554,540.541 522.906,539.543 519.975,537.548C517.044,535.552 515.579,532.995 515.579,529.877C515.579,527.009 516.764,524.701 519.133,522.955C521.503,521.209 524.496,520.336 528.113,520.336C536.22,520.336 542.768,524.826 547.757,533.806C555.366,530.189 562.194,526.136 568.243,521.645C574.292,517.155 582.618,508.924 593.219,496.95C612.052,475.872 629.233,459.377 644.761,447.466C660.289,435.555 675.973,429.599 691.813,429.599C702.539,429.599 707.902,432.905 707.902,439.515C707.902,443.007 706.343,444.753 703.225,444.753C700.481,444.753 699.109,443.257 699.109,440.263C699.109,440.014 699.234,439.141 699.484,437.644C699.733,436.147 699.858,435.212 699.858,434.838C699.858,433.715 699.078,432.873 697.519,432.312C695.96,431.751 693.933,431.47 691.439,431.47C671.982,431.47 653.461,441.822 635.875,462.526C624.525,475.747 614.796,486.567 606.689,494.986C598.582,503.405 589.446,511.512 579.281,519.307C569.116,527.102 558.858,532.933 548.506,536.799C549.254,540.915 549.628,543.971 549.628,545.967C549.628,553.699 547.04,562.835 541.864,573.375C536.688,583.914 529.298,594.858 519.695,606.208C508.469,619.553 502.857,628.471 502.857,632.961C502.857,638.574 506.037,641.38 512.398,641.38C516.639,641.38 521.565,639.915 527.178,636.984C532.791,634.053 538.31,630.529 543.735,626.413C549.161,622.297 555.303,617.246 562.163,611.259C569.023,605.273 574.573,600.471 578.814,596.854L583.982,592.437C584.736,591.556 585.539,590.689 586.391,589.838C593.936,582.292 602.792,576.493 612.957,572.439C623.122,568.386 631.385,566.359 637.745,566.359C641.362,566.359 644.2,567.201 646.258,568.885C648.316,570.568 649.345,572.782 649.345,575.526C649.345,579.767 647.037,583.664 642.423,587.219C637.808,590.774 631.385,593.705 623.153,596.012C614.921,598.319 605.255,599.66 594.155,600.034C584.676,610.76 579.936,618.93 579.936,624.542C579.936,626.538 580.965,628.191 583.023,629.5C585.081,630.81 587.669,631.465 590.787,631.465C610.868,631.465 635.376,616.997 664.312,588.061L664.312,588.354C666.671,585.89 669.291,583.578 672.169,581.419C678.405,576.742 685.265,573.063 692.749,570.381C700.232,567.7 707.528,566.359 714.638,566.359C717.88,566.359 720.531,567.17 722.589,568.791C724.647,570.412 725.676,572.657 725.676,575.526C725.676,578.769 724.397,581.669 721.84,584.226C719.284,586.782 716.446,588.061 713.328,588.061C709.586,588.061 707.715,586.439 707.715,583.197C707.715,578.332 709.898,575.9 714.263,575.9C716.758,575.9 718.255,577.023 718.753,579.268C719.252,580.016 719.751,580.39 720.25,580.39C720.874,580.39 721.497,579.891 722.121,578.894C722.745,577.896 723.056,576.773 723.056,575.526C723.056,573.53 722.37,571.94 720.998,570.755C719.626,569.57 717.756,568.978 715.386,568.978C708.776,568.978 700.762,572.533 691.345,579.642C681.929,586.751 673.791,594.858 666.931,603.963C660.071,613.068 656.641,620.177 656.641,625.291C656.641,629.407 659.697,631.465 665.808,631.465C677.158,631.465 688.196,627.972 698.922,620.988C709.649,614.003 723.431,603.028 740.268,588.061L740.268,588.841L755.609,575.526C755.485,575.526 766.211,566.296 787.788,547.837L820.341,519.962C828.448,513.102 836.96,504.87 845.878,495.266C854.796,485.663 862.497,476.87 868.983,468.887L884.698,468.887L738.772,632.213L723.056,632.213L819.592,524.078C815.601,527.695 811.423,531.374 807.058,535.116C802.692,538.857 798.888,542.131 795.646,544.938C792.403,547.744 788.162,551.392 782.924,555.882C770.701,566.359 763.217,572.782 760.473,575.152C757.73,577.522 751.493,582.76 741.765,590.867L735.778,595.731L735.778,595.505C708.204,621.225 685.069,634.084 666.37,634.084C661.131,634.084 657.327,632.743 654.957,630.061C652.588,627.38 651.403,622.609 651.403,615.749C651.403,610.245 653.011,604.687 656.227,599.077C645.372,609.254 635.283,617.274 625.959,623.139C614.36,630.436 602.636,634.084 590.787,634.084C580.31,634.084 575.072,628.097 575.072,616.124C575.072,610.599 576.229,605.447 578.542,600.669ZM859.981,591.315C862.898,587.836 866.304,584.631 870.199,581.7C876.498,576.96 883.544,573.219 891.34,570.475C899.135,567.731 906.712,566.359 914.071,566.359C917.688,566.359 920.338,567.014 922.022,568.323C923.705,569.633 924.61,571.784 924.734,574.778C924.61,575.401 924.516,575.994 924.454,576.555C924.391,577.116 924.267,577.896 924.08,578.894C923.893,579.891 923.737,580.702 923.612,581.326L935.398,567.481L951.113,566.359L946.249,572.346C942.258,577.085 939.015,580.983 936.521,584.038C934.026,587.094 931.906,589.62 930.16,591.615C910.703,612.694 900.975,625.041 900.975,628.658C900.975,630.529 901.848,631.465 903.594,631.465C905.964,631.465 909.518,630.061 914.258,627.255C918.997,624.449 924.329,620.738 930.253,616.124C936.178,611.509 942.944,606.052 950.552,599.754C958.16,593.455 962.588,589.807 963.835,588.809L963.835,591.99L954.294,600.034C939.327,612.507 928.258,621.3 921.086,626.413C913.915,631.527 907.585,634.084 902.097,634.084C898.48,634.084 896.672,632.026 896.672,627.91C896.672,623.545 898.355,617.433 901.723,609.576C883.887,625.914 870.729,634.084 862.248,634.084C858.506,634.084 855.45,632.618 853.081,629.687C850.711,626.756 849.526,622.484 849.526,616.872C849.526,611.015 851.112,605.238 854.284,599.54C839.46,612.375 827.926,621.333 819.686,626.413C811.392,631.527 803.69,634.084 796.581,634.084C790.719,634.084 787.788,630.779 787.788,624.168C787.788,617.807 790.719,611.01 796.581,603.776C799.2,600.658 800.51,597.976 800.51,595.731C800.51,594.235 799.761,593.486 798.265,593.486C797.891,593.486 796.83,593.611 795.084,593.86C793.338,594.11 792.216,594.235 791.717,594.235C786.354,594.235 783.672,593.237 783.672,591.241C783.672,589.62 785.293,588.809 788.536,588.809C790.657,588.809 794.274,589.62 799.387,591.241C804.875,588.871 810.987,584.88 817.722,579.268C823.833,574.279 828.853,570.88 832.782,569.072C836.711,567.263 840.983,566.359 845.597,566.359C852.582,566.359 856.074,568.354 856.074,572.346C856.074,575.214 854.64,576.649 851.771,576.649C848.528,576.649 846.907,575.214 846.907,572.346L847.655,568.978C847.655,568.479 847.281,568.23 846.533,568.23C840.297,568.23 833.125,571.909 825.018,579.268C820.278,583.758 812.733,588.248 802.381,592.738C805,596.48 806.309,600.284 806.309,604.15C806.309,609.763 803.877,615.001 799.013,619.865C795.147,624.355 793.213,627.162 793.213,628.284C793.213,630.404 794.585,631.465 797.329,631.465C803.441,631.465 811.517,628.159 821.557,621.549C830.889,615.405 843.697,605.327 859.981,591.315ZM1442.77,588.549C1449.5,582.381 1457.42,575.577 1466.53,568.136C1477.76,558.969 1488.73,550.706 1499.46,543.347L1485.8,543.347L1488.42,540.167L1502.27,540.167L1533.32,504.995L1549.41,504.995L1518.36,540.167L1542.12,540.167L1540.06,543.347L1515.92,543.347L1470.46,594.983C1465.47,600.471 1459.95,607.081 1453.9,614.814C1447.86,622.547 1444.83,626.787 1444.83,627.536C1444.83,630.155 1446.2,631.465 1448.95,631.465C1459.17,631.465 1481.13,616.997 1514.8,588.061L1514.8,588.8C1521.16,582.915 1528.49,577.96 1536.78,573.936C1547.2,568.885 1556.34,566.359 1564.19,566.359C1572.67,566.359 1576.91,570.288 1576.91,578.145C1576.91,584.506 1573.86,591.927 1567.75,600.408C1568.99,600.907 1570.37,601.157 1571.86,601.157C1579.72,601.157 1587.27,596.791 1594.5,588.061L1594.5,591.241C1587.52,599.598 1579.72,603.776 1571.11,603.776C1570.24,603.651 1569.37,603.526 1568.5,603.402C1567.62,603.277 1566.62,603.152 1565.5,603.028C1545.55,623.732 1528.27,634.084 1513.68,634.084C1510.93,634.084 1508.41,633.367 1506.1,631.932C1503.8,630.498 1502.05,628.596 1500.86,626.226C1499.68,623.856 1499.09,621.113 1499.09,617.994C1499.09,611.867 1501.06,605.841 1505.02,599.915L1504.89,600.034C1479.07,622.734 1460.3,634.084 1448.57,634.084C1445.7,634.084 1443.46,633.273 1441.84,631.652C1440.22,630.03 1439.41,628.159 1439.41,626.039C1439.41,621.05 1442.93,612.756 1449.98,601.157C1457.02,589.557 1470.84,573.468 1491.42,552.889C1479.12,561.085 1462.17,574.698 1440.55,593.729C1434.15,600.427 1427.09,603.776 1419.39,603.776C1418.52,603.651 1417.64,603.526 1416.77,603.402C1415.9,603.277 1414.9,603.152 1413.78,603.028C1393.82,623.732 1376.55,634.084 1361.95,634.084C1359.21,634.084 1356.68,633.367 1354.38,631.932C1352.07,630.498 1350.32,628.596 1349.14,626.226C1347.95,623.856 1347.36,621.113 1347.36,617.994C1347.36,609.638 1351.04,601.469 1358.4,593.486C1365.76,585.504 1374.64,578.987 1385.06,573.936C1395.47,568.885 1404.61,566.359 1412.47,566.359C1420.95,566.359 1425.19,570.288 1425.19,578.145C1425.19,584.506 1422.13,591.927 1416.02,600.408C1417.27,600.907 1418.64,601.157 1420.14,601.157C1426.38,601.157 1432.43,598.398 1438.28,592.881L1438.28,592.738C1439,592.054 1439.74,591.361 1440.49,590.658C1441.26,589.839 1442.02,588.974 1442.77,588.061L1442.77,588.549ZM1069.91,616.498C1068.42,604.275 1067.67,593.174 1067.67,583.197C1052.58,587.936 1041.32,594.671 1033.9,603.402C1026.48,612.132 1022.77,619.179 1022.77,624.542C1022.77,630.404 1025.95,633.335 1032.31,633.335C1042.79,633.335 1055.32,627.723 1069.91,616.498ZM1413.03,568.978C1406.04,568.978 1398.03,572.938 1388.99,580.858C1379.94,588.778 1371.84,597.477 1364.67,606.956C1357.49,616.435 1353.91,622.297 1353.91,624.542C1353.91,626.538 1354.81,628.191 1356.62,629.5C1358.43,630.81 1360.71,631.465 1363.45,631.465C1370.06,631.465 1378.01,628.191 1387.3,621.643C1396.6,615.095 1404.8,607.362 1411.9,598.444C1419.01,589.526 1422.57,582.511 1422.57,577.397C1422.57,574.902 1421.66,572.876 1419.86,571.317C1418.05,569.758 1415.77,568.978 1413.03,568.978ZM1564.75,568.978C1557.77,568.978 1549.76,572.938 1540.71,580.858C1531.67,588.778 1523.56,597.477 1516.39,606.956C1509.22,616.435 1505.63,622.297 1505.63,624.542C1505.63,626.538 1506.54,628.191 1508.35,629.5C1510.16,630.81 1512.43,631.465 1515.18,631.465C1521.79,631.465 1529.74,628.191 1539.03,621.643C1548.32,615.095 1556.52,607.362 1563.63,598.444C1570.74,589.526 1574.3,582.511 1574.3,577.397C1574.3,574.902 1573.39,572.876 1571.58,571.317C1569.77,569.758 1567.5,568.978 1564.75,568.978ZM914.445,568.978C906.961,568.978 898.636,572.657 889.469,580.016C880.302,587.375 872.319,595.731 865.522,605.086C858.724,614.44 855.326,621.05 855.326,624.917C855.326,626.787 855.949,628.346 857.197,629.594C858.444,630.841 860.003,631.465 861.874,631.465C866.987,631.465 874.346,627.91 883.95,620.801C893.554,613.691 902.222,605.647 909.955,596.667C917.688,587.687 921.554,580.64 921.554,575.526C921.554,571.161 919.184,568.978 914.445,568.978ZM597.896,596.48C608.248,596.48 616.979,595.17 624.088,592.551C631.197,589.932 636.592,586.814 640.271,583.197C643.95,579.58 645.79,576.649 645.79,574.404C645.79,570.787 643.67,568.978 639.429,568.978C633.817,568.978 627.269,571.441 619.785,576.368C612.302,581.295 605.006,587.998 597.896,596.48ZM1070.66,579.268C1083.13,575.526 1092.27,571.847 1098.07,568.23C1103.87,564.613 1106.77,559.998 1106.77,554.385C1106.77,552.639 1106.39,551.111 1105.65,549.802C1104.9,548.492 1103.87,547.463 1102.56,546.715C1101.25,545.967 1099.72,545.592 1097.98,545.592C1091.24,545.592 1085.22,548.804 1079.92,555.227C1074.62,561.651 1071.53,569.664 1070.66,579.268ZM544.951,534.929C540.336,526.946 534.599,522.955 527.739,522.955C524.995,522.955 522.719,523.672 520.911,525.107C519.102,526.541 518.198,528.131 518.198,529.877C518.198,535.24 522.563,537.922 531.294,537.922C534.786,537.922 539.339,536.924 544.951,534.929ZM1375.8,462.901L1378.42,462.901C1368.31,483.355 1356.84,498.696 1343.99,508.924C1331.15,519.151 1319.95,525.574 1310.41,528.193C1300.87,530.813 1293.67,532.122 1288.8,532.122C1279.32,532.122 1271.84,529.815 1266.35,525.2C1260.86,520.585 1258.12,514.349 1258.12,506.492C1258.12,499.756 1260.46,492.18 1265.14,483.761C1269.81,475.342 1277.05,467.235 1286.84,459.44C1296.63,451.644 1309.23,445.221 1324.63,440.17C1340.03,435.118 1358.09,432.593 1378.79,432.593C1393.13,432.593 1411.9,433.715 1435.1,435.96C1456.43,438.081 1472.52,439.141 1483.37,439.141C1493.97,439.141 1502.83,438.517 1509.94,437.27C1517.05,436.023 1522.04,434.339 1524.9,432.219L1528.27,432.219C1523.28,436.709 1514.99,440.326 1503.39,443.07C1491.79,445.814 1481.44,447.185 1472.33,447.185C1467.34,447.185 1453.69,445.502 1431.36,442.134C1399.43,437.519 1379.23,435.212 1370.75,435.212C1354.28,435.212 1339.07,437.488 1325.1,442.041C1311.13,446.593 1299.31,452.642 1289.64,460.188C1279.98,467.734 1272.68,475.591 1267.76,483.761C1262.83,491.93 1260.37,499.632 1260.37,506.866C1260.37,513.85 1262.89,519.432 1267.94,523.61C1272.99,527.788 1279.57,529.877 1287.68,529.877C1293.92,529.877 1301.12,528.412 1309.29,525.481C1317.46,522.55 1325.57,518.309 1333.61,512.759C1341.65,507.209 1349.48,500.068 1357.09,491.338C1364.7,482.607 1370.93,473.128 1375.8,462.901Z" style="fill-rule:nonzero;"/>
                </g>
                <g transform="matrix(0.779134,0,0,0.779134,188.709,103.987)">
                    <path d="M664.066,737.076L654.876,746.442C655.407,746.325 656.231,746.03 657.351,745.559C659.766,744.616 662.24,744.145 664.773,744.145C667.542,744.145 670.87,744.675 674.759,745.735C677.999,746.56 680.355,746.973 681.828,746.973C684.361,746.973 686.953,745.529 689.604,742.643C691.135,741.111 692.225,740.345 692.873,740.345C694.11,740.345 693.492,741.494 691.018,743.791C688.426,745.912 683.374,750.596 675.863,757.841C668.352,765.087 662.977,770.389 659.736,773.747C656.673,776.987 653.846,780.021 651.253,782.849C648.661,785.676 645.215,789.491 640.915,794.292C636.614,799.093 633.286,802.937 630.93,805.824L620.061,819.432L609.457,819.432L683.772,748.652C679.766,750.065 676.703,750.772 674.582,750.772C671.342,750.772 668.072,750.124 664.773,748.828C662.476,747.827 660.326,747.326 658.323,747.326C655.613,747.326 652.167,749.506 647.984,753.865L645.952,753.865L663.006,735.574C663.359,735.22 663.772,735.043 664.243,735.043C664.597,735.043 664.773,735.22 664.773,735.574C664.773,736.104 664.538,736.604 664.066,737.076ZM1241.62,740.345C1243.56,740.345 1245.08,740.92 1246.17,742.068C1247.26,743.217 1247.8,744.793 1247.8,746.796C1247.8,751.626 1244.71,758.327 1238.53,766.899C1232.34,775.47 1225.12,783.099 1216.88,789.785C1208.63,796.472 1201.68,799.815 1196.02,799.815C1191.37,799.815 1189.04,796.693 1189.04,790.448C1189.04,784.852 1190.79,779.108 1194.3,773.217C1197.8,767.326 1202.41,761.862 1208.13,756.825C1213.84,751.788 1219.73,747.783 1225.8,744.808C1231.87,741.833 1237.14,740.345 1241.62,740.345ZM616.526,746.796L617.586,746.796C614.523,754.16 610.591,759.933 605.79,764.115C600.989,768.298 596.703,770.389 592.933,770.389C591.755,770.389 590.709,769.992 589.796,769.196C588.883,768.401 588.426,767.385 588.426,766.148C588.426,762.024 590.061,757.959 593.33,753.953C596.6,749.948 600.606,746.678 605.348,744.145C610.09,741.612 614.523,740.345 618.647,740.345C621.239,740.345 623.212,741.111 624.567,742.643C625.922,744.174 626.6,746.354 626.6,749.182C626.6,754.484 625.127,759.093 622.181,763.011C619.236,766.928 615.422,770.242 610.738,772.952C606.055,775.662 600.179,778.607 593.109,781.788C587.16,784.38 582.889,786.354 580.297,787.709C577.705,789.064 574.936,790.949 571.99,793.364C575.289,792.363 578.176,791.803 580.65,791.685C584.244,791.862 587.69,792.716 590.989,794.248C592.461,794.896 593.713,795.382 594.744,795.706C595.775,796.03 596.821,796.192 597.881,796.192C599.354,796.192 600.915,795.588 602.564,794.38C604.214,793.173 606.129,791.126 608.308,788.239L609.457,789.034C606.629,792.804 603.89,795.544 601.239,797.252C598.588,798.961 595.76,799.815 592.756,799.815C591.224,799.815 588.632,799.049 584.98,797.517C580.797,795.691 577.292,794.778 574.464,794.778C571.224,794.778 567.543,796.457 563.419,799.815L561.828,799.815C565.893,795.632 573.787,790.212 585.51,783.556C595.996,777.665 603.478,772.893 607.955,769.241C612.078,765.824 615.76,761.921 619,757.532C622.24,753.143 623.86,749.329 623.86,746.089C623.86,742.967 622.123,741.406 618.647,741.406C615.171,741.406 611.151,742.893 606.585,745.868C602.02,748.843 598.087,752.333 594.788,756.339C591.489,760.345 589.84,763.615 589.84,766.148C589.84,768.092 591.048,769.064 593.463,769.064C596.173,769.064 599.781,767.296 604.288,763.762C608.794,760.227 612.874,754.572 616.526,746.796ZM1290.93,746.796L1291.99,746.796C1288.92,754.16 1284.99,759.933 1280.19,764.115C1275.39,768.298 1271.1,770.389 1267.33,770.389C1266.15,770.389 1265.11,769.992 1264.2,769.196C1263.28,768.401 1262.83,767.385 1262.83,766.148C1262.83,762.024 1264.46,757.959 1267.73,753.953C1271,749.948 1275.01,746.678 1279.75,744.145C1284.49,741.612 1288.92,740.345 1293.05,740.345C1295.64,740.345 1297.61,741.111 1298.97,742.643C1300.32,744.174 1301,746.354 1301,749.182C1301,754.484 1299.53,759.093 1296.58,763.011C1293.64,766.928 1289.82,770.242 1285.14,772.952C1280.45,775.662 1274.58,778.607 1267.51,781.788C1261.56,784.38 1257.29,786.354 1254.7,787.709C1252.1,789.064 1249.34,790.949 1246.39,793.364C1249.69,792.363 1252.58,791.803 1255.05,791.685C1258.64,791.862 1262.09,792.716 1265.39,794.248C1266.86,794.896 1268.11,795.382 1269.14,795.706C1270.17,796.03 1271.22,796.192 1272.28,796.192C1273.75,796.192 1275.32,795.588 1276.96,794.38C1278.61,793.173 1280.53,791.126 1282.71,788.239L1283.86,789.034C1281.03,792.804 1278.29,795.544 1275.64,797.252C1272.99,798.961 1270.16,799.815 1267.16,799.815C1265.62,799.815 1263.03,799.049 1259.38,797.517C1255.2,795.691 1251.69,794.778 1248.86,794.778C1245.62,794.778 1241.94,796.457 1237.82,799.815L1236.23,799.815C1240.29,795.632 1248.19,790.212 1259.91,783.556C1270.4,777.665 1277.88,772.893 1282.36,769.241C1286.48,765.824 1290.16,761.921 1293.4,757.532C1296.64,753.143 1298.26,749.329 1298.26,746.089C1298.26,742.967 1296.52,741.406 1293.05,741.406C1289.57,741.406 1285.55,742.893 1280.99,745.868C1276.42,748.843 1272.49,752.333 1269.19,756.339C1265.89,760.345 1264.24,763.615 1264.24,766.148C1264.24,768.092 1265.45,769.064 1267.86,769.064C1270.57,769.064 1274.18,767.296 1278.69,763.762C1283.19,760.227 1287.27,754.572 1290.93,746.796ZM1086.89,766.943C1082.71,770.419 1078.94,772.967 1075.58,774.587C1072.22,776.207 1069.07,777.017 1066.13,777.017C1064.01,777.017 1062.5,776.516 1061.62,775.514C1060.74,774.513 1060.29,772.863 1060.29,770.566C1060.29,765.853 1062.09,761.111 1065.68,756.339C1069.28,751.568 1073.77,747.709 1079.16,744.763C1084.55,741.818 1089.54,740.345 1094.14,740.345C1099.2,740.345 1101.74,742.878 1101.74,747.945C1101.74,752.952 1099.82,758.475 1095.99,764.513C1092.16,770.551 1087.28,776.236 1081.33,781.567C1075.38,786.899 1069.16,791.273 1062.68,794.69C1056.2,798.106 1050.57,799.815 1045.8,799.815C1041.09,799.815 1038.73,798.077 1038.73,794.601C1038.73,793.246 1039.09,792.127 1039.79,791.243C1040.5,790.36 1041.41,789.918 1042.53,789.918C1044.36,789.918 1045.27,790.802 1045.27,792.569C1045.27,793.983 1044.86,794.984 1044.04,795.573C1043.21,796.162 1042.18,796.31 1040.94,796.015C1041.06,796.781 1041.61,797.399 1042.58,797.871C1043.55,798.342 1044.74,798.578 1046.16,798.578C1051.16,798.578 1056.24,796.722 1061.4,793.011C1066.55,789.299 1071.08,785.279 1074.96,780.949C1078.85,776.619 1082.83,771.95 1086.89,766.943ZM1042.53,740.345C1044.48,740.345 1045.99,740.92 1047.08,742.068C1048.17,743.217 1048.72,744.793 1048.72,746.796C1048.72,751.626 1045.62,758.327 1039.44,766.899C1033.25,775.47 1026.04,783.099 1017.79,789.785C1009.54,796.472 1002.59,799.815 996.936,799.815C992.283,799.815 989.956,796.693 989.956,790.448C989.956,784.852 991.708,779.108 995.213,773.217C998.719,767.326 1003.33,761.862 1009.04,756.825C1014.76,751.788 1020.65,747.783 1026.71,744.808C1032.78,741.833 1038.06,740.345 1042.53,740.345ZM892.754,746.796L893.815,746.796C890.751,754.16 886.819,759.933 882.018,764.115C877.217,768.298 872.931,770.389 869.161,770.389C867.983,770.389 866.937,769.992 866.024,769.196C865.111,768.401 864.654,767.385 864.654,766.148C864.654,762.024 866.289,757.959 869.559,753.953C872.828,749.948 876.834,746.678 881.576,744.145C886.319,741.612 890.751,740.345 894.875,740.345C897.467,740.345 899.441,741.111 900.796,742.643C902.151,744.174 902.828,746.354 902.828,749.182C902.828,754.484 901.355,759.093 898.41,763.011C895.464,766.928 891.65,770.242 886.967,772.952C882.283,775.662 876.407,778.607 869.338,781.788C863.388,784.38 859.117,786.354 856.525,787.709C853.933,789.064 851.164,790.949 848.219,793.364C851.518,792.363 854.404,791.803 856.878,791.685C860.472,791.862 863.918,792.716 867.217,794.248C868.69,794.896 869.942,795.382 870.972,795.706C872.003,796.03 873.049,796.192 874.109,796.192C875.582,796.192 877.143,795.588 878.793,794.38C880.442,793.173 882.357,791.126 884.536,788.239L885.685,789.034C882.858,792.804 880.118,795.544 877.467,797.252C874.816,798.961 871.989,799.815 868.984,799.815C867.453,799.815 864.861,799.049 861.208,797.517C857.026,795.691 853.52,794.778 850.693,794.778C847.453,794.778 843.771,796.457 839.647,799.815L838.057,799.815C842.121,795.632 850.015,790.212 861.738,783.556C872.224,777.665 879.706,772.893 884.183,769.241C888.307,765.824 891.989,761.921 895.229,757.532C898.469,753.143 900.089,749.329 900.089,746.089C900.089,742.967 898.351,741.406 894.875,741.406C891.399,741.406 887.379,742.893 882.813,745.868C878.248,748.843 874.316,752.333 871.017,756.339C867.718,760.345 866.068,763.615 866.068,766.148C866.068,768.092 867.276,769.064 869.691,769.064C872.401,769.064 876.009,767.296 880.516,763.762C885.022,760.227 889.102,754.572 892.754,746.796ZM935.435,766.413C934.08,763.939 933.402,761.523 933.402,759.167C933.402,755.986 934.359,752.952 936.274,750.065C938.189,747.179 940.751,744.837 943.962,743.04C947.172,741.244 950.722,740.345 954.61,740.345C957.555,740.345 959.956,741.155 961.811,742.775C963.667,744.395 964.595,746.472 964.595,749.005C964.595,753.129 962.71,756.369 958.94,758.725C955.169,761.082 949.308,763.556 941.355,766.148C942.946,769.388 943.741,772.422 943.741,775.249C943.741,779.432 942.401,783.408 939.72,787.179C937.04,790.949 933.446,793.997 928.94,796.324C924.433,798.651 919.765,799.815 914.934,799.815C911.223,799.815 908.336,799.049 906.274,797.517C904.212,795.986 903.181,793.806 903.181,790.978C903.181,785.146 905.994,780.536 911.62,777.149C917.246,773.762 925.184,770.183 935.435,766.413ZM1177.64,746.796L1178.7,746.796C1175.64,754.16 1171.71,759.933 1166.91,764.115C1162.11,768.298 1157.82,770.389 1154.05,770.389C1152.87,770.389 1151.83,769.992 1150.91,769.196C1150,768.401 1149.54,767.385 1149.54,766.148C1149.54,762.024 1151.18,757.959 1154.45,753.953C1157.72,749.948 1161.72,746.678 1166.46,744.145C1171.21,741.612 1175.64,740.345 1179.76,740.345C1182.36,740.345 1184.33,741.111 1185.68,742.643C1187.04,744.174 1187.72,746.354 1187.72,749.182C1187.72,754.484 1186.24,759.093 1183.3,763.011C1180.35,766.928 1176.54,770.242 1171.86,772.952C1167.17,775.662 1161.3,778.607 1154.23,781.788C1148.28,784.38 1144.01,786.354 1141.41,787.709C1138.82,789.064 1136.05,790.949 1133.11,793.364C1136.41,792.363 1139.29,791.803 1141.77,791.685C1145.36,791.862 1148.81,792.716 1152.11,794.248C1153.58,794.896 1154.83,795.382 1155.86,795.706C1156.89,796.03 1157.94,796.192 1159,796.192C1160.47,796.192 1162.03,795.588 1163.68,794.38C1165.33,793.173 1167.25,791.126 1169.42,788.239L1170.57,789.034C1167.75,792.804 1165.01,795.544 1162.36,797.252C1159.7,798.961 1156.88,799.815 1153.87,799.815C1152.34,799.815 1149.75,799.049 1146.1,797.517C1141.91,795.691 1138.41,794.778 1135.58,794.778C1132.34,794.778 1128.66,796.457 1124.54,799.815L1122.94,799.815C1127.01,795.632 1134.9,790.212 1146.63,783.556C1157.11,777.665 1164.59,772.893 1169.07,769.241C1173.19,765.824 1176.88,761.921 1180.12,757.532C1183.36,753.143 1184.98,749.329 1184.98,746.089C1184.98,742.967 1183.24,741.406 1179.76,741.406C1176.29,741.406 1172.27,742.893 1167.7,745.868C1163.14,748.843 1159.2,752.333 1155.9,756.339C1152.61,760.345 1150.96,763.615 1150.96,766.148C1150.96,768.092 1152.16,769.064 1154.58,769.064C1157.29,769.064 1160.9,767.296 1165.4,763.762C1169.91,760.227 1173.99,754.572 1177.64,746.796ZM1302.06,783.379L1347.57,741.406L1358.17,741.406C1352.52,745.294 1346.36,749.712 1339.7,754.66C1333.05,759.609 1326.79,764.425 1320.93,769.108C1315.06,773.791 1309.92,778.077 1305.51,781.965C1310.28,780.964 1314.46,780.463 1318.05,780.463C1322.77,780.463 1328.13,780.846 1334.14,781.612C1338.5,777.724 1343.38,773.129 1348.81,767.827L1350.75,765.794L1351.72,766.766L1338.11,781.965C1342.12,782.554 1347.07,781.759 1352.96,779.579L1352.78,780.993C1347.07,783.114 1341.77,783.909 1336.88,783.379L1322.91,798.931L1313.46,798.931C1315.76,797.105 1321.97,791.744 1332.1,782.849C1327.33,782.142 1322.47,781.788 1317.52,781.788C1314.76,781.788 1312.36,781.995 1310.32,782.407C1308.29,782.819 1305.74,783.438 1302.68,784.263L1302.06,783.379ZM1241.62,741.582C1237.32,741.582 1232.3,743.541 1226.55,747.459C1220.81,751.376 1215.24,756.266 1209.85,762.127C1204.46,767.989 1200,773.88 1196.46,779.8C1192.93,785.721 1191.16,790.36 1191.16,793.718C1191.16,795.072 1191.63,796.221 1192.58,797.164C1193.52,798.106 1194.67,798.578 1196.02,798.578C1199.97,798.578 1204.79,796.634 1210.47,792.746C1216.15,788.858 1221.71,784.042 1227.13,778.298C1232.55,772.554 1237.08,766.737 1240.74,760.846C1244.39,754.955 1246.21,750.213 1246.21,746.619C1246.21,744.97 1245.82,743.718 1245.02,742.864C1244.23,742.009 1243.09,741.582 1241.62,741.582ZM935.965,767.473C928.012,770.419 922.386,772.613 919.087,774.056C915.788,775.5 912.74,777.606 909.941,780.374C907.143,783.143 905.744,786.56 905.744,790.625C905.744,792.863 906.333,794.748 907.511,796.28C908.69,797.812 911.282,798.578 915.287,798.578C918.999,798.578 922.71,797.738 926.421,796.059C930.133,794.38 933.196,792.127 935.611,789.299C938.027,786.472 939.234,783.467 939.234,780.286C939.234,776.928 938.144,772.657 935.965,767.473ZM1042.53,741.582C1038.23,741.582 1033.21,743.541 1027.47,747.459C1021.72,751.376 1016.16,756.266 1010.77,762.127C1005.38,767.989 1000.91,773.88 997.378,779.8C993.844,785.721 992.076,790.36 992.076,793.718C992.076,795.072 992.548,796.221 993.49,797.164C994.433,798.106 995.582,798.578 996.936,798.578C1000.88,798.578 1005.7,796.634 1011.38,792.746C1017.07,788.858 1022.62,784.042 1028.04,778.298C1033.46,772.554 1038,766.737 1041.65,760.846C1045.3,754.955 1047.13,750.213 1047.13,746.619C1047.13,744.97 1046.73,743.718 1045.93,742.864C1045.14,742.009 1044.01,741.582 1042.53,741.582ZM754.11,768.18L780.531,768.18L780.531,741.759L784.331,741.759L784.331,768.18L810.752,768.18L810.752,771.98L784.331,771.98L784.331,798.401L780.531,798.401L780.531,771.98L754.11,771.98L754.11,768.18ZM690.664,789.918C692.019,789.918 692.697,790.566 692.697,791.862C692.697,792.628 692.373,793.364 691.725,794.071C691.077,794.778 690.37,795.131 689.604,795.131C688.249,795.131 687.571,794.483 687.571,793.187C687.571,792.422 687.895,791.685 688.543,790.978C689.191,790.271 689.898,789.918 690.664,789.918ZM966.892,789.918C968.247,789.918 968.925,790.566 968.925,791.862C968.925,792.628 968.601,793.364 967.953,794.071C967.305,794.778 966.598,795.131 965.832,795.131C964.477,795.131 963.8,794.483 963.8,793.187C963.8,792.422 964.124,791.685 964.772,790.978C965.42,790.271 966.127,789.918 966.892,789.918ZM1109.34,789.918C1110.69,789.918 1111.37,790.566 1111.37,791.862C1111.37,792.628 1111.05,793.364 1110.4,794.071C1109.75,794.778 1109.04,795.131 1108.28,795.131C1106.92,795.131 1106.24,794.483 1106.24,793.187C1106.24,792.422 1106.57,791.685 1107.22,790.978C1107.86,790.271 1108.57,789.918 1109.34,789.918ZM1094.85,741.582C1091.61,741.582 1087.36,743.541 1082.12,747.459C1076.88,751.376 1072.21,755.824 1068.11,760.802C1064.02,765.78 1061.97,769.565 1061.97,772.157C1061.97,774.572 1063.47,775.78 1066.48,775.78C1070.54,775.78 1075.24,773.85 1080.57,769.992C1085.9,766.133 1090.56,761.774 1094.54,756.914C1098.51,752.054 1100.5,748.563 1100.5,746.442C1100.5,743.202 1098.62,741.582 1094.85,741.582ZM941.002,765.087C950.192,762.319 956.141,759.623 958.851,757.002C961.561,754.381 962.916,751.656 962.916,748.828C962.916,746.649 962.15,744.896 960.619,743.571C959.087,742.245 957.025,741.582 954.433,741.582C951.605,741.582 948.895,742.245 946.303,743.571C943.711,744.896 941.576,746.575 939.897,748.607C938.218,750.64 937.379,752.628 937.379,754.572C937.379,756.457 938.586,759.962 941.002,765.087Z" style="fill-rule:nonzero;"/>
                </g>
            </g>
            <g transform="matrix(3.00301,0,0,3.00301,288.063,-351.072)">
                <g transform="matrix(1,0,0,1,-6.99298,-1.42109e-14)">
                    <rect x="81.717" y="177.854" width="113.577" height="1.174" style="fill-rule:nonzero;"/>
                    <path d="M66.929,178.278L73.902,185.25L80.875,178.278L73.902,171.305L66.929,178.278ZM73.902,185.998L66.183,178.278L73.902,170.559L81.621,178.278L73.902,185.998Z" style="fill-rule:nonzero;"/>
                    <path d="M68.089,178.278L73.901,184.091L79.714,178.278L73.901,172.465L68.089,178.278ZM73.901,184.837L67.342,178.278L73.901,171.719L80.461,178.278L73.901,184.837Z" style="fill-rule:nonzero;"/>
                    <path d="M211.359,183.368C211.033,183.45 210.699,183.511 210.362,183.549C210.025,183.59 209.686,183.602 209.345,183.6C209.005,183.598 208.666,183.57 208.328,183.529C208.158,183.509 207.991,183.479 207.823,183.451C207.656,183.418 207.488,183.386 207.323,183.346C205.997,183.031 204.744,182.455 203.604,181.717C203.32,181.532 203.042,181.336 202.771,181.133C202.5,180.927 202.236,180.713 201.979,180.49L201.788,180.321L201.602,180.148C201.479,180.033 201.353,179.92 201.234,179.8L200.877,179.442C200.76,179.322 200.647,179.198 200.532,179.075C200.416,178.953 200.306,178.827 200.194,178.701C200.083,178.576 199.971,178.45 199.866,178.321L199.544,177.937L199.232,177.546C198.822,177.022 198.429,176.488 198.049,175.951C197.861,175.682 197.672,175.412 197.488,175.142L196.94,174.332L195.865,172.723C195.149,171.659 194.439,170.629 193.652,169.709C193.259,169.251 192.848,168.817 192.408,168.429C192.19,168.231 191.961,168.051 191.729,167.879C191.615,167.788 191.492,167.71 191.372,167.629L191.191,167.507L191.002,167.396C190.877,167.321 190.753,167.243 190.622,167.179L190.427,167.077C190.362,167.042 190.297,167.007 190.229,166.979L189.828,166.796L189.415,166.635C188.859,166.432 188.28,166.283 187.689,166.188C187.394,166.136 187.095,166.111 186.794,166.089L186.342,166.073L185.888,166.085C185.283,166.116 184.677,166.213 184.083,166.372C183.493,166.538 182.912,166.771 182.363,167.075C181.812,167.376 181.29,167.742 180.812,168.163C180.334,168.583 179.898,169.057 179.525,169.578C179.337,169.837 179.165,170.108 179.008,170.387C178.851,170.667 178.714,170.957 178.593,171.252C178.473,171.548 178.371,171.852 178.288,172.16C178.208,172.467 178.147,172.78 178.108,173.096C178.068,173.411 178.049,173.729 178.05,174.045C178.052,174.363 178.075,174.679 178.116,174.992C178.158,175.304 178.217,175.615 178.298,175.918C178.378,176.221 178.479,176.519 178.595,176.808C178.713,177.096 178.846,177.377 179,177.646C179.153,177.915 179.324,178.171 179.51,178.415C179.697,178.657 179.898,178.888 180.116,179.099C180.333,179.311 180.566,179.505 180.81,179.681C180.934,179.771 181.05,179.849 181.177,179.919C181.302,179.991 181.432,180.055 181.563,180.111C181.828,180.225 182.104,180.307 182.377,180.349C182.65,180.392 182.922,180.393 183.165,180.344C183.408,180.295 183.617,180.196 183.782,180.053C183.949,179.909 184.073,179.725 184.163,179.497C184.251,179.268 184.307,179.001 184.334,178.713C184.347,178.569 184.355,178.42 184.359,178.268L184.362,178.152L184.362,178.034C184.362,177.956 184.364,177.877 184.362,177.798C184.36,177.483 184.346,177.17 184.325,176.857C184.312,176.701 184.301,176.544 184.283,176.389C184.269,176.233 184.248,176.078 184.228,175.923C184.184,175.614 184.136,175.305 184.073,175C184.012,174.694 183.943,174.391 183.861,174.091C183.824,173.94 183.777,173.792 183.735,173.643C183.688,173.495 183.645,173.346 183.593,173.2C183.397,172.612 183.161,172.046 182.882,171.511C182.603,170.976 182.273,170.477 181.893,170.031C181.704,169.808 181.496,169.601 181.28,169.411C181.063,169.222 180.833,169.048 180.588,168.896C180.343,168.744 180.085,168.612 179.819,168.503C179.553,168.396 179.278,168.307 178.996,168.253C178.715,168.198 178.429,168.17 178.143,168.172L178.035,168.174C177.999,168.176 177.963,168.175 177.927,168.18L177.713,168.199C177.641,168.21 177.569,168.219 177.498,168.232L177.39,168.254C177.354,168.261 177.318,168.269 177.283,168.278C176.71,168.415 176.146,168.673 175.613,169.009C175.347,169.176 175.087,169.361 174.835,169.56C174.709,169.66 174.587,169.765 174.463,169.869C174.4,169.919 174.342,169.975 174.283,170.03L174.104,170.194C173.634,170.639 173.203,171.129 172.813,171.651C172.424,172.175 172.079,172.734 171.784,173.318C171.191,174.485 170.811,175.763 170.667,177.053C170.64,177.373 170.638,177.693 170.687,177.998C170.71,178.15 170.745,178.298 170.793,178.438C170.842,178.578 170.903,178.709 170.979,178.83C171.015,178.892 171.056,178.943 171.096,178.996L171.163,179.07C171.187,179.094 171.211,179.116 171.235,179.139C171.333,179.228 171.442,179.302 171.556,179.361C171.784,179.477 172.03,179.52 172.228,179.487C172.328,179.469 172.413,179.436 172.493,179.391C172.575,179.344 172.649,179.283 172.722,179.207C172.867,179.054 172.996,178.837 173.1,178.595C173.126,178.534 173.15,178.471 173.173,178.408C173.195,178.344 173.214,178.277 173.236,178.212C173.253,178.146 173.271,178.08 173.286,178.013C173.298,177.945 173.314,177.878 173.324,177.81C173.366,177.537 173.375,177.257 173.352,176.978C173.308,176.418 173.139,175.861 172.865,175.36C172.728,175.109 172.568,174.871 172.382,174.654C172.198,174.437 171.991,174.239 171.763,174.069C171.308,173.728 170.769,173.505 170.193,173.445C169.905,173.415 169.608,173.422 169.312,173.47C169.016,173.516 168.721,173.603 168.437,173.72C167.867,173.957 167.334,174.321 166.901,174.786C166.467,175.248 166.127,175.808 165.944,176.414C165.851,176.716 165.802,177.032 165.793,177.342C165.792,177.418 165.796,177.494 165.807,177.568C165.815,177.642 165.832,177.713 165.853,177.781C165.895,177.917 165.964,178.036 166.051,178.108C166.093,178.146 166.142,178.168 166.189,178.183C166.238,178.2 166.281,178.199 166.328,178.193C166.373,178.186 166.418,178.172 166.461,178.15C166.505,178.127 166.546,178.098 166.583,178.064C166.621,178.032 166.653,177.994 166.679,177.954C166.704,177.916 166.725,177.876 166.734,177.839C166.764,177.754 166.781,177.662 166.783,177.56C166.787,177.459 166.776,177.35 166.756,177.238C166.745,177.183 166.733,177.126 166.715,177.071L166.689,176.987C166.679,176.96 166.667,176.933 166.656,176.905C166.61,176.797 166.556,176.688 166.484,176.589C166.414,176.489 166.336,176.39 166.244,176.304C166.154,176.216 166.055,176.132 165.946,176.064C165.838,175.995 165.722,175.933 165.598,175.89C165.475,175.847 165.346,175.811 165.211,175.802C165.076,175.792 164.935,175.793 164.793,175.819C164.653,175.846 164.509,175.884 164.374,175.948C164.238,176.009 164.105,176.086 163.986,176.182C163.744,176.37 163.545,176.623 163.429,176.909C163.412,176.945 163.399,176.979 163.389,177.015C163.378,177.05 163.369,177.086 163.361,177.122C163.345,177.194 163.338,177.267 163.34,177.337C163.343,177.478 163.389,177.604 163.478,177.67C163.523,177.706 163.571,177.723 163.618,177.721C163.666,177.721 163.718,177.7 163.767,177.665C163.866,177.593 163.946,177.467 163.976,177.341C163.992,177.279 163.994,177.216 163.984,177.161C163.975,177.106 163.951,177.062 163.918,177.023C163.835,176.936 163.729,176.879 163.602,176.865C163.54,176.855 163.474,176.86 163.408,176.866C163.343,176.877 163.276,176.89 163.213,176.916C163.148,176.937 163.087,176.969 163.029,177.002C163.001,177.021 162.971,177.037 162.945,177.059L162.906,177.089C162.894,177.1 162.882,177.111 162.87,177.122C162.846,177.142 162.82,177.169 162.796,177.195C162.772,177.222 162.748,177.249 162.724,177.278C162.676,177.336 162.63,177.398 162.583,177.463C162.488,177.594 162.39,177.736 162.269,177.88C162.145,178.023 162.004,178.156 161.853,178.271C161.699,178.384 161.534,178.48 161.362,178.56C161.19,178.64 161.008,178.696 160.824,178.736C160.732,178.757 160.638,178.769 160.544,178.781L160.403,178.791C160.356,178.793 160.309,178.792 160.262,178.792C160.073,178.789 159.884,178.767 159.7,178.718C159.516,178.669 159.341,178.597 159.178,178.506C159.015,178.415 158.867,178.3 158.734,178.173C158.702,178.14 158.667,178.109 158.637,178.075L158.547,177.971C158.491,177.898 158.437,177.824 158.389,177.746C158.197,177.436 158.083,177.074 158.087,176.713L158.358,176.648C158.427,176.79 158.5,176.921 158.582,177.043C158.663,177.167 158.756,177.278 158.854,177.381C158.951,177.485 159.057,177.579 159.169,177.661C159.282,177.743 159.398,177.816 159.521,177.876C159.644,177.935 159.77,177.982 159.9,178.017L159.998,178.04C160.031,178.046 160.065,178.05 160.098,178.056C160.131,178.063 160.166,178.064 160.2,178.068C160.233,178.071 160.268,178.074 160.302,178.074C160.439,178.08 160.578,178.069 160.716,178.045C160.854,178.021 160.992,177.987 161.124,177.935C161.256,177.884 161.384,177.821 161.505,177.746C161.626,177.669 161.737,177.58 161.842,177.479C161.948,177.377 162.052,177.252 162.168,177.123C162.286,176.994 162.411,176.858 162.572,176.739C162.736,176.618 162.917,176.535 163.106,176.49C163.2,176.465 163.297,176.456 163.394,176.45C163.492,176.45 163.59,176.454 163.687,176.479C163.881,176.52 164.068,176.636 164.19,176.799C164.257,176.888 164.299,176.999 164.309,177.107C164.315,177.162 164.313,177.215 164.307,177.268C164.3,177.319 164.29,177.37 164.274,177.419C164.212,177.612 164.097,177.784 163.922,177.904C163.835,177.962 163.726,178.005 163.61,178.005C163.493,178.006 163.383,177.957 163.304,177.892C163.221,177.826 163.159,177.736 163.122,177.643C163.084,177.548 163.069,177.451 163.065,177.356C163.062,177.261 163.071,177.167 163.088,177.077C163.104,176.986 163.13,176.894 163.164,176.812C163.224,176.642 163.31,176.482 163.406,176.331C163.501,176.177 163.618,176.038 163.742,175.906C163.995,175.645 164.299,175.427 164.647,175.28C164.82,175.204 165.005,175.152 165.197,175.121C165.389,175.087 165.586,175.085 165.78,175.104C165.976,175.122 166.167,175.171 166.351,175.238C166.535,175.304 166.708,175.399 166.871,175.511C167.035,175.622 167.181,175.758 167.313,175.911C167.445,176.063 167.555,176.237 167.644,176.424C167.82,176.798 167.904,177.236 167.807,177.692C167.759,177.919 167.659,178.148 167.506,178.343C167.343,178.549 167.138,178.691 166.916,178.774C166.805,178.816 166.689,178.843 166.572,178.853C166.454,178.862 166.333,178.853 166.218,178.824C166.161,178.81 166.104,178.787 166.051,178.764C166.024,178.751 165.998,178.737 165.972,178.723C165.948,178.708 165.924,178.691 165.901,178.676C165.811,178.608 165.73,178.529 165.671,178.44C165.549,178.264 165.491,178.074 165.457,177.892C165.44,177.8 165.429,177.709 165.423,177.62C165.417,177.529 165.415,177.44 165.416,177.351C165.422,177 165.471,176.653 165.565,176.314C165.752,175.638 166.1,175.009 166.551,174.47C166.776,174.2 167.029,173.953 167.304,173.731C167.579,173.509 167.876,173.314 168.192,173.151C168.507,172.986 168.841,172.857 169.188,172.765C169.536,172.673 169.896,172.627 170.26,172.628C170.623,172.629 170.987,172.682 171.336,172.783C171.685,172.884 172.02,173.032 172.33,173.218C172.639,173.407 172.924,173.632 173.181,173.887C173.436,174.143 173.665,174.426 173.859,174.734C174.25,175.347 174.51,176.057 174.594,176.809C174.678,177.561 174.585,178.356 174.258,179.088C174.175,179.272 174.074,179.453 173.95,179.626C173.826,179.799 173.679,179.967 173.5,180.112C173.323,180.258 173.114,180.38 172.89,180.458C172.663,180.536 172.421,180.57 172.194,180.553C171.966,180.539 171.754,180.478 171.564,180.392C171.374,180.306 171.204,180.195 171.055,180.065C170.907,179.936 170.778,179.789 170.668,179.631C170.642,179.59 170.614,179.551 170.589,179.51L170.519,179.383C170.477,179.297 170.435,179.208 170.405,179.122C170.341,178.947 170.294,178.77 170.263,178.592C170.232,178.414 170.215,178.236 170.208,178.061C170.192,177.708 170.218,177.364 170.253,177.025C170.544,174.33 171.735,171.726 173.605,169.69L173.783,169.501C173.842,169.438 173.901,169.375 173.964,169.316C174.09,169.197 174.212,169.074 174.339,168.956C174.595,168.722 174.863,168.498 175.146,168.288C175.711,167.87 176.344,167.513 177.041,167.288C177.084,167.273 177.128,167.26 177.172,167.248L177.305,167.21C177.394,167.187 177.484,167.168 177.573,167.147L177.846,167.1C177.892,167.091 177.938,167.088 177.983,167.083L178.121,167.068C178.487,167.036 178.855,167.044 179.215,167.09C179.577,167.134 179.93,167.217 180.271,167.331C180.611,167.444 180.94,167.587 181.256,167.756C181.569,167.928 181.868,168.125 182.149,168.347C182.43,168.569 182.69,168.81 182.932,169.069C183.171,169.328 183.394,169.603 183.597,169.888C183.7,170.031 183.795,170.177 183.889,170.325L184.025,170.549C184.069,170.624 184.111,170.7 184.154,170.776C184.49,171.385 184.764,172.023 184.984,172.674C185.042,172.836 185.091,173.001 185.143,173.165C185.167,173.247 185.19,173.33 185.214,173.413C185.238,173.496 185.26,173.579 185.281,173.662C185.37,173.995 185.441,174.333 185.505,174.671L185.55,174.926L185.589,175.182C185.603,175.268 185.613,175.353 185.624,175.439C185.634,175.525 185.646,175.61 185.655,175.696C185.692,176.04 185.716,176.385 185.73,176.731C185.741,177.078 185.742,177.425 185.73,177.771C185.727,177.858 185.721,177.945 185.717,178.031L185.71,178.161L185.702,178.294C185.688,178.472 185.668,178.654 185.64,178.839C185.613,179.024 185.574,179.214 185.522,179.405C185.47,179.597 185.402,179.791 185.313,179.983C185.135,180.367 184.852,180.742 184.491,181.006C184.311,181.14 184.112,181.247 183.91,181.324C183.707,181.401 183.5,181.449 183.296,181.475C182.889,181.524 182.501,181.486 182.138,181.402C181.775,181.317 181.436,181.187 181.117,181.021C180.958,180.939 180.804,180.848 180.655,180.748C180.507,180.649 180.362,180.538 180.233,180.428C179.703,179.987 179.24,179.472 178.859,178.905C178.667,178.623 178.494,178.328 178.339,178.025C178.185,177.721 178.05,177.407 177.934,177.086C177.818,176.766 177.721,176.439 177.641,176.107C177.563,175.774 177.504,175.437 177.465,175.097C177.425,174.757 177.406,174.414 177.404,174.07C177.405,173.726 177.425,173.381 177.466,173.037C177.508,172.694 177.568,172.352 177.653,172.014C177.736,171.677 177.841,171.344 177.964,171.019C178.086,170.692 178.229,170.374 178.388,170.063C178.547,169.753 178.725,169.452 178.916,169.159C179.108,168.868 179.313,168.584 179.535,168.314C179.757,168.044 179.992,167.783 180.24,167.536C180.734,167.039 181.281,166.594 181.868,166.206C182.455,165.817 183.085,165.49 183.746,165.233C183.83,165.203 183.912,165.168 183.996,165.142L184.5,164.978C184.585,164.952 184.671,164.932 184.756,164.909C185.097,164.814 185.444,164.749 185.793,164.69L186.318,164.622L186.846,164.584C187.197,164.572 187.551,164.566 187.902,164.589C188.605,164.626 189.304,164.737 189.986,164.911L190.495,165.058C190.662,165.113 190.828,165.173 190.994,165.232C191.078,165.26 191.159,165.294 191.241,165.329L191.485,165.431C191.649,165.497 191.806,165.578 191.966,165.656L192.204,165.774L192.435,165.905C192.588,165.994 192.745,166.078 192.892,166.179C193.191,166.373 193.483,166.574 193.756,166.796C194.31,167.231 194.81,167.719 195.276,168.226C195.738,168.735 196.164,169.267 196.561,169.809C196.759,170.08 196.952,170.352 197.138,170.626L197.416,171.037L197.687,171.449C198.406,172.547 199.085,173.648 199.777,174.722C200.123,175.258 200.474,175.786 200.833,176.303C201.193,176.821 201.567,177.321 201.953,177.81C202.051,177.93 202.147,178.052 202.246,178.172L202.546,178.526C202.596,178.586 202.648,178.643 202.7,178.7L202.854,178.873L203.01,179.044L203.167,179.211C203.591,179.654 204.041,180.071 204.515,180.461C204.752,180.655 204.996,180.841 205.245,181.021C205.495,181.198 205.75,181.368 206.012,181.529C206.536,181.85 207.083,182.134 207.656,182.368C207.941,182.486 208.232,182.591 208.53,182.681C208.827,182.773 209.129,182.852 209.437,182.912C209.744,182.973 210.056,183.021 210.373,183.05C210.689,183.078 211.009,183.091 211.333,183.09L211.359,183.368Z" style="fill-rule:nonzero;"/>
                </g>
                <g transform="matrix(1,0,0,1,-2.87131,-0.145508)">
                    <g transform="matrix(1,0,0,1,33.2999,0)">
                        <rect x="227.912" y="177.854" width="113.576" height="1.174" style="fill-rule:nonzero;"/>
                    </g>
                    <g transform="matrix(1,0,0,1,33.2999,0)">
                        <path d="M343.198,178.57L350.171,185.542L357.144,178.57L350.171,171.597L343.198,178.57ZM350.171,186.289L342.452,178.57L350.171,170.85L357.89,178.57L350.171,186.289Z" style="fill-rule:nonzero;"/>
                    </g>
                    <g transform="matrix(1,0,0,1,33.2999,0)">
                        <path d="M344.358,178.57L350.171,184.382L355.984,178.57L350.171,172.757L344.358,178.57ZM350.171,185.129L343.611,178.57L350.171,172.01L356.73,178.57L350.171,185.129Z" style="fill-rule:nonzero;"/>
                    </g>
                    <g transform="matrix(1,0,0,1,33.2999,0)">
                        <path d="M211.618,183.368C211.945,183.45 212.278,183.511 212.615,183.549C212.952,183.59 213.292,183.602 213.632,183.6C213.972,183.598 214.312,183.57 214.649,183.529C214.819,183.509 214.986,183.479 215.154,183.451C215.321,183.418 215.489,183.386 215.654,183.346C216.98,183.031 218.233,182.455 219.373,181.717C219.657,181.532 219.935,181.336 220.207,181.133C220.478,180.927 220.741,180.713 220.999,180.49L221.19,180.321L221.375,180.148C221.498,180.033 221.625,179.92 221.743,179.8L222.1,179.442C222.217,179.322 222.33,179.198 222.445,179.075C222.562,178.953 222.671,178.827 222.783,178.701C222.894,178.576 223.006,178.45 223.112,178.321L223.433,177.937L223.745,177.546C224.155,177.022 224.548,176.488 224.929,175.951C225.116,175.682 225.306,175.412 225.489,175.142L226.037,174.332L227.112,172.723C227.828,171.659 228.538,170.629 229.325,169.709C229.718,169.251 230.129,168.817 230.569,168.429C230.788,168.231 231.016,168.051 231.249,167.879C231.362,167.788 231.485,167.71 231.605,167.629L231.787,167.507L231.975,167.396C232.101,167.321 232.224,167.243 232.355,167.179L232.55,167.077C232.615,167.042 232.68,167.007 232.748,166.979L233.15,166.796L233.563,166.635C234.118,166.432 234.697,166.283 235.288,166.188C235.583,166.136 235.882,166.111 236.183,166.089L236.635,166.073L237.089,166.085C237.694,166.116 238.3,166.213 238.894,166.372C239.484,166.538 240.065,166.771 240.615,167.075C241.165,167.376 241.688,167.742 242.165,168.163C242.643,168.583 243.079,169.057 243.452,169.578C243.641,169.837 243.813,170.108 243.969,170.387C244.126,170.667 244.263,170.957 244.384,171.252C244.505,171.548 244.606,171.852 244.689,172.16C244.77,172.467 244.83,172.78 244.869,173.096C244.909,173.411 244.928,173.729 244.927,174.045C244.925,174.363 244.902,174.679 244.861,174.992C244.819,175.304 244.76,175.615 244.679,175.918C244.599,176.221 244.499,176.519 244.382,176.808C244.264,177.096 244.131,177.377 243.977,177.646C243.824,177.915 243.653,178.171 243.467,178.415C243.28,178.657 243.079,178.888 242.862,179.099C242.644,179.311 242.412,179.505 242.167,179.681C242.044,179.771 241.927,179.849 241.801,179.919C241.675,179.991 241.546,180.055 241.414,180.111C241.149,180.225 240.873,180.307 240.6,180.349C240.327,180.392 240.055,180.393 239.812,180.344C239.569,180.295 239.36,180.196 239.195,180.053C239.028,179.909 238.904,179.725 238.814,179.497C238.727,179.268 238.67,179.001 238.644,178.713C238.63,178.569 238.622,178.42 238.618,178.268L238.616,178.152L238.615,178.034C238.615,177.956 238.613,177.877 238.615,177.798C238.617,177.483 238.632,177.17 238.652,176.857C238.666,176.701 238.676,176.544 238.694,176.389C238.709,176.233 238.729,176.078 238.749,175.923C238.793,175.614 238.841,175.305 238.904,175C238.965,174.694 239.035,174.391 239.116,174.091C239.153,173.94 239.2,173.792 239.242,173.643C239.289,173.495 239.333,173.346 239.384,173.2C239.58,172.612 239.816,172.046 240.095,171.511C240.375,170.976 240.704,170.477 241.084,170.031C241.273,169.808 241.481,169.601 241.697,169.411C241.914,169.222 242.145,169.048 242.389,168.896C242.634,168.744 242.892,168.612 243.158,168.503C243.425,168.396 243.699,168.307 243.981,168.253C244.262,168.198 244.548,168.17 244.835,168.172L244.942,168.174C244.978,168.176 245.014,168.175 245.05,168.18L245.265,168.199C245.336,168.21 245.408,168.219 245.479,168.232L245.587,168.254C245.623,168.261 245.659,168.269 245.694,168.278C246.267,168.415 246.832,168.673 247.364,169.009C247.63,169.176 247.89,169.361 248.142,169.56C248.268,169.66 248.39,169.765 248.514,169.869C248.577,169.919 248.635,169.975 248.694,170.03L248.873,170.194C249.343,170.639 249.774,171.129 250.165,171.651C250.553,172.175 250.898,172.734 251.193,173.318C251.786,174.485 252.167,175.763 252.31,177.053C252.337,177.373 252.339,177.693 252.291,177.998C252.267,178.15 252.232,178.298 252.185,178.438C252.135,178.578 252.074,178.709 251.999,178.83C251.962,178.892 251.922,178.943 251.881,178.996L251.814,179.07C251.791,179.094 251.766,179.116 251.742,179.139C251.644,179.228 251.535,179.302 251.421,179.361C251.193,179.477 250.947,179.52 250.749,179.487C250.649,179.469 250.564,179.436 250.484,179.391C250.402,179.344 250.328,179.283 250.255,179.207C250.111,179.054 249.981,178.837 249.877,178.595C249.851,178.534 249.827,178.471 249.804,178.408C249.782,178.344 249.763,178.277 249.741,178.212C249.725,178.146 249.707,178.08 249.691,178.013C249.68,177.945 249.663,177.878 249.653,177.81C249.611,177.537 249.603,177.257 249.625,176.978C249.669,176.418 249.838,175.861 250.112,175.36C250.249,175.109 250.409,174.871 250.595,174.654C250.779,174.437 250.986,174.239 251.214,174.069C251.669,173.728 252.208,173.505 252.784,173.445C253.072,173.415 253.369,173.422 253.666,173.47C253.961,173.516 254.256,173.603 254.541,173.72C255.11,173.957 255.643,174.321 256.075,174.786C256.51,175.248 256.85,175.808 257.034,176.414C257.126,176.716 257.176,177.032 257.183,177.342C257.185,177.418 257.181,177.494 257.17,177.568C257.161,177.642 257.146,177.713 257.125,177.781C257.083,177.917 257.013,178.036 256.926,178.108C256.884,178.146 256.834,178.168 256.788,178.183C256.739,178.2 256.696,178.199 256.65,178.193C256.604,178.186 256.56,178.172 256.515,178.15C256.471,178.127 256.431,178.098 256.394,178.064C256.355,178.032 256.324,177.994 256.299,177.954C256.273,177.916 256.252,177.876 256.243,177.839C256.213,177.754 256.196,177.662 256.194,177.56C256.19,177.459 256.2,177.35 256.221,177.238C256.232,177.183 256.245,177.126 256.262,177.071L256.289,176.987C256.298,176.96 256.311,176.933 256.321,176.905C256.368,176.797 256.42,176.688 256.493,176.589C256.562,176.489 256.64,176.39 256.733,176.304C256.824,176.216 256.922,176.132 257.031,176.064C257.139,175.995 257.255,175.933 257.379,175.89C257.502,175.847 257.631,175.811 257.767,175.802C257.901,175.792 258.042,175.793 258.183,175.819C258.324,175.846 258.467,175.884 258.603,175.948C258.739,176.009 258.872,176.086 258.992,176.182C259.233,176.37 259.432,176.623 259.548,176.909C259.565,176.945 259.578,176.979 259.588,177.015C259.6,177.05 259.609,177.086 259.616,177.122C259.631,177.194 259.639,177.267 259.637,177.337C259.634,177.478 259.588,177.604 259.499,177.67C259.454,177.706 259.406,177.723 259.359,177.721C259.312,177.721 259.259,177.7 259.209,177.665C259.111,177.593 259.031,177.467 259.001,177.341C258.984,177.279 258.983,177.216 258.993,177.161C259.002,177.106 259.026,177.062 259.058,177.023C259.142,176.936 259.249,176.879 259.375,176.865C259.437,176.855 259.504,176.86 259.569,176.866C259.635,176.877 259.7,176.89 259.765,176.916C259.829,176.937 259.89,176.969 259.948,177.002C259.976,177.021 260.006,177.037 260.032,177.059L260.071,177.089C260.083,177.1 260.095,177.111 260.107,177.122C260.131,177.142 260.157,177.169 260.181,177.195C260.206,177.222 260.229,177.249 260.252,177.278C260.301,177.336 260.346,177.398 260.394,177.463C260.489,177.594 260.588,177.736 260.708,177.88C260.833,178.023 260.972,178.156 261.125,178.271C261.278,178.384 261.443,178.48 261.614,178.56C261.786,178.64 261.969,178.696 262.153,178.736C262.245,178.757 262.339,178.769 262.433,178.781L262.574,178.791C262.621,178.793 262.668,178.792 262.715,178.792C262.904,178.789 263.094,178.767 263.277,178.718C263.461,178.669 263.636,178.597 263.799,178.506C263.962,178.415 264.11,178.3 264.243,178.173C264.276,178.14 264.31,178.109 264.34,178.075L264.43,177.971C264.486,177.898 264.541,177.824 264.588,177.746C264.78,177.436 264.894,177.074 264.89,176.713L264.619,176.648C264.55,176.79 264.477,176.921 264.395,177.043C264.314,177.167 264.222,177.278 264.124,177.381C264.026,177.485 263.92,177.579 263.808,177.661C263.695,177.743 263.579,177.816 263.456,177.876C263.333,177.935 263.207,177.982 263.077,178.017L262.979,178.04C262.946,178.046 262.912,178.05 262.879,178.056C262.846,178.063 262.812,178.064 262.778,178.068C262.744,178.071 262.71,178.074 262.675,178.074C262.538,178.08 262.399,178.069 262.261,178.045C262.124,178.021 261.986,177.987 261.854,177.935C261.721,177.884 261.592,177.821 261.471,177.746C261.351,177.669 261.239,177.58 261.135,177.479C261.028,177.377 260.924,177.252 260.808,177.123C260.691,176.994 260.566,176.858 260.406,176.739C260.241,176.618 260.06,176.535 259.871,176.49C259.777,176.465 259.68,176.456 259.583,176.45C259.484,176.45 259.387,176.454 259.29,176.479C259.096,176.52 258.909,176.636 258.786,176.799C258.72,176.888 258.678,176.999 258.668,177.107C258.661,177.162 258.665,177.215 258.67,177.268C258.677,177.319 258.687,177.37 258.703,177.419C258.765,177.612 258.88,177.784 259.055,177.904C259.142,177.962 259.251,178.005 259.367,178.005C259.484,178.006 259.594,177.957 259.674,177.892C259.756,177.826 259.818,177.736 259.855,177.643C259.893,177.548 259.907,177.451 259.911,177.356C259.915,177.261 259.906,177.167 259.89,177.077C259.872,176.986 259.846,176.894 259.812,176.812C259.752,176.642 259.667,176.482 259.571,176.331C259.476,176.177 259.359,176.038 259.234,175.906C258.982,175.645 258.678,175.427 258.329,175.28C258.157,175.204 257.971,175.152 257.78,175.121C257.588,175.087 257.39,175.085 257.196,175.104C257.001,175.122 256.811,175.171 256.627,175.238C256.441,175.304 256.269,175.399 256.105,175.511C255.943,175.622 255.796,175.758 255.665,175.911C255.532,176.063 255.422,176.237 255.333,176.424C255.157,176.798 255.073,177.236 255.17,177.692C255.218,177.919 255.318,178.148 255.471,178.343C255.634,178.549 255.839,178.691 256.061,178.774C256.172,178.816 256.288,178.843 256.405,178.853C256.523,178.862 256.644,178.853 256.759,178.824C256.816,178.81 256.872,178.787 256.927,178.764C256.953,178.751 256.979,178.737 257.005,178.723C257.03,178.708 257.053,178.691 257.075,178.676C257.167,178.608 257.247,178.529 257.306,178.44C257.428,178.264 257.486,178.074 257.519,177.892C257.536,177.8 257.548,177.709 257.553,177.62C257.561,177.529 257.562,177.44 257.562,177.351C257.555,177 257.506,176.653 257.411,176.314C257.225,175.638 256.877,175.009 256.426,174.47C256.2,174.2 255.948,173.953 255.673,173.731C255.398,173.509 255.101,173.314 254.786,173.151C254.47,172.986 254.136,172.857 253.789,172.765C253.441,172.673 253.081,172.627 252.718,172.628C252.354,172.629 251.99,172.682 251.641,172.783C251.292,172.884 250.957,173.032 250.647,173.218C250.338,173.407 250.053,173.632 249.796,173.887C249.541,174.143 249.312,174.426 249.118,174.734C248.727,175.347 248.467,176.057 248.383,176.809C248.299,177.561 248.392,178.356 248.719,179.088C248.802,179.272 248.903,179.453 249.027,179.626C249.152,179.799 249.298,179.967 249.477,180.112C249.654,180.258 249.863,180.38 250.088,180.458C250.314,180.536 250.556,180.57 250.783,180.553C251.011,180.539 251.223,180.478 251.413,180.392C251.603,180.306 251.773,180.195 251.922,180.065C252.07,179.936 252.199,179.789 252.309,179.631C252.336,179.59 252.363,179.551 252.388,179.51L252.458,179.383C252.5,179.297 252.542,179.208 252.572,179.122C252.636,178.947 252.683,178.77 252.715,178.592C252.746,178.414 252.762,178.236 252.77,178.061C252.785,177.708 252.759,177.364 252.724,177.025C252.433,174.33 251.242,171.726 249.372,169.69L249.194,169.501C249.135,169.438 249.076,169.375 249.013,169.316C248.888,169.197 248.766,169.074 248.638,168.956C248.382,168.722 248.114,168.498 247.831,168.288C247.266,167.87 246.633,167.513 245.936,167.288C245.893,167.273 245.849,167.26 245.805,167.248L245.672,167.21C245.583,167.187 245.493,167.168 245.404,167.147L245.131,167.1C245.085,167.091 245.04,167.088 244.994,167.083L244.856,167.068C244.49,167.036 244.122,167.044 243.762,167.09C243.4,167.134 243.048,167.217 242.707,167.331C242.366,167.444 242.037,167.587 241.721,167.756C241.408,167.928 241.109,168.125 240.828,168.347C240.547,168.569 240.287,168.81 240.046,169.069C239.806,169.328 239.583,169.603 239.38,169.888C239.278,170.031 239.182,170.177 239.088,170.325L238.952,170.549C238.908,170.624 238.866,170.7 238.823,170.776C238.487,171.385 238.213,172.023 237.993,172.674C237.936,172.836 237.886,173.001 237.834,173.165C237.81,173.247 237.787,173.33 237.763,173.413C237.739,173.496 237.717,173.579 237.696,173.662C237.607,173.995 237.536,174.333 237.472,174.671L237.427,174.926L237.388,175.182C237.375,175.268 237.364,175.353 237.353,175.439C237.343,175.525 237.331,175.61 237.322,175.696C237.285,176.04 237.261,176.385 237.247,176.731C237.236,177.078 237.235,177.425 237.248,177.771C237.25,177.858 237.256,177.945 237.26,178.031L237.267,178.161L237.276,178.294C237.29,178.472 237.309,178.654 237.337,178.839C237.364,179.024 237.403,179.214 237.455,179.405C237.508,179.597 237.575,179.791 237.665,179.983C237.842,180.367 238.125,180.742 238.486,181.006C238.667,181.14 238.865,181.247 239.068,181.324C239.271,181.401 239.478,181.449 239.681,181.475C240.088,181.524 240.477,181.486 240.839,181.402C241.202,181.317 241.542,181.187 241.86,181.021C242.02,180.939 242.173,180.848 242.322,180.748C242.47,180.649 242.615,180.538 242.745,180.428C243.274,179.987 243.737,179.472 244.118,178.905C244.311,178.623 244.483,178.328 244.638,178.025C244.792,177.721 244.927,177.407 245.043,177.086C245.16,176.766 245.256,176.439 245.336,176.107C245.414,175.774 245.473,175.437 245.512,175.097C245.552,174.757 245.571,174.414 245.573,174.07C245.572,173.726 245.552,173.381 245.511,173.037C245.469,172.694 245.409,172.352 245.325,172.014C245.241,171.677 245.136,171.344 245.013,171.019C244.891,170.692 244.748,170.374 244.589,170.063C244.43,169.753 244.252,169.452 244.062,169.159C243.87,168.868 243.664,168.584 243.442,168.314C243.22,168.044 242.986,167.783 242.737,167.536C242.243,167.039 241.696,166.594 241.109,166.206C240.522,165.817 239.892,165.49 239.231,165.233C239.148,165.203 239.065,165.168 238.981,165.142L238.477,164.978C238.392,164.952 238.306,164.932 238.221,164.909C237.88,164.814 237.533,164.749 237.185,164.69L236.659,164.622L236.132,164.584C235.78,164.572 235.427,164.566 235.075,164.589C234.372,164.626 233.674,164.737 232.991,164.911L232.482,165.058C232.315,165.113 232.149,165.173 231.983,165.232C231.899,165.26 231.818,165.294 231.736,165.329L231.492,165.431C231.328,165.497 231.171,165.578 231.012,165.656L230.773,165.774L230.542,165.905C230.389,165.994 230.232,166.078 230.086,166.179C229.786,166.373 229.494,166.574 229.221,166.796C228.667,167.231 228.167,167.719 227.701,168.226C227.239,168.735 226.814,169.267 226.417,169.809C226.218,170.08 226.025,170.352 225.839,170.626L225.561,171.037L225.29,171.449C224.571,172.547 223.892,173.648 223.201,174.722C222.854,175.258 222.503,175.786 222.144,176.303C221.784,176.821 221.411,177.321 221.024,177.81C220.926,177.93 220.83,178.052 220.731,178.172L220.431,178.526C220.381,178.586 220.329,178.643 220.277,178.7L220.123,178.873L219.967,179.044L219.81,179.211C219.387,179.654 218.937,180.071 218.463,180.461C218.225,180.655 217.981,180.841 217.732,181.021C217.482,181.198 217.227,181.368 216.965,181.529C216.441,181.85 215.894,182.134 215.322,182.368C215.036,182.486 214.745,182.591 214.447,182.681C214.151,182.773 213.848,182.852 213.541,182.912C213.233,182.973 212.921,183.021 212.604,183.05C212.288,183.078 211.968,183.091 211.645,183.09L211.618,183.368Z" style="fill-rule:nonzero;"/>
                    </g>
                </g>
                <g transform="matrix(1.68089,0,0,1.68089,-132.158,-123.788)">
                    <g transform="matrix(0.198109,0,0,0.198109,21.5559,141.214)">
                        <path d="M965.285,208.037C974.698,208.037 984.407,201.31 984.407,190.821C984.407,184.008 979.059,179.961 969.417,179.961C968.193,179.961 966.892,179.961 965.438,180.19C966.356,177.498 968.958,170.494 969.877,168.031C970.106,167.415 970.489,167.03 970.948,166.953C973.933,166.261 983.491,165.337 988.004,164.875C988.387,164.875 988.77,163.962 988.77,163.582C988.77,163.43 988.77,163.354 988.616,163.354C987.009,163.354 982.65,163.278 978.983,163.278C975.157,163.278 970.795,163.125 969.188,163.125C968.882,163.125 968.729,163.278 968.652,163.584C967.504,167.181 964.52,178.048 963.219,182.786C963.142,183.091 963.066,183.473 963.066,183.625C963.066,183.854 963.219,184.008 963.448,184.008C964.826,183.854 966.05,183.854 967.198,183.854C974.545,184.008 978.601,187.376 978.601,192.735C978.601,200.162 972.096,206.134 964.902,206.134C962.606,206.134 959.928,205.827 957.785,204.373C957.709,204.296 957.709,204.296 957.632,204.296C957.479,204.296 957.02,205.138 957.326,205.521C958.627,206.895 961.458,208.037 965.208,208.037L965.285,208.037ZM954.414,199.551C954.49,199.245 954.108,198.862 953.803,198.862C953.726,198.862 953.573,198.938 953.497,199.091L950.668,203.455C950.209,204.144 949.52,204.603 948.908,204.679C944.163,205.368 937.964,205.674 935.362,205.751C934.597,205.828 933.449,205.828 932.913,205.828L932.837,205.674C933.755,204.986 934.597,204.45 935.209,203.914C944.316,197.331 958.082,185.007 958.082,172.223C958.082,166.406 954.72,162.589 948.908,162.589C943.627,162.589 938.577,166.023 935.592,170.31C935.286,170.769 935.821,171.688 935.975,171.688C936.051,171.688 936.128,171.611 936.204,171.534C938.653,168.32 941.944,165.564 945.923,165.564C949.52,165.564 951.892,168.396 951.892,173.065C951.892,185.696 937.735,197.867 928.245,205.139C928.092,205.215 928.016,205.368 927.939,205.598C927.939,205.828 928.016,206.208 928.169,206.589C928.322,207.35 928.704,207.578 929.24,207.578C930.694,207.578 933.526,207.426 938.27,207.426C945.694,207.426 949.75,207.655 951.051,207.655C951.51,207.655 951.663,207.426 951.816,206.969L954.414,199.551Z" style="fill-rule:nonzero;"/>
                    </g>
                    <path d="M197.635,177.926L211.414,191.705L225.193,177.926L211.414,164.147L197.635,177.926ZM211.414,192.45L196.891,177.926L211.414,163.402L225.938,177.926L211.414,192.45Z" style="fill-rule:nonzero;"/>
                    <path d="M199.869,177.926L211.414,189.471L222.958,177.926L211.414,166.382L199.869,177.926ZM211.414,190.215L199.125,177.926L211.414,165.637L223.703,177.926L211.414,190.215Z" style="fill-rule:nonzero;"/>
                </g>
            </g>
            <path d="M1256.44,880.912L1267.35,891.826L1278.27,880.912L1267.35,870L1256.44,880.912ZM663.562,880.912L652.647,891.826L641.733,880.912L652.647,870L663.562,880.912ZM640.831,880.912L634.916,886.83L629,880.912L634.916,874.998L640.831,880.912ZM1279.17,880.912L1285.08,886.83L1291,880.912L1285.08,874.998L1279.17,880.912ZM1255.59,881.648L664.682,881.648L664.682,880.178L1255.59,880.178L1255.59,881.648Z" style="fill:rgb(13,22,22);fill-rule:nonzero;"/>
        </g>
    </g>
</svg>
